<?xml version="1.0" encoding="utf-8" standalone="no"?>
<!DOCTYPE svg PUBLIC "-//W3C//DTD SVG 1.1//EN"
  "http://www.w3.org/Graphics/SVG/1.1/DTD/svg11.dtd">
<svg xmlns:xlink="http://www.w3.org/1999/xlink" width="739.8pt" height="457.92pt" viewBox="0 0 739.8 457.92" xmlns="http://www.w3.org/2000/svg" version="1.1">
 <metadata>
  <rdf:RDF xmlns:dc="http://purl.org/dc/elements/1.1/" xmlns:cc="http://creativecommons.org/ns#" xmlns:rdf="http://www.w3.org/1999/02/22-rdf-syntax-ns#">
   <cc:Work>
    <dc:type rdf:resource="http://purl.org/dc/dcmitype/StillImage"/>
    <dc:date>2026-06-21T04:46:38.018082</dc:date>
    <dc:format>image/svg+xml</dc:format>
    <dc:creator>
     <cc:Agent>
      <dc:title>Matplotlib v3.10.8, https://matplotlib.org/</dc:title>
     </cc:Agent>
    </dc:creator>
   </cc:Work>
  </rdf:RDF>
 </metadata>
 <defs>
  <style type="text/css">*{stroke-linejoin: round; stroke-linecap: butt}</style>
 </defs>
 <g id="figure_1">
  <g id="patch_1">
   <path d="M 0 457.92 
L 739.8 457.92 
L 739.8 0 
L 0 0 
z
" style="fill: #0e1116"/>
  </g>
  <g id="axes_1">
   <g id="patch_2">
    <path d="M 63 91.4688 
C 64.7758 91.4688 66.479107 90.767819 67.734787 89.52024 
C 68.990467 88.272661 69.696 86.580343 69.696 84.816 
C 69.696 83.051657 68.990467 81.359339 67.734787 80.11176 
C 66.479107 78.864181 64.7758 78.1632 63 78.1632 
C 61.2242 78.1632 59.520893 78.864181 58.265213 80.11176 
C 57.009533 81.359339 56.304 83.051657 56.304 84.816 
C 56.304 86.580343 57.009533 88.272661 58.265213 89.52024 
C 59.520893 90.767819 61.2242 91.4688 63 91.4688 
z
" clip-path="url(#p9b0a9109a2)" style="fill: #16a34a; stroke: #16a34a; stroke-linejoin: miter"/>
   </g>
   <g id="patch_3">
    <path d="M 63 125.8416 
C 64.7758 125.8416 66.479107 125.140619 67.734787 123.89304 
C 68.990467 122.645461 69.696 120.953143 69.696 119.1888 
C 69.696 117.424457 68.990467 115.732139 67.734787 114.48456 
C 66.479107 113.236981 64.7758 112.536 63 112.536 
C 61.2242 112.536 59.520893 113.236981 58.265213 114.48456 
C 57.009533 115.732139 56.304 117.424457 56.304 119.1888 
C 56.304 120.953143 57.009533 122.645461 58.265213 123.89304 
C 59.520893 125.140619 61.2242 125.8416 63 125.8416 
z
" clip-path="url(#p9b0a9109a2)" style="fill: #16a34a; stroke: #16a34a; stroke-linejoin: miter"/>
   </g>
   <g id="patch_4">
    <path d="M 63 160.2144 
C 64.7758 160.2144 66.479107 159.513419 67.734787 158.26584 
C 68.990467 157.018261 69.696 155.325943 69.696 153.5616 
C 69.696 151.797257 68.990467 150.104939 67.734787 148.85736 
C 66.479107 147.609781 64.7758 146.9088 63 146.9088 
C 61.2242 146.9088 59.520893 147.609781 58.265213 148.85736 
C 57.009533 150.104939 56.304 151.797257 56.304 153.5616 
C 56.304 155.325943 57.009533 157.018261 58.265213 158.26584 
C 59.520893 159.513419 61.2242 160.2144 63 160.2144 
z
" clip-path="url(#p9b0a9109a2)" style="fill: #16a34a; stroke: #16a34a; stroke-linejoin: miter"/>
   </g>
   <g id="patch_5">
    <path d="M 63 194.5872 
C 64.7758 194.5872 66.479107 193.886219 67.734787 192.63864 
C 68.990467 191.391061 69.696 189.698743 69.696 187.9344 
C 69.696 186.170057 68.990467 184.477739 67.734787 183.23016 
C 66.479107 181.982581 64.7758 181.2816 63 181.2816 
C 61.2242 181.2816 59.520893 181.982581 58.265213 183.23016 
C 57.009533 184.477739 56.304 186.170057 56.304 187.9344 
C 56.304 189.698743 57.009533 191.391061 58.265213 192.63864 
C 59.520893 193.886219 61.2242 194.5872 63 194.5872 
z
" clip-path="url(#p9b0a9109a2)" style="fill: #16a34a; stroke: #16a34a; stroke-linejoin: miter"/>
   </g>
   <g id="patch_6">
    <path d="M 63 228.96 
C 64.7758 228.96 66.479107 228.259019 67.734787 227.01144 
C 68.990467 225.763861 69.696 224.071543 69.696 222.3072 
C 69.696 220.542857 68.990467 218.850539 67.734787 217.60296 
C 66.479107 216.355381 64.7758 215.6544 63 215.6544 
C 61.2242 215.6544 59.520893 216.355381 58.265213 217.60296 
C 57.009533 218.850539 56.304 220.542857 56.304 222.3072 
C 56.304 224.071543 57.009533 225.763861 58.265213 227.01144 
C 59.520893 228.259019 61.2242 228.96 63 228.96 
z
" clip-path="url(#p9b0a9109a2)" style="fill: #16a34a; stroke: #16a34a; stroke-linejoin: miter"/>
   </g>
   <g id="patch_7">
    <path d="M 63 263.3328 
C 64.7758 263.3328 66.479107 262.631819 67.734787 261.38424 
C 68.990467 260.136661 69.696 258.444343 69.696 256.68 
C 69.696 254.915657 68.990467 253.223339 67.734787 251.97576 
C 66.479107 250.728181 64.7758 250.0272 63 250.0272 
C 61.2242 250.0272 59.520893 250.728181 58.265213 251.97576 
C 57.009533 253.223339 56.304 254.915657 56.304 256.68 
C 56.304 258.444343 57.009533 260.136661 58.265213 261.38424 
C 59.520893 262.631819 61.2242 263.3328 63 263.3328 
z
" clip-path="url(#p9b0a9109a2)" style="fill: #dc2626; stroke: #dc2626; stroke-linejoin: miter"/>
   </g>
   <g id="patch_8">
    <path d="M 63 297.7056 
C 64.7758 297.7056 66.479107 297.004619 67.734787 295.75704 
C 68.990467 294.509461 69.696 292.817143 69.696 291.0528 
C 69.696 289.288457 68.990467 287.596139 67.734787 286.34856 
C 66.479107 285.100981 64.7758 284.4 63 284.4 
C 61.2242 284.4 59.520893 285.100981 58.265213 286.34856 
C 57.009533 287.596139 56.304 289.288457 56.304 291.0528 
C 56.304 292.817143 57.009533 294.509461 58.265213 295.75704 
C 59.520893 297.004619 61.2242 297.7056 63 297.7056 
z
" clip-path="url(#p9b0a9109a2)" style="fill: #e5e7eb; stroke: #e5e7eb; stroke-linejoin: miter"/>
   </g>
   <g id="patch_9">
    <path d="M 63 332.0784 
C 64.7758 332.0784 66.479107 331.377419 67.734787 330.12984 
C 68.990467 328.882261 69.696 327.189943 69.696 325.4256 
C 69.696 323.661257 68.990467 321.968939 67.734787 320.72136 
C 66.479107 319.473781 64.7758 318.7728 63 318.7728 
C 61.2242 318.7728 59.520893 319.473781 58.265213 320.72136 
C 57.009533 321.968939 56.304 323.661257 56.304 325.4256 
C 56.304 327.189943 57.009533 328.882261 58.265213 330.12984 
C 59.520893 331.377419 61.2242 332.0784 63 332.0784 
z
" clip-path="url(#p9b0a9109a2)" style="fill: #7c3aed; stroke: #7c3aed; stroke-linejoin: miter"/>
   </g>
   <g id="patch_10">
    <path d="M 63 366.4512 
C 64.7758 366.4512 66.479107 365.750219 67.734787 364.50264 
C 68.990467 363.255061 69.696 361.562743 69.696 359.7984 
C 69.696 358.034057 68.990467 356.341739 67.734787 355.09416 
C 66.479107 353.846581 64.7758 353.1456 63 353.1456 
C 61.2242 353.1456 59.520893 353.846581 58.265213 355.09416 
C 57.009533 356.341739 56.304 358.034057 56.304 359.7984 
C 56.304 361.562743 57.009533 363.255061 58.265213 364.50264 
C 59.520893 365.750219 61.2242 366.4512 63 366.4512 
z
" clip-path="url(#p9b0a9109a2)" style="fill: #b45309; stroke: #b45309; stroke-linejoin: miter"/>
   </g>
   <g id="text_1">
    <!-- Raspberry Pi 4 — belegte GPIO-Pins (BCM) -->
    <g style="fill: #ffffff" transform="translate(18.36 23.832) scale(0.15 -0.15)">
     <defs>
      <path id="DejaVuSans-Bold-52" d="M 2297 2597 
Q 2675 2597 2839 2737 
Q 3003 2878 3003 3200 
Q 3003 3519 2839 3656 
Q 2675 3794 2297 3794 
L 1791 3794 
L 1791 2597 
L 2297 2597 
z
M 1791 1766 
L 1791 0 
L 588 0 
L 588 4666 
L 2425 4666 
Q 3347 4666 3776 4356 
Q 4206 4047 4206 3378 
Q 4206 2916 3982 2619 
Q 3759 2322 3309 2181 
Q 3556 2125 3751 1926 
Q 3947 1728 4147 1325 
L 4800 0 
L 3519 0 
L 2950 1159 
Q 2778 1509 2601 1637 
Q 2425 1766 2131 1766 
L 1791 1766 
z
" transform="scale(0.015625)"/>
      <path id="DejaVuSans-Bold-61" d="M 2106 1575 
Q 1756 1575 1579 1456 
Q 1403 1338 1403 1106 
Q 1403 894 1545 773 
Q 1688 653 1941 653 
Q 2256 653 2472 879 
Q 2688 1106 2688 1447 
L 2688 1575 
L 2106 1575 
z
M 3816 1997 
L 3816 0 
L 2688 0 
L 2688 519 
Q 2463 200 2181 54 
Q 1900 -91 1497 -91 
Q 953 -91 614 226 
Q 275 544 275 1050 
Q 275 1666 698 1953 
Q 1122 2241 2028 2241 
L 2688 2241 
L 2688 2328 
Q 2688 2594 2478 2717 
Q 2269 2841 1825 2841 
Q 1466 2841 1156 2769 
Q 847 2697 581 2553 
L 581 3406 
Q 941 3494 1303 3539 
Q 1666 3584 2028 3584 
Q 2975 3584 3395 3211 
Q 3816 2838 3816 1997 
z
" transform="scale(0.015625)"/>
      <path id="DejaVuSans-Bold-73" d="M 3272 3391 
L 3272 2541 
Q 2913 2691 2578 2766 
Q 2244 2841 1947 2841 
Q 1628 2841 1473 2761 
Q 1319 2681 1319 2516 
Q 1319 2381 1436 2309 
Q 1553 2238 1856 2203 
L 2053 2175 
Q 2913 2066 3209 1816 
Q 3506 1566 3506 1031 
Q 3506 472 3093 190 
Q 2681 -91 1863 -91 
Q 1516 -91 1145 -36 
Q 775 19 384 128 
L 384 978 
Q 719 816 1070 734 
Q 1422 653 1784 653 
Q 2113 653 2278 743 
Q 2444 834 2444 1013 
Q 2444 1163 2330 1236 
Q 2216 1309 1875 1350 
L 1678 1375 
Q 931 1469 631 1722 
Q 331 1975 331 2491 
Q 331 3047 712 3315 
Q 1094 3584 1881 3584 
Q 2191 3584 2531 3537 
Q 2872 3491 3272 3391 
z
" transform="scale(0.015625)"/>
      <path id="DejaVuSans-Bold-70" d="M 1656 506 
L 1656 -1331 
L 538 -1331 
L 538 3500 
L 1656 3500 
L 1656 2988 
Q 1888 3294 2169 3439 
Q 2450 3584 2816 3584 
Q 3463 3584 3878 3070 
Q 4294 2556 4294 1747 
Q 4294 938 3878 423 
Q 3463 -91 2816 -91 
Q 2450 -91 2169 54 
Q 1888 200 1656 506 
z
M 2400 2772 
Q 2041 2772 1848 2508 
Q 1656 2244 1656 1747 
Q 1656 1250 1848 986 
Q 2041 722 2400 722 
Q 2759 722 2948 984 
Q 3138 1247 3138 1747 
Q 3138 2247 2948 2509 
Q 2759 2772 2400 2772 
z
" transform="scale(0.015625)"/>
      <path id="DejaVuSans-Bold-62" d="M 2400 722 
Q 2759 722 2948 984 
Q 3138 1247 3138 1747 
Q 3138 2247 2948 2509 
Q 2759 2772 2400 2772 
Q 2041 2772 1848 2508 
Q 1656 2244 1656 1747 
Q 1656 1250 1848 986 
Q 2041 722 2400 722 
z
M 1656 2988 
Q 1888 3294 2169 3439 
Q 2450 3584 2816 3584 
Q 3463 3584 3878 3070 
Q 4294 2556 4294 1747 
Q 4294 938 3878 423 
Q 3463 -91 2816 -91 
Q 2450 -91 2169 54 
Q 1888 200 1656 506 
L 1656 0 
L 538 0 
L 538 4863 
L 1656 4863 
L 1656 2988 
z
" transform="scale(0.015625)"/>
      <path id="DejaVuSans-Bold-65" d="M 4031 1759 
L 4031 1441 
L 1416 1441 
Q 1456 1047 1700 850 
Q 1944 653 2381 653 
Q 2734 653 3104 758 
Q 3475 863 3866 1075 
L 3866 213 
Q 3469 63 3072 -14 
Q 2675 -91 2278 -91 
Q 1328 -91 801 392 
Q 275 875 275 1747 
Q 275 2603 792 3093 
Q 1309 3584 2216 3584 
Q 3041 3584 3536 3087 
Q 4031 2591 4031 1759 
z
M 2881 2131 
Q 2881 2450 2695 2645 
Q 2509 2841 2209 2841 
Q 1884 2841 1681 2658 
Q 1478 2475 1428 2131 
L 2881 2131 
z
" transform="scale(0.015625)"/>
      <path id="DejaVuSans-Bold-72" d="M 3138 2547 
Q 2991 2616 2845 2648 
Q 2700 2681 2553 2681 
Q 2122 2681 1889 2404 
Q 1656 2128 1656 1613 
L 1656 0 
L 538 0 
L 538 3500 
L 1656 3500 
L 1656 2925 
Q 1872 3269 2151 3426 
Q 2431 3584 2822 3584 
Q 2878 3584 2943 3579 
Q 3009 3575 3134 3559 
L 3138 2547 
z
" transform="scale(0.015625)"/>
      <path id="DejaVuSans-Bold-79" d="M 78 3500 
L 1197 3500 
L 2138 1125 
L 2938 3500 
L 4056 3500 
L 2584 -331 
Q 2363 -916 2067 -1148 
Q 1772 -1381 1288 -1381 
L 641 -1381 
L 641 -647 
L 991 -647 
Q 1275 -647 1404 -556 
Q 1534 -466 1606 -231 
L 1638 -134 
L 78 3500 
z
" transform="scale(0.015625)"/>
      <path id="DejaVuSans-Bold-20" transform="scale(0.015625)"/>
      <path id="DejaVuSans-Bold-50" d="M 588 4666 
L 2584 4666 
Q 3475 4666 3951 4270 
Q 4428 3875 4428 3144 
Q 4428 2409 3951 2014 
Q 3475 1619 2584 1619 
L 1791 1619 
L 1791 0 
L 588 0 
L 588 4666 
z
M 1791 3794 
L 1791 2491 
L 2456 2491 
Q 2806 2491 2997 2661 
Q 3188 2831 3188 3144 
Q 3188 3456 2997 3625 
Q 2806 3794 2456 3794 
L 1791 3794 
z
" transform="scale(0.015625)"/>
      <path id="DejaVuSans-Bold-69" d="M 538 3500 
L 1656 3500 
L 1656 0 
L 538 0 
L 538 3500 
z
M 538 4863 
L 1656 4863 
L 1656 3950 
L 538 3950 
L 538 4863 
z
" transform="scale(0.015625)"/>
      <path id="DejaVuSans-Bold-34" d="M 2356 3675 
L 1038 1722 
L 2356 1722 
L 2356 3675 
z
M 2156 4666 
L 3494 4666 
L 3494 1722 
L 4159 1722 
L 4159 850 
L 3494 850 
L 3494 0 
L 2356 0 
L 2356 850 
L 288 850 
L 288 1881 
L 2156 4666 
z
" transform="scale(0.015625)"/>
      <path id="DejaVuSans-Bold-2014" d="M 344 2156 
L 6056 2156 
L 6056 1350 
L 344 1350 
L 344 2156 
z
" transform="scale(0.015625)"/>
      <path id="DejaVuSans-Bold-6c" d="M 538 4863 
L 1656 4863 
L 1656 0 
L 538 0 
L 538 4863 
z
" transform="scale(0.015625)"/>
      <path id="DejaVuSans-Bold-67" d="M 2919 594 
Q 2688 288 2409 144 
Q 2131 0 1766 0 
Q 1125 0 706 504 
Q 288 1009 288 1791 
Q 288 2575 706 3076 
Q 1125 3578 1766 3578 
Q 2131 3578 2409 3434 
Q 2688 3291 2919 2981 
L 2919 3500 
L 4044 3500 
L 4044 353 
Q 4044 -491 3511 -936 
Q 2978 -1381 1966 -1381 
Q 1638 -1381 1331 -1331 
Q 1025 -1281 716 -1178 
L 716 -306 
Q 1009 -475 1290 -558 
Q 1572 -641 1856 -641 
Q 2406 -641 2662 -400 
Q 2919 -159 2919 353 
L 2919 594 
z
M 2181 2772 
Q 1834 2772 1640 2515 
Q 1447 2259 1447 1791 
Q 1447 1309 1634 1061 
Q 1822 813 2181 813 
Q 2531 813 2725 1069 
Q 2919 1325 2919 1791 
Q 2919 2259 2725 2515 
Q 2531 2772 2181 2772 
z
" transform="scale(0.015625)"/>
      <path id="DejaVuSans-Bold-74" d="M 1759 4494 
L 1759 3500 
L 2913 3500 
L 2913 2700 
L 1759 2700 
L 1759 1216 
Q 1759 972 1856 886 
Q 1953 800 2241 800 
L 2816 800 
L 2816 0 
L 1856 0 
Q 1194 0 917 276 
Q 641 553 641 1216 
L 641 2700 
L 84 2700 
L 84 3500 
L 641 3500 
L 641 4494 
L 1759 4494 
z
" transform="scale(0.015625)"/>
      <path id="DejaVuSans-Bold-47" d="M 4781 347 
Q 4331 128 3847 18 
Q 3363 -91 2847 -91 
Q 1681 -91 1000 561 
Q 319 1213 319 2328 
Q 319 3456 1012 4103 
Q 1706 4750 2913 4750 
Q 3378 4750 3804 4662 
Q 4231 4575 4609 4403 
L 4609 3438 
Q 4219 3659 3833 3768 
Q 3447 3878 3059 3878 
Q 2341 3878 1952 3476 
Q 1563 3075 1563 2328 
Q 1563 1588 1938 1184 
Q 2313 781 3003 781 
Q 3191 781 3352 804 
Q 3513 828 3641 878 
L 3641 1784 
L 2906 1784 
L 2906 2591 
L 4781 2591 
L 4781 347 
z
" transform="scale(0.015625)"/>
      <path id="DejaVuSans-Bold-49" d="M 588 4666 
L 1791 4666 
L 1791 0 
L 588 0 
L 588 4666 
z
" transform="scale(0.015625)"/>
      <path id="DejaVuSans-Bold-4f" d="M 2719 3878 
Q 2169 3878 1866 3472 
Q 1563 3066 1563 2328 
Q 1563 1594 1866 1187 
Q 2169 781 2719 781 
Q 3272 781 3575 1187 
Q 3878 1594 3878 2328 
Q 3878 3066 3575 3472 
Q 3272 3878 2719 3878 
z
M 2719 4750 
Q 3844 4750 4481 4106 
Q 5119 3463 5119 2328 
Q 5119 1197 4481 553 
Q 3844 -91 2719 -91 
Q 1597 -91 958 553 
Q 319 1197 319 2328 
Q 319 3463 958 4106 
Q 1597 4750 2719 4750 
z
" transform="scale(0.015625)"/>
      <path id="DejaVuSans-Bold-2d" d="M 347 2297 
L 2309 2297 
L 2309 1388 
L 347 1388 
L 347 2297 
z
" transform="scale(0.015625)"/>
      <path id="DejaVuSans-Bold-6e" d="M 4056 2131 
L 4056 0 
L 2931 0 
L 2931 347 
L 2931 1631 
Q 2931 2084 2911 2256 
Q 2891 2428 2841 2509 
Q 2775 2619 2662 2680 
Q 2550 2741 2406 2741 
Q 2056 2741 1856 2470 
Q 1656 2200 1656 1722 
L 1656 0 
L 538 0 
L 538 3500 
L 1656 3500 
L 1656 2988 
Q 1909 3294 2193 3439 
Q 2478 3584 2822 3584 
Q 3428 3584 3742 3212 
Q 4056 2841 4056 2131 
z
" transform="scale(0.015625)"/>
      <path id="DejaVuSans-Bold-28" d="M 2413 -844 
L 1484 -844 
Q 1006 -72 778 623 
Q 550 1319 550 2003 
Q 550 2688 779 3389 
Q 1009 4091 1484 4856 
L 2413 4856 
Q 2013 4116 1813 3408 
Q 1613 2700 1613 2009 
Q 1613 1319 1811 609 
Q 2009 -100 2413 -844 
z
" transform="scale(0.015625)"/>
      <path id="DejaVuSans-Bold-42" d="M 2456 2859 
Q 2741 2859 2887 2984 
Q 3034 3109 3034 3353 
Q 3034 3594 2887 3720 
Q 2741 3847 2456 3847 
L 1791 3847 
L 1791 2859 
L 2456 2859 
z
M 2497 819 
Q 2859 819 3042 972 
Q 3225 1125 3225 1434 
Q 3225 1738 3044 1889 
Q 2863 2041 2497 2041 
L 1791 2041 
L 1791 819 
L 2497 819 
z
M 3616 2497 
Q 4003 2384 4215 2081 
Q 4428 1778 4428 1338 
Q 4428 663 3972 331 
Q 3516 0 2584 0 
L 588 0 
L 588 4666 
L 2394 4666 
Q 3366 4666 3802 4372 
Q 4238 4078 4238 3431 
Q 4238 3091 4078 2852 
Q 3919 2613 3616 2497 
z
" transform="scale(0.015625)"/>
      <path id="DejaVuSans-Bold-43" d="M 4288 256 
Q 3956 84 3597 -3 
Q 3238 -91 2847 -91 
Q 1681 -91 1000 561 
Q 319 1213 319 2328 
Q 319 3447 1000 4098 
Q 1681 4750 2847 4750 
Q 3238 4750 3597 4662 
Q 3956 4575 4288 4403 
L 4288 3438 
Q 3953 3666 3628 3772 
Q 3303 3878 2944 3878 
Q 2300 3878 1931 3465 
Q 1563 3053 1563 2328 
Q 1563 1606 1931 1193 
Q 2300 781 2944 781 
Q 3303 781 3628 887 
Q 3953 994 4288 1222 
L 4288 256 
z
" transform="scale(0.015625)"/>
      <path id="DejaVuSans-Bold-4d" d="M 588 4666 
L 2119 4666 
L 3181 2169 
L 4250 4666 
L 5778 4666 
L 5778 0 
L 4641 0 
L 4641 3413 
L 3566 897 
L 2803 897 
L 1728 3413 
L 1728 0 
L 588 0 
L 588 4666 
z
" transform="scale(0.015625)"/>
      <path id="DejaVuSans-Bold-29" d="M 513 -844 
Q 913 -100 1113 609 
Q 1313 1319 1313 2009 
Q 1313 2700 1113 3408 
Q 913 4116 513 4856 
L 1441 4856 
Q 1916 4091 2145 3389 
Q 2375 2688 2375 2003 
Q 2375 1319 2147 623 
Q 1919 -72 1441 -844 
L 513 -844 
z
" transform="scale(0.015625)"/>
     </defs>
     <use xlink:href="#DejaVuSans-Bold-52"/>
     <use xlink:href="#DejaVuSans-Bold-61" transform="translate(77.001953 0)"/>
     <use xlink:href="#DejaVuSans-Bold-73" transform="translate(144.482422 0)"/>
     <use xlink:href="#DejaVuSans-Bold-70" transform="translate(204.003906 0)"/>
     <use xlink:href="#DejaVuSans-Bold-62" transform="translate(275.585938 0)"/>
     <use xlink:href="#DejaVuSans-Bold-65" transform="translate(347.167969 0)"/>
     <use xlink:href="#DejaVuSans-Bold-72" transform="translate(414.990234 0)"/>
     <use xlink:href="#DejaVuSans-Bold-72" transform="translate(464.306641 0)"/>
     <use xlink:href="#DejaVuSans-Bold-79" transform="translate(513.623047 0)"/>
     <use xlink:href="#DejaVuSans-Bold-20" transform="translate(578.808594 0)"/>
     <use xlink:href="#DejaVuSans-Bold-50" transform="translate(613.623047 0)"/>
     <use xlink:href="#DejaVuSans-Bold-69" transform="translate(686.914062 0)"/>
     <use xlink:href="#DejaVuSans-Bold-20" transform="translate(721.191406 0)"/>
     <use xlink:href="#DejaVuSans-Bold-34" transform="translate(756.005859 0)"/>
     <use xlink:href="#DejaVuSans-Bold-20" transform="translate(825.585938 0)"/>
     <use xlink:href="#DejaVuSans-Bold-2014" transform="translate(860.400391 0)"/>
     <use xlink:href="#DejaVuSans-Bold-20" transform="translate(960.400391 0)"/>
     <use xlink:href="#DejaVuSans-Bold-62" transform="translate(995.214844 0)"/>
     <use xlink:href="#DejaVuSans-Bold-65" transform="translate(1066.796875 0)"/>
     <use xlink:href="#DejaVuSans-Bold-6c" transform="translate(1134.619141 0)"/>
     <use xlink:href="#DejaVuSans-Bold-65" transform="translate(1168.896484 0)"/>
     <use xlink:href="#DejaVuSans-Bold-67" transform="translate(1236.71875 0)"/>
     <use xlink:href="#DejaVuSans-Bold-74" transform="translate(1308.300781 0)"/>
     <use xlink:href="#DejaVuSans-Bold-65" transform="translate(1356.103516 0)"/>
     <use xlink:href="#DejaVuSans-Bold-20" transform="translate(1423.925781 0)"/>
     <use xlink:href="#DejaVuSans-Bold-47" transform="translate(1458.740234 0)"/>
     <use xlink:href="#DejaVuSans-Bold-50" transform="translate(1540.820312 0)"/>
     <use xlink:href="#DejaVuSans-Bold-49" transform="translate(1614.111328 0)"/>
     <use xlink:href="#DejaVuSans-Bold-4f" transform="translate(1651.318359 0)"/>
     <use xlink:href="#DejaVuSans-Bold-2d" transform="translate(1738.203125 0)"/>
     <use xlink:href="#DejaVuSans-Bold-50" transform="translate(1779.707031 0)"/>
     <use xlink:href="#DejaVuSans-Bold-69" transform="translate(1852.998047 0)"/>
     <use xlink:href="#DejaVuSans-Bold-6e" transform="translate(1887.275391 0)"/>
     <use xlink:href="#DejaVuSans-Bold-73" transform="translate(1958.466797 0)"/>
     <use xlink:href="#DejaVuSans-Bold-20" transform="translate(2017.988281 0)"/>
     <use xlink:href="#DejaVuSans-Bold-28" transform="translate(2052.802734 0)"/>
     <use xlink:href="#DejaVuSans-Bold-42" transform="translate(2098.505859 0)"/>
     <use xlink:href="#DejaVuSans-Bold-43" transform="translate(2174.726562 0)"/>
     <use xlink:href="#DejaVuSans-Bold-4d" transform="translate(2248.115234 0)"/>
     <use xlink:href="#DejaVuSans-Bold-29" transform="translate(2347.626953 0)"/>
    </g>
   </g>
   <g id="text_2">
    <!-- PiLiDAR 2.0 — Verkabelungs- &amp; Aufbaudokumentation -->
    <g style="fill: #94a3b8" transform="translate(18.36 41.5728) scale(0.09 -0.09)">
     <defs>
      <path id="DejaVuSans-50" d="M 1259 4147 
L 1259 2394 
L 2053 2394 
Q 2494 2394 2734 2622 
Q 2975 2850 2975 3272 
Q 2975 3691 2734 3919 
Q 2494 4147 2053 4147 
L 1259 4147 
z
M 628 4666 
L 2053 4666 
Q 2838 4666 3239 4311 
Q 3641 3956 3641 3272 
Q 3641 2581 3239 2228 
Q 2838 1875 2053 1875 
L 1259 1875 
L 1259 0 
L 628 0 
L 628 4666 
z
" transform="scale(0.015625)"/>
      <path id="DejaVuSans-69" d="M 603 3500 
L 1178 3500 
L 1178 0 
L 603 0 
L 603 3500 
z
M 603 4863 
L 1178 4863 
L 1178 4134 
L 603 4134 
L 603 4863 
z
" transform="scale(0.015625)"/>
      <path id="DejaVuSans-4c" d="M 628 4666 
L 1259 4666 
L 1259 531 
L 3531 531 
L 3531 0 
L 628 0 
L 628 4666 
z
" transform="scale(0.015625)"/>
      <path id="DejaVuSans-44" d="M 1259 4147 
L 1259 519 
L 2022 519 
Q 2988 519 3436 956 
Q 3884 1394 3884 2338 
Q 3884 3275 3436 3711 
Q 2988 4147 2022 4147 
L 1259 4147 
z
M 628 4666 
L 1925 4666 
Q 3281 4666 3915 4102 
Q 4550 3538 4550 2338 
Q 4550 1131 3912 565 
Q 3275 0 1925 0 
L 628 0 
L 628 4666 
z
" transform="scale(0.015625)"/>
      <path id="DejaVuSans-41" d="M 2188 4044 
L 1331 1722 
L 3047 1722 
L 2188 4044 
z
M 1831 4666 
L 2547 4666 
L 4325 0 
L 3669 0 
L 3244 1197 
L 1141 1197 
L 716 0 
L 50 0 
L 1831 4666 
z
" transform="scale(0.015625)"/>
      <path id="DejaVuSans-52" d="M 2841 2188 
Q 3044 2119 3236 1894 
Q 3428 1669 3622 1275 
L 4263 0 
L 3584 0 
L 2988 1197 
Q 2756 1666 2539 1819 
Q 2322 1972 1947 1972 
L 1259 1972 
L 1259 0 
L 628 0 
L 628 4666 
L 2053 4666 
Q 2853 4666 3247 4331 
Q 3641 3997 3641 3322 
Q 3641 2881 3436 2590 
Q 3231 2300 2841 2188 
z
M 1259 4147 
L 1259 2491 
L 2053 2491 
Q 2509 2491 2742 2702 
Q 2975 2913 2975 3322 
Q 2975 3731 2742 3939 
Q 2509 4147 2053 4147 
L 1259 4147 
z
" transform="scale(0.015625)"/>
      <path id="DejaVuSans-20" transform="scale(0.015625)"/>
      <path id="DejaVuSans-32" d="M 1228 531 
L 3431 531 
L 3431 0 
L 469 0 
L 469 531 
Q 828 903 1448 1529 
Q 2069 2156 2228 2338 
Q 2531 2678 2651 2914 
Q 2772 3150 2772 3378 
Q 2772 3750 2511 3984 
Q 2250 4219 1831 4219 
Q 1534 4219 1204 4116 
Q 875 4013 500 3803 
L 500 4441 
Q 881 4594 1212 4672 
Q 1544 4750 1819 4750 
Q 2544 4750 2975 4387 
Q 3406 4025 3406 3419 
Q 3406 3131 3298 2873 
Q 3191 2616 2906 2266 
Q 2828 2175 2409 1742 
Q 1991 1309 1228 531 
z
" transform="scale(0.015625)"/>
      <path id="DejaVuSans-2e" d="M 684 794 
L 1344 794 
L 1344 0 
L 684 0 
L 684 794 
z
" transform="scale(0.015625)"/>
      <path id="DejaVuSans-30" d="M 2034 4250 
Q 1547 4250 1301 3770 
Q 1056 3291 1056 2328 
Q 1056 1369 1301 889 
Q 1547 409 2034 409 
Q 2525 409 2770 889 
Q 3016 1369 3016 2328 
Q 3016 3291 2770 3770 
Q 2525 4250 2034 4250 
z
M 2034 4750 
Q 2819 4750 3233 4129 
Q 3647 3509 3647 2328 
Q 3647 1150 3233 529 
Q 2819 -91 2034 -91 
Q 1250 -91 836 529 
Q 422 1150 422 2328 
Q 422 3509 836 4129 
Q 1250 4750 2034 4750 
z
" transform="scale(0.015625)"/>
      <path id="DejaVuSans-2014" d="M 313 1978 
L 6088 1978 
L 6088 1528 
L 313 1528 
L 313 1978 
z
" transform="scale(0.015625)"/>
      <path id="DejaVuSans-56" d="M 1831 0 
L 50 4666 
L 709 4666 
L 2188 738 
L 3669 4666 
L 4325 4666 
L 2547 0 
L 1831 0 
z
" transform="scale(0.015625)"/>
      <path id="DejaVuSans-65" d="M 3597 1894 
L 3597 1613 
L 953 1613 
Q 991 1019 1311 708 
Q 1631 397 2203 397 
Q 2534 397 2845 478 
Q 3156 559 3463 722 
L 3463 178 
Q 3153 47 2828 -22 
Q 2503 -91 2169 -91 
Q 1331 -91 842 396 
Q 353 884 353 1716 
Q 353 2575 817 3079 
Q 1281 3584 2069 3584 
Q 2775 3584 3186 3129 
Q 3597 2675 3597 1894 
z
M 3022 2063 
Q 3016 2534 2758 2815 
Q 2500 3097 2075 3097 
Q 1594 3097 1305 2825 
Q 1016 2553 972 2059 
L 3022 2063 
z
" transform="scale(0.015625)"/>
      <path id="DejaVuSans-72" d="M 2631 2963 
Q 2534 3019 2420 3045 
Q 2306 3072 2169 3072 
Q 1681 3072 1420 2755 
Q 1159 2438 1159 1844 
L 1159 0 
L 581 0 
L 581 3500 
L 1159 3500 
L 1159 2956 
Q 1341 3275 1631 3429 
Q 1922 3584 2338 3584 
Q 2397 3584 2469 3576 
Q 2541 3569 2628 3553 
L 2631 2963 
z
" transform="scale(0.015625)"/>
      <path id="DejaVuSans-6b" d="M 581 4863 
L 1159 4863 
L 1159 1991 
L 2875 3500 
L 3609 3500 
L 1753 1863 
L 3688 0 
L 2938 0 
L 1159 1709 
L 1159 0 
L 581 0 
L 581 4863 
z
" transform="scale(0.015625)"/>
      <path id="DejaVuSans-61" d="M 2194 1759 
Q 1497 1759 1228 1600 
Q 959 1441 959 1056 
Q 959 750 1161 570 
Q 1363 391 1709 391 
Q 2188 391 2477 730 
Q 2766 1069 2766 1631 
L 2766 1759 
L 2194 1759 
z
M 3341 1997 
L 3341 0 
L 2766 0 
L 2766 531 
Q 2569 213 2275 61 
Q 1981 -91 1556 -91 
Q 1019 -91 701 211 
Q 384 513 384 1019 
Q 384 1609 779 1909 
Q 1175 2209 1959 2209 
L 2766 2209 
L 2766 2266 
Q 2766 2663 2505 2880 
Q 2244 3097 1772 3097 
Q 1472 3097 1187 3025 
Q 903 2953 641 2809 
L 641 3341 
Q 956 3463 1253 3523 
Q 1550 3584 1831 3584 
Q 2591 3584 2966 3190 
Q 3341 2797 3341 1997 
z
" transform="scale(0.015625)"/>
      <path id="DejaVuSans-62" d="M 3116 1747 
Q 3116 2381 2855 2742 
Q 2594 3103 2138 3103 
Q 1681 3103 1420 2742 
Q 1159 2381 1159 1747 
Q 1159 1113 1420 752 
Q 1681 391 2138 391 
Q 2594 391 2855 752 
Q 3116 1113 3116 1747 
z
M 1159 2969 
Q 1341 3281 1617 3432 
Q 1894 3584 2278 3584 
Q 2916 3584 3314 3078 
Q 3713 2572 3713 1747 
Q 3713 922 3314 415 
Q 2916 -91 2278 -91 
Q 1894 -91 1617 61 
Q 1341 213 1159 525 
L 1159 0 
L 581 0 
L 581 4863 
L 1159 4863 
L 1159 2969 
z
" transform="scale(0.015625)"/>
      <path id="DejaVuSans-6c" d="M 603 4863 
L 1178 4863 
L 1178 0 
L 603 0 
L 603 4863 
z
" transform="scale(0.015625)"/>
      <path id="DejaVuSans-75" d="M 544 1381 
L 544 3500 
L 1119 3500 
L 1119 1403 
Q 1119 906 1312 657 
Q 1506 409 1894 409 
Q 2359 409 2629 706 
Q 2900 1003 2900 1516 
L 2900 3500 
L 3475 3500 
L 3475 0 
L 2900 0 
L 2900 538 
Q 2691 219 2414 64 
Q 2138 -91 1772 -91 
Q 1169 -91 856 284 
Q 544 659 544 1381 
z
M 1991 3584 
L 1991 3584 
z
" transform="scale(0.015625)"/>
      <path id="DejaVuSans-6e" d="M 3513 2113 
L 3513 0 
L 2938 0 
L 2938 2094 
Q 2938 2591 2744 2837 
Q 2550 3084 2163 3084 
Q 1697 3084 1428 2787 
Q 1159 2491 1159 1978 
L 1159 0 
L 581 0 
L 581 3500 
L 1159 3500 
L 1159 2956 
Q 1366 3272 1645 3428 
Q 1925 3584 2291 3584 
Q 2894 3584 3203 3211 
Q 3513 2838 3513 2113 
z
" transform="scale(0.015625)"/>
      <path id="DejaVuSans-67" d="M 2906 1791 
Q 2906 2416 2648 2759 
Q 2391 3103 1925 3103 
Q 1463 3103 1205 2759 
Q 947 2416 947 1791 
Q 947 1169 1205 825 
Q 1463 481 1925 481 
Q 2391 481 2648 825 
Q 2906 1169 2906 1791 
z
M 3481 434 
Q 3481 -459 3084 -895 
Q 2688 -1331 1869 -1331 
Q 1566 -1331 1297 -1286 
Q 1028 -1241 775 -1147 
L 775 -588 
Q 1028 -725 1275 -790 
Q 1522 -856 1778 -856 
Q 2344 -856 2625 -561 
Q 2906 -266 2906 331 
L 2906 616 
Q 2728 306 2450 153 
Q 2172 0 1784 0 
Q 1141 0 747 490 
Q 353 981 353 1791 
Q 353 2603 747 3093 
Q 1141 3584 1784 3584 
Q 2172 3584 2450 3431 
Q 2728 3278 2906 2969 
L 2906 3500 
L 3481 3500 
L 3481 434 
z
" transform="scale(0.015625)"/>
      <path id="DejaVuSans-73" d="M 2834 3397 
L 2834 2853 
Q 2591 2978 2328 3040 
Q 2066 3103 1784 3103 
Q 1356 3103 1142 2972 
Q 928 2841 928 2578 
Q 928 2378 1081 2264 
Q 1234 2150 1697 2047 
L 1894 2003 
Q 2506 1872 2764 1633 
Q 3022 1394 3022 966 
Q 3022 478 2636 193 
Q 2250 -91 1575 -91 
Q 1294 -91 989 -36 
Q 684 19 347 128 
L 347 722 
Q 666 556 975 473 
Q 1284 391 1588 391 
Q 1994 391 2212 530 
Q 2431 669 2431 922 
Q 2431 1156 2273 1281 
Q 2116 1406 1581 1522 
L 1381 1569 
Q 847 1681 609 1914 
Q 372 2147 372 2553 
Q 372 3047 722 3315 
Q 1072 3584 1716 3584 
Q 2034 3584 2315 3537 
Q 2597 3491 2834 3397 
z
" transform="scale(0.015625)"/>
      <path id="DejaVuSans-2d" d="M 313 2009 
L 1997 2009 
L 1997 1497 
L 313 1497 
L 313 2009 
z
" transform="scale(0.015625)"/>
      <path id="DejaVuSans-26" d="M 1556 2509 
Q 1272 2256 1139 2004 
Q 1006 1753 1006 1478 
Q 1006 1022 1337 719 
Q 1669 416 2169 416 
Q 2466 416 2725 514 
Q 2984 613 3213 813 
L 1556 2509 
z
M 1997 2859 
L 3584 1234 
Q 3769 1513 3872 1830 
Q 3975 2147 3994 2503 
L 4575 2503 
Q 4538 2091 4375 1687 
Q 4213 1284 3922 891 
L 4794 0 
L 4006 0 
L 3559 459 
Q 3234 181 2878 45 
Q 2522 -91 2113 -91 
Q 1359 -91 881 339 
Q 403 769 403 1441 
Q 403 1841 612 2192 
Q 822 2544 1241 2853 
Q 1091 3050 1012 3245 
Q 934 3441 934 3628 
Q 934 4134 1281 4442 
Q 1628 4750 2203 4750 
Q 2463 4750 2720 4694 
Q 2978 4638 3244 4525 
L 3244 3956 
Q 2972 4103 2725 4179 
Q 2478 4256 2266 4256 
Q 1938 4256 1733 4082 
Q 1528 3909 1528 3634 
Q 1528 3475 1620 3314 
Q 1713 3153 1997 2859 
z
" transform="scale(0.015625)"/>
      <path id="DejaVuSans-66" d="M 2375 4863 
L 2375 4384 
L 1825 4384 
Q 1516 4384 1395 4259 
Q 1275 4134 1275 3809 
L 1275 3500 
L 2222 3500 
L 2222 3053 
L 1275 3053 
L 1275 0 
L 697 0 
L 697 3053 
L 147 3053 
L 147 3500 
L 697 3500 
L 697 3744 
Q 697 4328 969 4595 
Q 1241 4863 1831 4863 
L 2375 4863 
z
" transform="scale(0.015625)"/>
      <path id="DejaVuSans-64" d="M 2906 2969 
L 2906 4863 
L 3481 4863 
L 3481 0 
L 2906 0 
L 2906 525 
Q 2725 213 2448 61 
Q 2172 -91 1784 -91 
Q 1150 -91 751 415 
Q 353 922 353 1747 
Q 353 2572 751 3078 
Q 1150 3584 1784 3584 
Q 2172 3584 2448 3432 
Q 2725 3281 2906 2969 
z
M 947 1747 
Q 947 1113 1208 752 
Q 1469 391 1925 391 
Q 2381 391 2643 752 
Q 2906 1113 2906 1747 
Q 2906 2381 2643 2742 
Q 2381 3103 1925 3103 
Q 1469 3103 1208 2742 
Q 947 2381 947 1747 
z
" transform="scale(0.015625)"/>
      <path id="DejaVuSans-6f" d="M 1959 3097 
Q 1497 3097 1228 2736 
Q 959 2375 959 1747 
Q 959 1119 1226 758 
Q 1494 397 1959 397 
Q 2419 397 2687 759 
Q 2956 1122 2956 1747 
Q 2956 2369 2687 2733 
Q 2419 3097 1959 3097 
z
M 1959 3584 
Q 2709 3584 3137 3096 
Q 3566 2609 3566 1747 
Q 3566 888 3137 398 
Q 2709 -91 1959 -91 
Q 1206 -91 779 398 
Q 353 888 353 1747 
Q 353 2609 779 3096 
Q 1206 3584 1959 3584 
z
" transform="scale(0.015625)"/>
      <path id="DejaVuSans-6d" d="M 3328 2828 
Q 3544 3216 3844 3400 
Q 4144 3584 4550 3584 
Q 5097 3584 5394 3201 
Q 5691 2819 5691 2113 
L 5691 0 
L 5113 0 
L 5113 2094 
Q 5113 2597 4934 2840 
Q 4756 3084 4391 3084 
Q 3944 3084 3684 2787 
Q 3425 2491 3425 1978 
L 3425 0 
L 2847 0 
L 2847 2094 
Q 2847 2600 2669 2842 
Q 2491 3084 2119 3084 
Q 1678 3084 1418 2786 
Q 1159 2488 1159 1978 
L 1159 0 
L 581 0 
L 581 3500 
L 1159 3500 
L 1159 2956 
Q 1356 3278 1631 3431 
Q 1906 3584 2284 3584 
Q 2666 3584 2933 3390 
Q 3200 3197 3328 2828 
z
" transform="scale(0.015625)"/>
      <path id="DejaVuSans-74" d="M 1172 4494 
L 1172 3500 
L 2356 3500 
L 2356 3053 
L 1172 3053 
L 1172 1153 
Q 1172 725 1289 603 
Q 1406 481 1766 481 
L 2356 481 
L 2356 0 
L 1766 0 
Q 1100 0 847 248 
Q 594 497 594 1153 
L 594 3053 
L 172 3053 
L 172 3500 
L 594 3500 
L 594 4494 
L 1172 4494 
z
" transform="scale(0.015625)"/>
     </defs>
     <use xlink:href="#DejaVuSans-50"/>
     <use xlink:href="#DejaVuSans-69" transform="translate(58.052734 0)"/>
     <use xlink:href="#DejaVuSans-4c" transform="translate(85.835938 0)"/>
     <use xlink:href="#DejaVuSans-69" transform="translate(141.548828 0)"/>
     <use xlink:href="#DejaVuSans-44" transform="translate(169.332031 0)"/>
     <use xlink:href="#DejaVuSans-41" transform="translate(244.583984 0)"/>
     <use xlink:href="#DejaVuSans-52" transform="translate(312.992188 0)"/>
     <use xlink:href="#DejaVuSans-20" transform="translate(382.474609 0)"/>
     <use xlink:href="#DejaVuSans-32" transform="translate(414.261719 0)"/>
     <use xlink:href="#DejaVuSans-2e" transform="translate(477.884766 0)"/>
     <use xlink:href="#DejaVuSans-30" transform="translate(509.671875 0)"/>
     <use xlink:href="#DejaVuSans-20" transform="translate(573.294922 0)"/>
     <use xlink:href="#DejaVuSans-2014" transform="translate(605.082031 0)"/>
     <use xlink:href="#DejaVuSans-20" transform="translate(705.082031 0)"/>
     <use xlink:href="#DejaVuSans-56" transform="translate(736.869141 0)"/>
     <use xlink:href="#DejaVuSans-65" transform="translate(797.527344 0)"/>
     <use xlink:href="#DejaVuSans-72" transform="translate(859.050781 0)"/>
     <use xlink:href="#DejaVuSans-6b" transform="translate(900.164062 0)"/>
     <use xlink:href="#DejaVuSans-61" transform="translate(956.324219 0)"/>
     <use xlink:href="#DejaVuSans-62" transform="translate(1017.603516 0)"/>
     <use xlink:href="#DejaVuSans-65" transform="translate(1081.080078 0)"/>
     <use xlink:href="#DejaVuSans-6c" transform="translate(1142.603516 0)"/>
     <use xlink:href="#DejaVuSans-75" transform="translate(1170.386719 0)"/>
     <use xlink:href="#DejaVuSans-6e" transform="translate(1233.765625 0)"/>
     <use xlink:href="#DejaVuSans-67" transform="translate(1297.144531 0)"/>
     <use xlink:href="#DejaVuSans-73" transform="translate(1360.621094 0)"/>
     <use xlink:href="#DejaVuSans-2d" transform="translate(1412.720703 0)"/>
     <use xlink:href="#DejaVuSans-20" transform="translate(1448.804688 0)"/>
     <use xlink:href="#DejaVuSans-26" transform="translate(1480.591797 0)"/>
     <use xlink:href="#DejaVuSans-20" transform="translate(1558.570312 0)"/>
     <use xlink:href="#DejaVuSans-41" transform="translate(1590.357422 0)"/>
     <use xlink:href="#DejaVuSans-75" transform="translate(1658.765625 0)"/>
     <use xlink:href="#DejaVuSans-66" transform="translate(1722.144531 0)"/>
     <use xlink:href="#DejaVuSans-62" transform="translate(1757.349609 0)"/>
     <use xlink:href="#DejaVuSans-61" transform="translate(1820.826172 0)"/>
     <use xlink:href="#DejaVuSans-75" transform="translate(1882.105469 0)"/>
     <use xlink:href="#DejaVuSans-64" transform="translate(1945.484375 0)"/>
     <use xlink:href="#DejaVuSans-6f" transform="translate(2008.960938 0)"/>
     <use xlink:href="#DejaVuSans-6b" transform="translate(2070.142578 0)"/>
     <use xlink:href="#DejaVuSans-75" transform="translate(2124.927734 0)"/>
     <use xlink:href="#DejaVuSans-6d" transform="translate(2188.306641 0)"/>
     <use xlink:href="#DejaVuSans-65" transform="translate(2285.71875 0)"/>
     <use xlink:href="#DejaVuSans-6e" transform="translate(2347.242188 0)"/>
     <use xlink:href="#DejaVuSans-74" transform="translate(2410.621094 0)"/>
     <use xlink:href="#DejaVuSans-61" transform="translate(2449.830078 0)"/>
     <use xlink:href="#DejaVuSans-74" transform="translate(2511.109375 0)"/>
     <use xlink:href="#DejaVuSans-69" transform="translate(2550.318359 0)"/>
     <use xlink:href="#DejaVuSans-6f" transform="translate(2578.101562 0)"/>
     <use xlink:href="#DejaVuSans-6e" transform="translate(2639.283203 0)"/>
    </g>
   </g>
   <g id="text_3">
    <!-- GPIO19 (Pin 35) -->
    <g style="fill: #ffffff" transform="translate(85.32 87.851312) scale(0.11 -0.11)">
     <defs>
      <path id="DejaVuSans-Bold-31" d="M 750 831 
L 1813 831 
L 1813 3847 
L 722 3622 
L 722 4441 
L 1806 4666 
L 2950 4666 
L 2950 831 
L 4013 831 
L 4013 0 
L 750 0 
L 750 831 
z
" transform="scale(0.015625)"/>
      <path id="DejaVuSans-Bold-39" d="M 641 103 
L 641 966 
Q 928 831 1190 764 
Q 1453 697 1709 697 
Q 2247 697 2547 995 
Q 2847 1294 2900 1881 
Q 2688 1725 2447 1647 
Q 2206 1569 1925 1569 
Q 1209 1569 770 1986 
Q 331 2403 331 3084 
Q 331 3838 820 4291 
Q 1309 4744 2131 4744 
Q 3044 4744 3544 4128 
Q 4044 3513 4044 2388 
Q 4044 1231 3459 570 
Q 2875 -91 1856 -91 
Q 1528 -91 1228 -42 
Q 928 6 641 103 
z
M 2125 2350 
Q 2441 2350 2600 2554 
Q 2759 2759 2759 3169 
Q 2759 3575 2600 3781 
Q 2441 3988 2125 3988 
Q 1809 3988 1650 3781 
Q 1491 3575 1491 3169 
Q 1491 2759 1650 2554 
Q 1809 2350 2125 2350 
z
" transform="scale(0.015625)"/>
      <path id="DejaVuSans-Bold-33" d="M 2981 2516 
Q 3453 2394 3698 2092 
Q 3944 1791 3944 1325 
Q 3944 631 3412 270 
Q 2881 -91 1863 -91 
Q 1503 -91 1142 -33 
Q 781 25 428 141 
L 428 1069 
Q 766 900 1098 814 
Q 1431 728 1753 728 
Q 2231 728 2486 893 
Q 2741 1059 2741 1369 
Q 2741 1688 2480 1852 
Q 2219 2016 1709 2016 
L 1228 2016 
L 1228 2791 
L 1734 2791 
Q 2188 2791 2409 2933 
Q 2631 3075 2631 3366 
Q 2631 3634 2415 3781 
Q 2200 3928 1806 3928 
Q 1516 3928 1219 3862 
Q 922 3797 628 3669 
L 628 4550 
Q 984 4650 1334 4700 
Q 1684 4750 2022 4750 
Q 2931 4750 3382 4451 
Q 3834 4153 3834 3553 
Q 3834 3144 3618 2883 
Q 3403 2622 2981 2516 
z
" transform="scale(0.015625)"/>
      <path id="DejaVuSans-Bold-35" d="M 678 4666 
L 3669 4666 
L 3669 3781 
L 1638 3781 
L 1638 3059 
Q 1775 3097 1914 3117 
Q 2053 3138 2203 3138 
Q 3056 3138 3531 2711 
Q 4006 2284 4006 1522 
Q 4006 766 3489 337 
Q 2972 -91 2053 -91 
Q 1656 -91 1267 -14 
Q 878 63 494 219 
L 494 1166 
Q 875 947 1217 837 
Q 1559 728 1863 728 
Q 2300 728 2551 942 
Q 2803 1156 2803 1522 
Q 2803 1891 2551 2103 
Q 2300 2316 1863 2316 
Q 1603 2316 1309 2248 
Q 1016 2181 678 2041 
L 678 4666 
z
" transform="scale(0.015625)"/>
     </defs>
     <use xlink:href="#DejaVuSans-Bold-47"/>
     <use xlink:href="#DejaVuSans-Bold-50" transform="translate(82.080078 0)"/>
     <use xlink:href="#DejaVuSans-Bold-49" transform="translate(155.371094 0)"/>
     <use xlink:href="#DejaVuSans-Bold-4f" transform="translate(192.578125 0)"/>
     <use xlink:href="#DejaVuSans-Bold-31" transform="translate(277.587891 0)"/>
     <use xlink:href="#DejaVuSans-Bold-39" transform="translate(347.167969 0)"/>
     <use xlink:href="#DejaVuSans-Bold-20" transform="translate(416.748047 0)"/>
     <use xlink:href="#DejaVuSans-Bold-28" transform="translate(451.5625 0)"/>
     <use xlink:href="#DejaVuSans-Bold-50" transform="translate(497.265625 0)"/>
     <use xlink:href="#DejaVuSans-Bold-69" transform="translate(570.556641 0)"/>
     <use xlink:href="#DejaVuSans-Bold-6e" transform="translate(604.833984 0)"/>
     <use xlink:href="#DejaVuSans-Bold-20" transform="translate(676.025391 0)"/>
     <use xlink:href="#DejaVuSans-Bold-33" transform="translate(710.839844 0)"/>
     <use xlink:href="#DejaVuSans-Bold-35" transform="translate(780.419922 0)"/>
     <use xlink:href="#DejaVuSans-Bold-29" transform="translate(850 0)"/>
    </g>
   </g>
   <g id="text_4">
    <!-- STEP / Hardware-PWM1 -->
    <g style="fill: #cbd5e1" transform="translate(342 87.575375) scale(0.1 -0.1)">
     <defs>
      <path id="DejaVuSans-53" d="M 3425 4513 
L 3425 3897 
Q 3066 4069 2747 4153 
Q 2428 4238 2131 4238 
Q 1616 4238 1336 4038 
Q 1056 3838 1056 3469 
Q 1056 3159 1242 3001 
Q 1428 2844 1947 2747 
L 2328 2669 
Q 3034 2534 3370 2195 
Q 3706 1856 3706 1288 
Q 3706 609 3251 259 
Q 2797 -91 1919 -91 
Q 1588 -91 1214 -16 
Q 841 59 441 206 
L 441 856 
Q 825 641 1194 531 
Q 1563 422 1919 422 
Q 2459 422 2753 634 
Q 3047 847 3047 1241 
Q 3047 1584 2836 1778 
Q 2625 1972 2144 2069 
L 1759 2144 
Q 1053 2284 737 2584 
Q 422 2884 422 3419 
Q 422 4038 858 4394 
Q 1294 4750 2059 4750 
Q 2388 4750 2728 4690 
Q 3069 4631 3425 4513 
z
" transform="scale(0.015625)"/>
      <path id="DejaVuSans-54" d="M -19 4666 
L 3928 4666 
L 3928 4134 
L 2272 4134 
L 2272 0 
L 1638 0 
L 1638 4134 
L -19 4134 
L -19 4666 
z
" transform="scale(0.015625)"/>
      <path id="DejaVuSans-45" d="M 628 4666 
L 3578 4666 
L 3578 4134 
L 1259 4134 
L 1259 2753 
L 3481 2753 
L 3481 2222 
L 1259 2222 
L 1259 531 
L 3634 531 
L 3634 0 
L 628 0 
L 628 4666 
z
" transform="scale(0.015625)"/>
      <path id="DejaVuSans-2f" d="M 1625 4666 
L 2156 4666 
L 531 -594 
L 0 -594 
L 1625 4666 
z
" transform="scale(0.015625)"/>
      <path id="DejaVuSans-48" d="M 628 4666 
L 1259 4666 
L 1259 2753 
L 3553 2753 
L 3553 4666 
L 4184 4666 
L 4184 0 
L 3553 0 
L 3553 2222 
L 1259 2222 
L 1259 0 
L 628 0 
L 628 4666 
z
" transform="scale(0.015625)"/>
      <path id="DejaVuSans-77" d="M 269 3500 
L 844 3500 
L 1563 769 
L 2278 3500 
L 2956 3500 
L 3675 769 
L 4391 3500 
L 4966 3500 
L 4050 0 
L 3372 0 
L 2619 2869 
L 1863 0 
L 1184 0 
L 269 3500 
z
" transform="scale(0.015625)"/>
      <path id="DejaVuSans-57" d="M 213 4666 
L 850 4666 
L 1831 722 
L 2809 4666 
L 3519 4666 
L 4500 722 
L 5478 4666 
L 6119 4666 
L 4947 0 
L 4153 0 
L 3169 4050 
L 2175 0 
L 1381 0 
L 213 4666 
z
" transform="scale(0.015625)"/>
      <path id="DejaVuSans-4d" d="M 628 4666 
L 1569 4666 
L 2759 1491 
L 3956 4666 
L 4897 4666 
L 4897 0 
L 4281 0 
L 4281 4097 
L 3078 897 
L 2444 897 
L 1241 4097 
L 1241 0 
L 628 0 
L 628 4666 
z
" transform="scale(0.015625)"/>
      <path id="DejaVuSans-31" d="M 794 531 
L 1825 531 
L 1825 4091 
L 703 3866 
L 703 4441 
L 1819 4666 
L 2450 4666 
L 2450 531 
L 3481 531 
L 3481 0 
L 794 0 
L 794 531 
z
" transform="scale(0.015625)"/>
     </defs>
     <use xlink:href="#DejaVuSans-53"/>
     <use xlink:href="#DejaVuSans-54" transform="translate(63.476562 0)"/>
     <use xlink:href="#DejaVuSans-45" transform="translate(124.560547 0)"/>
     <use xlink:href="#DejaVuSans-50" transform="translate(187.744141 0)"/>
     <use xlink:href="#DejaVuSans-20" transform="translate(248.046875 0)"/>
     <use xlink:href="#DejaVuSans-2f" transform="translate(279.833984 0)"/>
     <use xlink:href="#DejaVuSans-20" transform="translate(313.525391 0)"/>
     <use xlink:href="#DejaVuSans-48" transform="translate(345.3125 0)"/>
     <use xlink:href="#DejaVuSans-61" transform="translate(420.507812 0)"/>
     <use xlink:href="#DejaVuSans-72" transform="translate(481.787109 0)"/>
     <use xlink:href="#DejaVuSans-64" transform="translate(521.150391 0)"/>
     <use xlink:href="#DejaVuSans-77" transform="translate(584.626953 0)"/>
     <use xlink:href="#DejaVuSans-61" transform="translate(666.414062 0)"/>
     <use xlink:href="#DejaVuSans-72" transform="translate(727.693359 0)"/>
     <use xlink:href="#DejaVuSans-65" transform="translate(766.556641 0)"/>
     <use xlink:href="#DejaVuSans-2d" transform="translate(828.080078 0)"/>
     <use xlink:href="#DejaVuSans-50" transform="translate(864.164062 0)"/>
     <use xlink:href="#DejaVuSans-57" transform="translate(924.466797 0)"/>
     <use xlink:href="#DejaVuSans-4d" transform="translate(1023.34375 0)"/>
     <use xlink:href="#DejaVuSans-31" transform="translate(1109.623047 0)"/>
    </g>
   </g>
   <g id="text_5">
    <!-- GPIO26 (Pin 37) -->
    <g style="fill: #ffffff" transform="translate(85.32 122.224112) scale(0.11 -0.11)">
     <defs>
      <path id="DejaVuSans-Bold-32" d="M 1844 884 
L 3897 884 
L 3897 0 
L 506 0 
L 506 884 
L 2209 2388 
Q 2438 2594 2547 2791 
Q 2656 2988 2656 3200 
Q 2656 3528 2436 3728 
Q 2216 3928 1850 3928 
Q 1569 3928 1234 3808 
Q 900 3688 519 3450 
L 519 4475 
Q 925 4609 1322 4679 
Q 1719 4750 2100 4750 
Q 2938 4750 3402 4381 
Q 3866 4013 3866 3353 
Q 3866 2972 3669 2642 
Q 3472 2313 2841 1759 
L 1844 884 
z
" transform="scale(0.015625)"/>
      <path id="DejaVuSans-Bold-36" d="M 2316 2303 
Q 2000 2303 1842 2098 
Q 1684 1894 1684 1484 
Q 1684 1075 1842 870 
Q 2000 666 2316 666 
Q 2634 666 2792 870 
Q 2950 1075 2950 1484 
Q 2950 1894 2792 2098 
Q 2634 2303 2316 2303 
z
M 3803 4544 
L 3803 3681 
Q 3506 3822 3243 3889 
Q 2981 3956 2731 3956 
Q 2194 3956 1894 3657 
Q 1594 3359 1544 2772 
Q 1750 2925 1990 3001 
Q 2231 3078 2516 3078 
Q 3231 3078 3670 2659 
Q 4109 2241 4109 1563 
Q 4109 813 3618 361 
Q 3128 -91 2303 -91 
Q 1394 -91 895 523 
Q 397 1138 397 2266 
Q 397 3422 980 4083 
Q 1563 4744 2578 4744 
Q 2900 4744 3203 4694 
Q 3506 4644 3803 4544 
z
" transform="scale(0.015625)"/>
      <path id="DejaVuSans-Bold-37" d="M 428 4666 
L 3944 4666 
L 3944 3988 
L 2125 0 
L 953 0 
L 2675 3781 
L 428 3781 
L 428 4666 
z
" transform="scale(0.015625)"/>
     </defs>
     <use xlink:href="#DejaVuSans-Bold-47"/>
     <use xlink:href="#DejaVuSans-Bold-50" transform="translate(82.080078 0)"/>
     <use xlink:href="#DejaVuSans-Bold-49" transform="translate(155.371094 0)"/>
     <use xlink:href="#DejaVuSans-Bold-4f" transform="translate(192.578125 0)"/>
     <use xlink:href="#DejaVuSans-Bold-32" transform="translate(277.587891 0)"/>
     <use xlink:href="#DejaVuSans-Bold-36" transform="translate(347.167969 0)"/>
     <use xlink:href="#DejaVuSans-Bold-20" transform="translate(416.748047 0)"/>
     <use xlink:href="#DejaVuSans-Bold-28" transform="translate(451.5625 0)"/>
     <use xlink:href="#DejaVuSans-Bold-50" transform="translate(497.265625 0)"/>
     <use xlink:href="#DejaVuSans-Bold-69" transform="translate(570.556641 0)"/>
     <use xlink:href="#DejaVuSans-Bold-6e" transform="translate(604.833984 0)"/>
     <use xlink:href="#DejaVuSans-Bold-20" transform="translate(676.025391 0)"/>
     <use xlink:href="#DejaVuSans-Bold-33" transform="translate(710.839844 0)"/>
     <use xlink:href="#DejaVuSans-Bold-37" transform="translate(780.419922 0)"/>
     <use xlink:href="#DejaVuSans-Bold-29" transform="translate(850 0)"/>
    </g>
   </g>
   <g id="text_6">
    <!-- DIR -->
    <g style="fill: #cbd5e1" transform="translate(342 121.948175) scale(0.1 -0.1)">
     <defs>
      <path id="DejaVuSans-49" d="M 628 4666 
L 1259 4666 
L 1259 0 
L 628 0 
L 628 4666 
z
" transform="scale(0.015625)"/>
     </defs>
     <use xlink:href="#DejaVuSans-44"/>
     <use xlink:href="#DejaVuSans-49" transform="translate(77.001953 0)"/>
     <use xlink:href="#DejaVuSans-52" transform="translate(106.494141 0)"/>
    </g>
   </g>
   <g id="text_7">
    <!-- GPIO5 (Pin 29) -->
    <g style="fill: #ffffff" transform="translate(85.32 156.596912) scale(0.11 -0.11)">
     <use xlink:href="#DejaVuSans-Bold-47"/>
     <use xlink:href="#DejaVuSans-Bold-50" transform="translate(82.080078 0)"/>
     <use xlink:href="#DejaVuSans-Bold-49" transform="translate(155.371094 0)"/>
     <use xlink:href="#DejaVuSans-Bold-4f" transform="translate(192.578125 0)"/>
     <use xlink:href="#DejaVuSans-Bold-35" transform="translate(277.587891 0)"/>
     <use xlink:href="#DejaVuSans-Bold-20" transform="translate(347.167969 0)"/>
     <use xlink:href="#DejaVuSans-Bold-28" transform="translate(381.982422 0)"/>
     <use xlink:href="#DejaVuSans-Bold-50" transform="translate(427.685547 0)"/>
     <use xlink:href="#DejaVuSans-Bold-69" transform="translate(500.976562 0)"/>
     <use xlink:href="#DejaVuSans-Bold-6e" transform="translate(535.253906 0)"/>
     <use xlink:href="#DejaVuSans-Bold-20" transform="translate(606.445312 0)"/>
     <use xlink:href="#DejaVuSans-Bold-32" transform="translate(641.259766 0)"/>
     <use xlink:href="#DejaVuSans-Bold-39" transform="translate(710.839844 0)"/>
     <use xlink:href="#DejaVuSans-Bold-29" transform="translate(780.419922 0)"/>
    </g>
   </g>
   <g id="text_8">
    <!-- MS1 -->
    <g style="fill: #cbd5e1" transform="translate(342 156.320975) scale(0.1 -0.1)">
     <use xlink:href="#DejaVuSans-4d"/>
     <use xlink:href="#DejaVuSans-53" transform="translate(86.279297 0)"/>
     <use xlink:href="#DejaVuSans-31" transform="translate(149.755859 0)"/>
    </g>
   </g>
   <g id="text_9">
    <!-- GPIO6 (Pin 31) -->
    <g style="fill: #ffffff" transform="translate(85.32 190.969712) scale(0.11 -0.11)">
     <use xlink:href="#DejaVuSans-Bold-47"/>
     <use xlink:href="#DejaVuSans-Bold-50" transform="translate(82.080078 0)"/>
     <use xlink:href="#DejaVuSans-Bold-49" transform="translate(155.371094 0)"/>
     <use xlink:href="#DejaVuSans-Bold-4f" transform="translate(192.578125 0)"/>
     <use xlink:href="#DejaVuSans-Bold-36" transform="translate(277.587891 0)"/>
     <use xlink:href="#DejaVuSans-Bold-20" transform="translate(347.167969 0)"/>
     <use xlink:href="#DejaVuSans-Bold-28" transform="translate(381.982422 0)"/>
     <use xlink:href="#DejaVuSans-Bold-50" transform="translate(427.685547 0)"/>
     <use xlink:href="#DejaVuSans-Bold-69" transform="translate(500.976562 0)"/>
     <use xlink:href="#DejaVuSans-Bold-6e" transform="translate(535.253906 0)"/>
     <use xlink:href="#DejaVuSans-Bold-20" transform="translate(606.445312 0)"/>
     <use xlink:href="#DejaVuSans-Bold-33" transform="translate(641.259766 0)"/>
     <use xlink:href="#DejaVuSans-Bold-31" transform="translate(710.839844 0)"/>
     <use xlink:href="#DejaVuSans-Bold-29" transform="translate(780.419922 0)"/>
    </g>
   </g>
   <g id="text_10">
    <!-- MS2 -->
    <g style="fill: #cbd5e1" transform="translate(342 190.693775) scale(0.1 -0.1)">
     <use xlink:href="#DejaVuSans-4d"/>
     <use xlink:href="#DejaVuSans-53" transform="translate(86.279297 0)"/>
     <use xlink:href="#DejaVuSans-32" transform="translate(149.755859 0)"/>
    </g>
   </g>
   <g id="text_11">
    <!-- GPIO13 (Pin 33) -->
    <g style="fill: #ffffff" transform="translate(85.32 225.342512) scale(0.11 -0.11)">
     <use xlink:href="#DejaVuSans-Bold-47"/>
     <use xlink:href="#DejaVuSans-Bold-50" transform="translate(82.080078 0)"/>
     <use xlink:href="#DejaVuSans-Bold-49" transform="translate(155.371094 0)"/>
     <use xlink:href="#DejaVuSans-Bold-4f" transform="translate(192.578125 0)"/>
     <use xlink:href="#DejaVuSans-Bold-31" transform="translate(277.587891 0)"/>
     <use xlink:href="#DejaVuSans-Bold-33" transform="translate(347.167969 0)"/>
     <use xlink:href="#DejaVuSans-Bold-20" transform="translate(416.748047 0)"/>
     <use xlink:href="#DejaVuSans-Bold-28" transform="translate(451.5625 0)"/>
     <use xlink:href="#DejaVuSans-Bold-50" transform="translate(497.265625 0)"/>
     <use xlink:href="#DejaVuSans-Bold-69" transform="translate(570.556641 0)"/>
     <use xlink:href="#DejaVuSans-Bold-6e" transform="translate(604.833984 0)"/>
     <use xlink:href="#DejaVuSans-Bold-20" transform="translate(676.025391 0)"/>
     <use xlink:href="#DejaVuSans-Bold-33" transform="translate(710.839844 0)"/>
     <use xlink:href="#DejaVuSans-Bold-33" transform="translate(780.419922 0)"/>
     <use xlink:href="#DejaVuSans-Bold-29" transform="translate(850 0)"/>
    </g>
   </g>
   <g id="text_12">
    <!-- MS3 / PWM1-alt -->
    <g style="fill: #cbd5e1" transform="translate(342 225.066575) scale(0.1 -0.1)">
     <defs>
      <path id="DejaVuSans-33" d="M 2597 2516 
Q 3050 2419 3304 2112 
Q 3559 1806 3559 1356 
Q 3559 666 3084 287 
Q 2609 -91 1734 -91 
Q 1441 -91 1130 -33 
Q 819 25 488 141 
L 488 750 
Q 750 597 1062 519 
Q 1375 441 1716 441 
Q 2309 441 2620 675 
Q 2931 909 2931 1356 
Q 2931 1769 2642 2001 
Q 2353 2234 1838 2234 
L 1294 2234 
L 1294 2753 
L 1863 2753 
Q 2328 2753 2575 2939 
Q 2822 3125 2822 3475 
Q 2822 3834 2567 4026 
Q 2313 4219 1838 4219 
Q 1578 4219 1281 4162 
Q 984 4106 628 3988 
L 628 4550 
Q 988 4650 1302 4700 
Q 1616 4750 1894 4750 
Q 2613 4750 3031 4423 
Q 3450 4097 3450 3541 
Q 3450 3153 3228 2886 
Q 3006 2619 2597 2516 
z
" transform="scale(0.015625)"/>
     </defs>
     <use xlink:href="#DejaVuSans-4d"/>
     <use xlink:href="#DejaVuSans-53" transform="translate(86.279297 0)"/>
     <use xlink:href="#DejaVuSans-33" transform="translate(149.755859 0)"/>
     <use xlink:href="#DejaVuSans-20" transform="translate(213.378906 0)"/>
     <use xlink:href="#DejaVuSans-2f" transform="translate(245.166016 0)"/>
     <use xlink:href="#DejaVuSans-20" transform="translate(278.857422 0)"/>
     <use xlink:href="#DejaVuSans-50" transform="translate(310.644531 0)"/>
     <use xlink:href="#DejaVuSans-57" transform="translate(370.947266 0)"/>
     <use xlink:href="#DejaVuSans-4d" transform="translate(469.824219 0)"/>
     <use xlink:href="#DejaVuSans-31" transform="translate(556.103516 0)"/>
     <use xlink:href="#DejaVuSans-2d" transform="translate(619.726562 0)"/>
     <use xlink:href="#DejaVuSans-61" transform="translate(655.810547 0)"/>
     <use xlink:href="#DejaVuSans-6c" transform="translate(717.089844 0)"/>
     <use xlink:href="#DejaVuSans-74" transform="translate(744.873047 0)"/>
    </g>
   </g>
   <g id="text_13">
    <!-- 5V (Pin 2/4) -->
    <g style="fill: #ffffff" transform="translate(85.32 259.715312) scale(0.11 -0.11)">
     <defs>
      <path id="DejaVuSans-Bold-56" d="M 31 4666 
L 1241 4666 
L 2478 1222 
L 3713 4666 
L 4922 4666 
L 3194 0 
L 1759 0 
L 31 4666 
z
" transform="scale(0.015625)"/>
      <path id="DejaVuSans-Bold-2f" d="M 1644 4666 
L 2338 4666 
L 691 -594 
L 0 -594 
L 1644 4666 
z
" transform="scale(0.015625)"/>
     </defs>
     <use xlink:href="#DejaVuSans-Bold-35"/>
     <use xlink:href="#DejaVuSans-Bold-56" transform="translate(69.580078 0)"/>
     <use xlink:href="#DejaVuSans-Bold-20" transform="translate(146.972656 0)"/>
     <use xlink:href="#DejaVuSans-Bold-28" transform="translate(181.787109 0)"/>
     <use xlink:href="#DejaVuSans-Bold-50" transform="translate(227.490234 0)"/>
     <use xlink:href="#DejaVuSans-Bold-69" transform="translate(300.78125 0)"/>
     <use xlink:href="#DejaVuSans-Bold-6e" transform="translate(335.058594 0)"/>
     <use xlink:href="#DejaVuSans-Bold-20" transform="translate(406.25 0)"/>
     <use xlink:href="#DejaVuSans-Bold-32" transform="translate(441.064453 0)"/>
     <use xlink:href="#DejaVuSans-Bold-2f" transform="translate(510.644531 0)"/>
     <use xlink:href="#DejaVuSans-Bold-34" transform="translate(547.167969 0)"/>
     <use xlink:href="#DejaVuSans-Bold-29" transform="translate(616.748047 0)"/>
    </g>
   </g>
   <g id="text_14">
    <!-- Treiber-Logik VDD (optional) -->
    <g style="fill: #cbd5e1" transform="translate(342 259.439375) scale(0.1 -0.1)">
     <defs>
      <path id="DejaVuSans-28" d="M 1984 4856 
Q 1566 4138 1362 3434 
Q 1159 2731 1159 2009 
Q 1159 1288 1364 580 
Q 1569 -128 1984 -844 
L 1484 -844 
Q 1016 -109 783 600 
Q 550 1309 550 2009 
Q 550 2706 781 3412 
Q 1013 4119 1484 4856 
L 1984 4856 
z
" transform="scale(0.015625)"/>
      <path id="DejaVuSans-70" d="M 1159 525 
L 1159 -1331 
L 581 -1331 
L 581 3500 
L 1159 3500 
L 1159 2969 
Q 1341 3281 1617 3432 
Q 1894 3584 2278 3584 
Q 2916 3584 3314 3078 
Q 3713 2572 3713 1747 
Q 3713 922 3314 415 
Q 2916 -91 2278 -91 
Q 1894 -91 1617 61 
Q 1341 213 1159 525 
z
M 3116 1747 
Q 3116 2381 2855 2742 
Q 2594 3103 2138 3103 
Q 1681 3103 1420 2742 
Q 1159 2381 1159 1747 
Q 1159 1113 1420 752 
Q 1681 391 2138 391 
Q 2594 391 2855 752 
Q 3116 1113 3116 1747 
z
" transform="scale(0.015625)"/>
      <path id="DejaVuSans-29" d="M 513 4856 
L 1013 4856 
Q 1481 4119 1714 3412 
Q 1947 2706 1947 2009 
Q 1947 1309 1714 600 
Q 1481 -109 1013 -844 
L 513 -844 
Q 928 -128 1133 580 
Q 1338 1288 1338 2009 
Q 1338 2731 1133 3434 
Q 928 4138 513 4856 
z
" transform="scale(0.015625)"/>
     </defs>
     <use xlink:href="#DejaVuSans-54"/>
     <use xlink:href="#DejaVuSans-72" transform="translate(46.333984 0)"/>
     <use xlink:href="#DejaVuSans-65" transform="translate(85.197266 0)"/>
     <use xlink:href="#DejaVuSans-69" transform="translate(146.720703 0)"/>
     <use xlink:href="#DejaVuSans-62" transform="translate(174.503906 0)"/>
     <use xlink:href="#DejaVuSans-65" transform="translate(237.980469 0)"/>
     <use xlink:href="#DejaVuSans-72" transform="translate(299.503906 0)"/>
     <use xlink:href="#DejaVuSans-2d" transform="translate(334.242188 0)"/>
     <use xlink:href="#DejaVuSans-4c" transform="translate(370.326172 0)"/>
     <use xlink:href="#DejaVuSans-6f" transform="translate(424.289062 0)"/>
     <use xlink:href="#DejaVuSans-67" transform="translate(485.470703 0)"/>
     <use xlink:href="#DejaVuSans-69" transform="translate(548.947266 0)"/>
     <use xlink:href="#DejaVuSans-6b" transform="translate(576.730469 0)"/>
     <use xlink:href="#DejaVuSans-20" transform="translate(634.640625 0)"/>
     <use xlink:href="#DejaVuSans-56" transform="translate(666.427734 0)"/>
     <use xlink:href="#DejaVuSans-44" transform="translate(734.835938 0)"/>
     <use xlink:href="#DejaVuSans-44" transform="translate(811.837891 0)"/>
     <use xlink:href="#DejaVuSans-20" transform="translate(888.839844 0)"/>
     <use xlink:href="#DejaVuSans-28" transform="translate(920.626953 0)"/>
     <use xlink:href="#DejaVuSans-6f" transform="translate(959.640625 0)"/>
     <use xlink:href="#DejaVuSans-70" transform="translate(1020.822266 0)"/>
     <use xlink:href="#DejaVuSans-74" transform="translate(1084.298828 0)"/>
     <use xlink:href="#DejaVuSans-69" transform="translate(1123.507812 0)"/>
     <use xlink:href="#DejaVuSans-6f" transform="translate(1151.291016 0)"/>
     <use xlink:href="#DejaVuSans-6e" transform="translate(1212.472656 0)"/>
     <use xlink:href="#DejaVuSans-61" transform="translate(1275.851562 0)"/>
     <use xlink:href="#DejaVuSans-6c" transform="translate(1337.130859 0)"/>
     <use xlink:href="#DejaVuSans-29" transform="translate(1364.914062 0)"/>
    </g>
   </g>
   <g id="text_15">
    <!-- GND (Pin 6/9/…) -->
    <g style="fill: #ffffff" transform="translate(85.32 294.088112) scale(0.11 -0.11)">
     <defs>
      <path id="DejaVuSans-Bold-4e" d="M 588 4666 
L 1931 4666 
L 3628 1466 
L 3628 4666 
L 4769 4666 
L 4769 0 
L 3425 0 
L 1728 3200 
L 1728 0 
L 588 0 
L 588 4666 
z
" transform="scale(0.015625)"/>
      <path id="DejaVuSans-Bold-44" d="M 1791 3756 
L 1791 909 
L 2222 909 
Q 2959 909 3348 1275 
Q 3738 1641 3738 2338 
Q 3738 3031 3350 3393 
Q 2963 3756 2222 3756 
L 1791 3756 
z
M 588 4666 
L 1856 4666 
Q 2919 4666 3439 4514 
Q 3959 4363 4331 4000 
Q 4659 3684 4818 3271 
Q 4978 2859 4978 2338 
Q 4978 1809 4818 1395 
Q 4659 981 4331 666 
Q 3956 303 3431 151 
Q 2906 0 1856 0 
L 588 0 
L 588 4666 
z
" transform="scale(0.015625)"/>
      <path id="DejaVuSans-Bold-2026" d="M 4769 1209 
L 5894 1209 
L 5894 0 
L 4769 0 
L 4769 1209 
z
M 506 1209 
L 1631 1209 
L 1631 0 
L 506 0 
L 506 1209 
z
M 2638 1209 
L 3763 1209 
L 3763 0 
L 2638 0 
L 2638 1209 
z
" transform="scale(0.015625)"/>
     </defs>
     <use xlink:href="#DejaVuSans-Bold-47"/>
     <use xlink:href="#DejaVuSans-Bold-4e" transform="translate(82.080078 0)"/>
     <use xlink:href="#DejaVuSans-Bold-44" transform="translate(165.771484 0)"/>
     <use xlink:href="#DejaVuSans-Bold-20" transform="translate(248.779297 0)"/>
     <use xlink:href="#DejaVuSans-Bold-28" transform="translate(283.59375 0)"/>
     <use xlink:href="#DejaVuSans-Bold-50" transform="translate(329.296875 0)"/>
     <use xlink:href="#DejaVuSans-Bold-69" transform="translate(402.587891 0)"/>
     <use xlink:href="#DejaVuSans-Bold-6e" transform="translate(436.865234 0)"/>
     <use xlink:href="#DejaVuSans-Bold-20" transform="translate(508.056641 0)"/>
     <use xlink:href="#DejaVuSans-Bold-36" transform="translate(542.871094 0)"/>
     <use xlink:href="#DejaVuSans-Bold-2f" transform="translate(612.451172 0)"/>
     <use xlink:href="#DejaVuSans-Bold-39" transform="translate(648.974609 0)"/>
     <use xlink:href="#DejaVuSans-Bold-2f" transform="translate(718.554688 0)"/>
     <use xlink:href="#DejaVuSans-Bold-2026" transform="translate(755.078125 0)"/>
     <use xlink:href="#DejaVuSans-Bold-29" transform="translate(855.078125 0)"/>
    </g>
   </g>
   <g id="text_16">
    <!-- gemeinsame Sternmasse -->
    <g style="fill: #cbd5e1" transform="translate(342 293.812175) scale(0.1 -0.1)">
     <use xlink:href="#DejaVuSans-67"/>
     <use xlink:href="#DejaVuSans-65" transform="translate(63.476562 0)"/>
     <use xlink:href="#DejaVuSans-6d" transform="translate(125 0)"/>
     <use xlink:href="#DejaVuSans-65" transform="translate(222.412109 0)"/>
     <use xlink:href="#DejaVuSans-69" transform="translate(283.935547 0)"/>
     <use xlink:href="#DejaVuSans-6e" transform="translate(311.71875 0)"/>
     <use xlink:href="#DejaVuSans-73" transform="translate(375.097656 0)"/>
     <use xlink:href="#DejaVuSans-61" transform="translate(427.197266 0)"/>
     <use xlink:href="#DejaVuSans-6d" transform="translate(488.476562 0)"/>
     <use xlink:href="#DejaVuSans-65" transform="translate(585.888672 0)"/>
     <use xlink:href="#DejaVuSans-20" transform="translate(647.412109 0)"/>
     <use xlink:href="#DejaVuSans-53" transform="translate(679.199219 0)"/>
     <use xlink:href="#DejaVuSans-74" transform="translate(742.675781 0)"/>
     <use xlink:href="#DejaVuSans-65" transform="translate(781.884766 0)"/>
     <use xlink:href="#DejaVuSans-72" transform="translate(843.408203 0)"/>
     <use xlink:href="#DejaVuSans-6e" transform="translate(882.771484 0)"/>
     <use xlink:href="#DejaVuSans-6d" transform="translate(946.150391 0)"/>
     <use xlink:href="#DejaVuSans-61" transform="translate(1043.5625 0)"/>
     <use xlink:href="#DejaVuSans-73" transform="translate(1104.841797 0)"/>
     <use xlink:href="#DejaVuSans-73" transform="translate(1156.941406 0)"/>
     <use xlink:href="#DejaVuSans-65" transform="translate(1209.041016 0)"/>
    </g>
   </g>
   <g id="text_17">
    <!-- USB-A -->
    <g style="fill: #ffffff" transform="translate(85.32 328.460912) scale(0.11 -0.11)">
     <defs>
      <path id="DejaVuSans-Bold-55" d="M 588 4666 
L 1791 4666 
L 1791 1869 
Q 1791 1291 1980 1042 
Q 2169 794 2597 794 
Q 3028 794 3217 1042 
Q 3406 1291 3406 1869 
L 3406 4666 
L 4609 4666 
L 4609 1869 
Q 4609 878 4112 393 
Q 3616 -91 2597 -91 
Q 1581 -91 1084 393 
Q 588 878 588 1869 
L 588 4666 
z
" transform="scale(0.015625)"/>
      <path id="DejaVuSans-Bold-53" d="M 3834 4519 
L 3834 3531 
Q 3450 3703 3084 3790 
Q 2719 3878 2394 3878 
Q 1963 3878 1756 3759 
Q 1550 3641 1550 3391 
Q 1550 3203 1689 3098 
Q 1828 2994 2194 2919 
L 2706 2816 
Q 3484 2659 3812 2340 
Q 4141 2022 4141 1434 
Q 4141 663 3683 286 
Q 3225 -91 2284 -91 
Q 1841 -91 1394 -6 
Q 947 78 500 244 
L 500 1259 
Q 947 1022 1364 901 
Q 1781 781 2169 781 
Q 2563 781 2772 912 
Q 2981 1044 2981 1288 
Q 2981 1506 2839 1625 
Q 2697 1744 2272 1838 
L 1806 1941 
Q 1106 2091 782 2419 
Q 459 2747 459 3303 
Q 459 4000 909 4375 
Q 1359 4750 2203 4750 
Q 2588 4750 2994 4692 
Q 3400 4634 3834 4519 
z
" transform="scale(0.015625)"/>
      <path id="DejaVuSans-Bold-41" d="M 3419 850 
L 1538 850 
L 1241 0 
L 31 0 
L 1759 4666 
L 3194 4666 
L 4922 0 
L 3713 0 
L 3419 850 
z
M 1838 1716 
L 3116 1716 
L 2478 3572 
L 1838 1716 
z
" transform="scale(0.015625)"/>
     </defs>
     <use xlink:href="#DejaVuSans-Bold-55"/>
     <use xlink:href="#DejaVuSans-Bold-53" transform="translate(81.201172 0)"/>
     <use xlink:href="#DejaVuSans-Bold-42" transform="translate(153.222656 0)"/>
     <use xlink:href="#DejaVuSans-Bold-2d" transform="translate(229.443359 0)"/>
     <use xlink:href="#DejaVuSans-Bold-41" transform="translate(270.947266 0)"/>
    </g>
   </g>
   <g id="text_18">
    <!-- STL27L LiDAR (CP2102) -->
    <g style="fill: #cbd5e1" transform="translate(342 328.184975) scale(0.1 -0.1)">
     <defs>
      <path id="DejaVuSans-37" d="M 525 4666 
L 3525 4666 
L 3525 4397 
L 1831 0 
L 1172 0 
L 2766 4134 
L 525 4134 
L 525 4666 
z
" transform="scale(0.015625)"/>
      <path id="DejaVuSans-43" d="M 4122 4306 
L 4122 3641 
Q 3803 3938 3442 4084 
Q 3081 4231 2675 4231 
Q 1875 4231 1450 3742 
Q 1025 3253 1025 2328 
Q 1025 1406 1450 917 
Q 1875 428 2675 428 
Q 3081 428 3442 575 
Q 3803 722 4122 1019 
L 4122 359 
Q 3791 134 3420 21 
Q 3050 -91 2638 -91 
Q 1578 -91 968 557 
Q 359 1206 359 2328 
Q 359 3453 968 4101 
Q 1578 4750 2638 4750 
Q 3056 4750 3426 4639 
Q 3797 4528 4122 4306 
z
" transform="scale(0.015625)"/>
     </defs>
     <use xlink:href="#DejaVuSans-53"/>
     <use xlink:href="#DejaVuSans-54" transform="translate(63.476562 0)"/>
     <use xlink:href="#DejaVuSans-4c" transform="translate(124.560547 0)"/>
     <use xlink:href="#DejaVuSans-32" transform="translate(180.273438 0)"/>
     <use xlink:href="#DejaVuSans-37" transform="translate(243.896484 0)"/>
     <use xlink:href="#DejaVuSans-4c" transform="translate(307.519531 0)"/>
     <use xlink:href="#DejaVuSans-20" transform="translate(363.232422 0)"/>
     <use xlink:href="#DejaVuSans-4c" transform="translate(395.019531 0)"/>
     <use xlink:href="#DejaVuSans-69" transform="translate(450.732422 0)"/>
     <use xlink:href="#DejaVuSans-44" transform="translate(478.515625 0)"/>
     <use xlink:href="#DejaVuSans-41" transform="translate(553.767578 0)"/>
     <use xlink:href="#DejaVuSans-52" transform="translate(622.175781 0)"/>
     <use xlink:href="#DejaVuSans-20" transform="translate(691.658203 0)"/>
     <use xlink:href="#DejaVuSans-28" transform="translate(723.445312 0)"/>
     <use xlink:href="#DejaVuSans-43" transform="translate(762.458984 0)"/>
     <use xlink:href="#DejaVuSans-50" transform="translate(832.283203 0)"/>
     <use xlink:href="#DejaVuSans-32" transform="translate(892.585938 0)"/>
     <use xlink:href="#DejaVuSans-31" transform="translate(956.208984 0)"/>
     <use xlink:href="#DejaVuSans-30" transform="translate(1019.832031 0)"/>
     <use xlink:href="#DejaVuSans-32" transform="translate(1083.455078 0)"/>
     <use xlink:href="#DejaVuSans-29" transform="translate(1147.078125 0)"/>
    </g>
   </g>
   <g id="text_19">
    <!-- GPIO14/15 (TX/RX) -->
    <g style="fill: #ffffff" transform="translate(85.32 362.833712) scale(0.11 -0.11)">
     <defs>
      <path id="DejaVuSans-Bold-54" d="M 31 4666 
L 4331 4666 
L 4331 3756 
L 2784 3756 
L 2784 0 
L 1581 0 
L 1581 3756 
L 31 3756 
L 31 4666 
z
" transform="scale(0.015625)"/>
      <path id="DejaVuSans-Bold-58" d="M 3188 2381 
L 4806 0 
L 3553 0 
L 2463 1594 
L 1381 0 
L 122 0 
L 1741 2381 
L 184 4666 
L 1441 4666 
L 2463 3163 
L 3481 4666 
L 4744 4666 
L 3188 2381 
z
" transform="scale(0.015625)"/>
     </defs>
     <use xlink:href="#DejaVuSans-Bold-47"/>
     <use xlink:href="#DejaVuSans-Bold-50" transform="translate(82.080078 0)"/>
     <use xlink:href="#DejaVuSans-Bold-49" transform="translate(155.371094 0)"/>
     <use xlink:href="#DejaVuSans-Bold-4f" transform="translate(192.578125 0)"/>
     <use xlink:href="#DejaVuSans-Bold-31" transform="translate(277.587891 0)"/>
     <use xlink:href="#DejaVuSans-Bold-34" transform="translate(347.167969 0)"/>
     <use xlink:href="#DejaVuSans-Bold-2f" transform="translate(416.748047 0)"/>
     <use xlink:href="#DejaVuSans-Bold-31" transform="translate(453.271484 0)"/>
     <use xlink:href="#DejaVuSans-Bold-35" transform="translate(522.851562 0)"/>
     <use xlink:href="#DejaVuSans-Bold-20" transform="translate(592.431641 0)"/>
     <use xlink:href="#DejaVuSans-Bold-28" transform="translate(627.246094 0)"/>
     <use xlink:href="#DejaVuSans-Bold-54" transform="translate(672.949219 0)"/>
     <use xlink:href="#DejaVuSans-Bold-58" transform="translate(741.162109 0)"/>
     <use xlink:href="#DejaVuSans-Bold-2f" transform="translate(818.261719 0)"/>
     <use xlink:href="#DejaVuSans-Bold-52" transform="translate(854.785156 0)"/>
     <use xlink:href="#DejaVuSans-Bold-58" transform="translate(931.787109 0)"/>
     <use xlink:href="#DejaVuSans-Bold-29" transform="translate(1008.886719 0)"/>
    </g>
   </g>
   <g id="text_20">
    <!-- nur TMC2209-UART-Option -->
    <g style="fill: #cbd5e1" transform="translate(342 362.557775) scale(0.1 -0.1)">
     <defs>
      <path id="DejaVuSans-39" d="M 703 97 
L 703 672 
Q 941 559 1184 500 
Q 1428 441 1663 441 
Q 2288 441 2617 861 
Q 2947 1281 2994 2138 
Q 2813 1869 2534 1725 
Q 2256 1581 1919 1581 
Q 1219 1581 811 2004 
Q 403 2428 403 3163 
Q 403 3881 828 4315 
Q 1253 4750 1959 4750 
Q 2769 4750 3195 4129 
Q 3622 3509 3622 2328 
Q 3622 1225 3098 567 
Q 2575 -91 1691 -91 
Q 1453 -91 1209 -44 
Q 966 3 703 97 
z
M 1959 2075 
Q 2384 2075 2632 2365 
Q 2881 2656 2881 3163 
Q 2881 3666 2632 3958 
Q 2384 4250 1959 4250 
Q 1534 4250 1286 3958 
Q 1038 3666 1038 3163 
Q 1038 2656 1286 2365 
Q 1534 2075 1959 2075 
z
" transform="scale(0.015625)"/>
      <path id="DejaVuSans-55" d="M 556 4666 
L 1191 4666 
L 1191 1831 
Q 1191 1081 1462 751 
Q 1734 422 2344 422 
Q 2950 422 3222 751 
Q 3494 1081 3494 1831 
L 3494 4666 
L 4128 4666 
L 4128 1753 
Q 4128 841 3676 375 
Q 3225 -91 2344 -91 
Q 1459 -91 1007 375 
Q 556 841 556 1753 
L 556 4666 
z
" transform="scale(0.015625)"/>
      <path id="DejaVuSans-4f" d="M 2522 4238 
Q 1834 4238 1429 3725 
Q 1025 3213 1025 2328 
Q 1025 1447 1429 934 
Q 1834 422 2522 422 
Q 3209 422 3611 934 
Q 4013 1447 4013 2328 
Q 4013 3213 3611 3725 
Q 3209 4238 2522 4238 
z
M 2522 4750 
Q 3503 4750 4090 4092 
Q 4678 3434 4678 2328 
Q 4678 1225 4090 567 
Q 3503 -91 2522 -91 
Q 1538 -91 948 565 
Q 359 1222 359 2328 
Q 359 3434 948 4092 
Q 1538 4750 2522 4750 
z
" transform="scale(0.015625)"/>
     </defs>
     <use xlink:href="#DejaVuSans-6e"/>
     <use xlink:href="#DejaVuSans-75" transform="translate(63.378906 0)"/>
     <use xlink:href="#DejaVuSans-72" transform="translate(126.757812 0)"/>
     <use xlink:href="#DejaVuSans-20" transform="translate(167.871094 0)"/>
     <use xlink:href="#DejaVuSans-54" transform="translate(199.658203 0)"/>
     <use xlink:href="#DejaVuSans-4d" transform="translate(260.742188 0)"/>
     <use xlink:href="#DejaVuSans-43" transform="translate(347.021484 0)"/>
     <use xlink:href="#DejaVuSans-32" transform="translate(416.845703 0)"/>
     <use xlink:href="#DejaVuSans-32" transform="translate(480.46875 0)"/>
     <use xlink:href="#DejaVuSans-30" transform="translate(544.091797 0)"/>
     <use xlink:href="#DejaVuSans-39" transform="translate(607.714844 0)"/>
     <use xlink:href="#DejaVuSans-2d" transform="translate(671.337891 0)"/>
     <use xlink:href="#DejaVuSans-55" transform="translate(707.421875 0)"/>
     <use xlink:href="#DejaVuSans-41" transform="translate(780.615234 0)"/>
     <use xlink:href="#DejaVuSans-52" transform="translate(849.023438 0)"/>
     <use xlink:href="#DejaVuSans-54" transform="translate(911.255859 0)"/>
     <use xlink:href="#DejaVuSans-2d" transform="translate(963.214844 0)"/>
     <use xlink:href="#DejaVuSans-4f" transform="translate(1002.048828 0)"/>
     <use xlink:href="#DejaVuSans-70" transform="translate(1080.759766 0)"/>
     <use xlink:href="#DejaVuSans-74" transform="translate(1144.236328 0)"/>
     <use xlink:href="#DejaVuSans-69" transform="translate(1183.445312 0)"/>
     <use xlink:href="#DejaVuSans-6f" transform="translate(1211.228516 0)"/>
     <use xlink:href="#DejaVuSans-6e" transform="translate(1272.410156 0)"/>
    </g>
   </g>
   <g id="text_21">
    <!-- Hinweis: GPIO ist 3,3-V-Logik. Der LiDAR hängt am USB, daher keine UART-Pegelwandlung am GPIO nötig. -->
    <g style="fill: #cbd5e1" transform="translate(18.36 428.544) scale(0.085 -0.085)">
     <defs>
      <path id="DejaVuSans-3a" d="M 750 794 
L 1409 794 
L 1409 0 
L 750 0 
L 750 794 
z
M 750 3309 
L 1409 3309 
L 1409 2516 
L 750 2516 
L 750 3309 
z
" transform="scale(0.015625)"/>
      <path id="DejaVuSans-47" d="M 3809 666 
L 3809 1919 
L 2778 1919 
L 2778 2438 
L 4434 2438 
L 4434 434 
Q 4069 175 3628 42 
Q 3188 -91 2688 -91 
Q 1594 -91 976 548 
Q 359 1188 359 2328 
Q 359 3472 976 4111 
Q 1594 4750 2688 4750 
Q 3144 4750 3555 4637 
Q 3966 4525 4313 4306 
L 4313 3634 
Q 3963 3931 3569 4081 
Q 3175 4231 2741 4231 
Q 1884 4231 1454 3753 
Q 1025 3275 1025 2328 
Q 1025 1384 1454 906 
Q 1884 428 2741 428 
Q 3075 428 3337 486 
Q 3600 544 3809 666 
z
" transform="scale(0.015625)"/>
      <path id="DejaVuSans-2c" d="M 750 794 
L 1409 794 
L 1409 256 
L 897 -744 
L 494 -744 
L 750 256 
L 750 794 
z
" transform="scale(0.015625)"/>
      <path id="DejaVuSans-68" d="M 3513 2113 
L 3513 0 
L 2938 0 
L 2938 2094 
Q 2938 2591 2744 2837 
Q 2550 3084 2163 3084 
Q 1697 3084 1428 2787 
Q 1159 2491 1159 1978 
L 1159 0 
L 581 0 
L 581 4863 
L 1159 4863 
L 1159 2956 
Q 1366 3272 1645 3428 
Q 1925 3584 2291 3584 
Q 2894 3584 3203 3211 
Q 3513 2838 3513 2113 
z
" transform="scale(0.015625)"/>
      <path id="DejaVuSans-e4" d="M 2194 1759 
Q 1497 1759 1228 1600 
Q 959 1441 959 1056 
Q 959 750 1161 570 
Q 1363 391 1709 391 
Q 2188 391 2477 730 
Q 2766 1069 2766 1631 
L 2766 1759 
L 2194 1759 
z
M 3341 1997 
L 3341 0 
L 2766 0 
L 2766 531 
Q 2569 213 2275 61 
Q 1981 -91 1556 -91 
Q 1019 -91 701 211 
Q 384 513 384 1019 
Q 384 1609 779 1909 
Q 1175 2209 1959 2209 
L 2766 2209 
L 2766 2266 
Q 2766 2663 2505 2880 
Q 2244 3097 1772 3097 
Q 1472 3097 1187 3025 
Q 903 2953 641 2809 
L 641 3341 
Q 956 3463 1253 3523 
Q 1550 3584 1831 3584 
Q 2591 3584 2966 3190 
Q 3341 2797 3341 1997 
z
M 2150 4850 
L 2784 4850 
L 2784 4219 
L 2150 4219 
L 2150 4850 
z
M 928 4850 
L 1562 4850 
L 1562 4219 
L 928 4219 
L 928 4850 
z
" transform="scale(0.015625)"/>
      <path id="DejaVuSans-42" d="M 1259 2228 
L 1259 519 
L 2272 519 
Q 2781 519 3026 730 
Q 3272 941 3272 1375 
Q 3272 1813 3026 2020 
Q 2781 2228 2272 2228 
L 1259 2228 
z
M 1259 4147 
L 1259 2741 
L 2194 2741 
Q 2656 2741 2882 2914 
Q 3109 3088 3109 3444 
Q 3109 3797 2882 3972 
Q 2656 4147 2194 4147 
L 1259 4147 
z
M 628 4666 
L 2241 4666 
Q 2963 4666 3353 4366 
Q 3744 4066 3744 3513 
Q 3744 3084 3544 2831 
Q 3344 2578 2956 2516 
Q 3422 2416 3680 2098 
Q 3938 1781 3938 1306 
Q 3938 681 3513 340 
Q 3088 0 2303 0 
L 628 0 
L 628 4666 
z
" transform="scale(0.015625)"/>
      <path id="DejaVuSans-f6" d="M 1959 3097 
Q 1497 3097 1228 2736 
Q 959 2375 959 1747 
Q 959 1119 1226 758 
Q 1494 397 1959 397 
Q 2419 397 2687 759 
Q 2956 1122 2956 1747 
Q 2956 2369 2687 2733 
Q 2419 3097 1959 3097 
z
M 1959 3584 
Q 2709 3584 3137 3096 
Q 3566 2609 3566 1747 
Q 3566 888 3137 398 
Q 2709 -91 1959 -91 
Q 1206 -91 779 398 
Q 353 888 353 1747 
Q 353 2609 779 3096 
Q 1206 3584 1959 3584 
z
M 2254 4850 
L 2888 4850 
L 2888 4219 
L 2254 4219 
L 2254 4850 
z
M 1032 4850 
L 1666 4850 
L 1666 4219 
L 1032 4219 
L 1032 4850 
z
" transform="scale(0.015625)"/>
     </defs>
     <use xlink:href="#DejaVuSans-48"/>
     <use xlink:href="#DejaVuSans-69" transform="translate(75.195312 0)"/>
     <use xlink:href="#DejaVuSans-6e" transform="translate(102.978516 0)"/>
     <use xlink:href="#DejaVuSans-77" transform="translate(166.357422 0)"/>
     <use xlink:href="#DejaVuSans-65" transform="translate(248.144531 0)"/>
     <use xlink:href="#DejaVuSans-69" transform="translate(309.667969 0)"/>
     <use xlink:href="#DejaVuSans-73" transform="translate(337.451172 0)"/>
     <use xlink:href="#DejaVuSans-3a" transform="translate(389.550781 0)"/>
     <use xlink:href="#DejaVuSans-20" transform="translate(423.242188 0)"/>
     <use xlink:href="#DejaVuSans-47" transform="translate(455.029297 0)"/>
     <use xlink:href="#DejaVuSans-50" transform="translate(532.519531 0)"/>
     <use xlink:href="#DejaVuSans-49" transform="translate(592.822266 0)"/>
     <use xlink:href="#DejaVuSans-4f" transform="translate(622.314453 0)"/>
     <use xlink:href="#DejaVuSans-20" transform="translate(701.025391 0)"/>
     <use xlink:href="#DejaVuSans-69" transform="translate(732.8125 0)"/>
     <use xlink:href="#DejaVuSans-73" transform="translate(760.595703 0)"/>
     <use xlink:href="#DejaVuSans-74" transform="translate(812.695312 0)"/>
     <use xlink:href="#DejaVuSans-20" transform="translate(851.904297 0)"/>
     <use xlink:href="#DejaVuSans-33" transform="translate(883.691406 0)"/>
     <use xlink:href="#DejaVuSans-2c" transform="translate(947.314453 0)"/>
     <use xlink:href="#DejaVuSans-33" transform="translate(979.101562 0)"/>
     <use xlink:href="#DejaVuSans-2d" transform="translate(1042.724609 0)"/>
     <use xlink:href="#DejaVuSans-56" transform="translate(1072.933594 0)"/>
     <use xlink:href="#DejaVuSans-2d" transform="translate(1135.466797 0)"/>
     <use xlink:href="#DejaVuSans-4c" transform="translate(1171.550781 0)"/>
     <use xlink:href="#DejaVuSans-6f" transform="translate(1225.513672 0)"/>
     <use xlink:href="#DejaVuSans-67" transform="translate(1286.695312 0)"/>
     <use xlink:href="#DejaVuSans-69" transform="translate(1350.171875 0)"/>
     <use xlink:href="#DejaVuSans-6b" transform="translate(1377.955078 0)"/>
     <use xlink:href="#DejaVuSans-2e" transform="translate(1435.865234 0)"/>
     <use xlink:href="#DejaVuSans-20" transform="translate(1467.652344 0)"/>
     <use xlink:href="#DejaVuSans-44" transform="translate(1499.439453 0)"/>
     <use xlink:href="#DejaVuSans-65" transform="translate(1576.441406 0)"/>
     <use xlink:href="#DejaVuSans-72" transform="translate(1637.964844 0)"/>
     <use xlink:href="#DejaVuSans-20" transform="translate(1679.078125 0)"/>
     <use xlink:href="#DejaVuSans-4c" transform="translate(1710.865234 0)"/>
     <use xlink:href="#DejaVuSans-69" transform="translate(1766.578125 0)"/>
     <use xlink:href="#DejaVuSans-44" transform="translate(1794.361328 0)"/>
     <use xlink:href="#DejaVuSans-41" transform="translate(1869.613281 0)"/>
     <use xlink:href="#DejaVuSans-52" transform="translate(1938.021484 0)"/>
     <use xlink:href="#DejaVuSans-20" transform="translate(2007.503906 0)"/>
     <use xlink:href="#DejaVuSans-68" transform="translate(2039.291016 0)"/>
     <use xlink:href="#DejaVuSans-e4" transform="translate(2102.669922 0)"/>
     <use xlink:href="#DejaVuSans-6e" transform="translate(2163.949219 0)"/>
     <use xlink:href="#DejaVuSans-67" transform="translate(2227.328125 0)"/>
     <use xlink:href="#DejaVuSans-74" transform="translate(2290.804688 0)"/>
     <use xlink:href="#DejaVuSans-20" transform="translate(2330.013672 0)"/>
     <use xlink:href="#DejaVuSans-61" transform="translate(2361.800781 0)"/>
     <use xlink:href="#DejaVuSans-6d" transform="translate(2423.080078 0)"/>
     <use xlink:href="#DejaVuSans-20" transform="translate(2520.492188 0)"/>
     <use xlink:href="#DejaVuSans-55" transform="translate(2552.279297 0)"/>
     <use xlink:href="#DejaVuSans-53" transform="translate(2625.472656 0)"/>
     <use xlink:href="#DejaVuSans-42" transform="translate(2688.949219 0)"/>
     <use xlink:href="#DejaVuSans-2c" transform="translate(2757.552734 0)"/>
     <use xlink:href="#DejaVuSans-20" transform="translate(2789.339844 0)"/>
     <use xlink:href="#DejaVuSans-64" transform="translate(2821.126953 0)"/>
     <use xlink:href="#DejaVuSans-61" transform="translate(2884.603516 0)"/>
     <use xlink:href="#DejaVuSans-68" transform="translate(2945.882812 0)"/>
     <use xlink:href="#DejaVuSans-65" transform="translate(3009.261719 0)"/>
     <use xlink:href="#DejaVuSans-72" transform="translate(3070.785156 0)"/>
     <use xlink:href="#DejaVuSans-20" transform="translate(3111.898438 0)"/>
     <use xlink:href="#DejaVuSans-6b" transform="translate(3143.685547 0)"/>
     <use xlink:href="#DejaVuSans-65" transform="translate(3197.970703 0)"/>
     <use xlink:href="#DejaVuSans-69" transform="translate(3259.494141 0)"/>
     <use xlink:href="#DejaVuSans-6e" transform="translate(3287.277344 0)"/>
     <use xlink:href="#DejaVuSans-65" transform="translate(3350.65625 0)"/>
     <use xlink:href="#DejaVuSans-20" transform="translate(3412.179688 0)"/>
     <use xlink:href="#DejaVuSans-55" transform="translate(3443.966797 0)"/>
     <use xlink:href="#DejaVuSans-41" transform="translate(3517.160156 0)"/>
     <use xlink:href="#DejaVuSans-52" transform="translate(3585.568359 0)"/>
     <use xlink:href="#DejaVuSans-54" transform="translate(3647.800781 0)"/>
     <use xlink:href="#DejaVuSans-2d" transform="translate(3699.759766 0)"/>
     <use xlink:href="#DejaVuSans-50" transform="translate(3735.84375 0)"/>
     <use xlink:href="#DejaVuSans-65" transform="translate(3792.521484 0)"/>
     <use xlink:href="#DejaVuSans-67" transform="translate(3854.044922 0)"/>
     <use xlink:href="#DejaVuSans-65" transform="translate(3917.521484 0)"/>
     <use xlink:href="#DejaVuSans-6c" transform="translate(3979.044922 0)"/>
     <use xlink:href="#DejaVuSans-77" transform="translate(4006.828125 0)"/>
     <use xlink:href="#DejaVuSans-61" transform="translate(4088.615234 0)"/>
     <use xlink:href="#DejaVuSans-6e" transform="translate(4149.894531 0)"/>
     <use xlink:href="#DejaVuSans-64" transform="translate(4213.273438 0)"/>
     <use xlink:href="#DejaVuSans-6c" transform="translate(4276.75 0)"/>
     <use xlink:href="#DejaVuSans-75" transform="translate(4304.533203 0)"/>
     <use xlink:href="#DejaVuSans-6e" transform="translate(4367.912109 0)"/>
     <use xlink:href="#DejaVuSans-67" transform="translate(4431.291016 0)"/>
     <use xlink:href="#DejaVuSans-20" transform="translate(4494.767578 0)"/>
     <use xlink:href="#DejaVuSans-61" transform="translate(4526.554688 0)"/>
     <use xlink:href="#DejaVuSans-6d" transform="translate(4587.833984 0)"/>
     <use xlink:href="#DejaVuSans-20" transform="translate(4685.246094 0)"/>
     <use xlink:href="#DejaVuSans-47" transform="translate(4717.033203 0)"/>
     <use xlink:href="#DejaVuSans-50" transform="translate(4794.523438 0)"/>
     <use xlink:href="#DejaVuSans-49" transform="translate(4854.826172 0)"/>
     <use xlink:href="#DejaVuSans-4f" transform="translate(4884.318359 0)"/>
     <use xlink:href="#DejaVuSans-20" transform="translate(4963.029297 0)"/>
     <use xlink:href="#DejaVuSans-6e" transform="translate(4994.816406 0)"/>
     <use xlink:href="#DejaVuSans-f6" transform="translate(5058.195312 0)"/>
     <use xlink:href="#DejaVuSans-74" transform="translate(5119.376953 0)"/>
     <use xlink:href="#DejaVuSans-69" transform="translate(5158.585938 0)"/>
     <use xlink:href="#DejaVuSans-67" transform="translate(5186.369141 0)"/>
     <use xlink:href="#DejaVuSans-2e" transform="translate(5249.845703 0)"/>
    </g>
   </g>
  </g>
 </g>
 <defs>
  <clipPath id="p9b0a9109a2">
   <rect x="7.2" y="7.2" width="725.4" height="443.52"/>
  </clipPath>
 </defs>
</svg>
