<?xml version="1.0" encoding="utf-8" standalone="no"?>
<!DOCTYPE svg PUBLIC "-//W3C//DTD SVG 1.1//EN"
  "http://www.w3.org/Graphics/SVG/1.1/DTD/svg11.dtd">
<svg xmlns:xlink="http://www.w3.org/1999/xlink" width="739.8pt" height="457.92pt" viewBox="0 0 739.8 457.92" xmlns="http://www.w3.org/2000/svg" version="1.1">
 <metadata>
  <rdf:RDF xmlns:dc="http://purl.org/dc/elements/1.1/" xmlns:cc="http://creativecommons.org/ns#" xmlns:rdf="http://www.w3.org/1999/02/22-rdf-syntax-ns#">
   <cc:Work>
    <dc:type rdf:resource="http://purl.org/dc/dcmitype/StillImage"/>
    <dc:date>2026-06-21T04:46:38.623622</dc:date>
    <dc:format>image/svg+xml</dc:format>
    <dc:creator>
     <cc:Agent>
      <dc:title>Matplotlib v3.10.8, https://matplotlib.org/</dc:title>
     </cc:Agent>
    </dc:creator>
   </cc:Work>
  </rdf:RDF>
 </metadata>
 <defs>
  <style type="text/css">*{stroke-linejoin: round; stroke-linecap: butt}</style>
 </defs>
 <g id="figure_1">
  <g id="patch_1">
   <path d="M 0 457.92 
L 739.8 457.92 
L 739.8 0 
L 0 0 
z
" style="fill: #0e1116"/>
  </g>
  <g id="axes_1">
   <g id="patch_2">
    <path d="M 269.46 373.104 
L 470.34 373.104 
L 470.34 353.7 
L 269.46 353.7 
z
" clip-path="url(#p1348ad24ce)" style="fill: #334155; stroke: #334155; stroke-linejoin: miter"/>
   </g>
   <g id="patch_3">
    <path d="M 353.16 353.7 
L 369.9 353.7 
L 369.9 154.116 
L 353.16 154.116 
z
" clip-path="url(#p1348ad24ce)" style="fill: #475569; stroke: #475569; stroke-linejoin: miter"/>
   </g>
   <g id="patch_4">
    <path d="M 369.9 317.664 
L 464.76 317.664 
L 464.76 184.608 
L 369.9 184.608 
z
" clip-path="url(#p1348ad24ce)" style="fill: #7c3aed; opacity: 0.9; stroke: #7c3aed; stroke-linejoin: miter"/>
   </g>
   <g id="patch_5">
    <path d="M 417.33 378.648 
C 421.029583 378.648 424.578139 365.212531 427.19414 341.3006 
C 429.81014 317.388668 431.28 284.952578 431.28 251.136 
C 431.28 217.319422 429.81014 184.883332 427.19414 160.9714 
C 424.578139 137.059469 421.029583 123.624 417.33 123.624 
C 413.630417 123.624 410.081861 137.059469 407.46586 160.9714 
C 404.84986 184.883332 403.38 217.319422 403.38 251.136 
C 403.38 284.952578 404.84986 317.388668 407.46586 341.3006 
C 410.081861 365.212531 413.630417 378.648 417.33 378.648 
L 417.33 378.648 
z
" clip-path="url(#p1348ad24ce)" style="fill: none; stroke-dasharray: 6.66,2.88; stroke-dashoffset: 0; stroke: #22d3ee; stroke-width: 1.8; stroke-linejoin: miter"/>
   </g>
   <g id="text_1">
    <!-- Korrekte LiDAR-Montage (STL27L) — Ausrichtung -->
    <g style="fill: #ffffff" transform="translate(18.36 23.832) scale(0.15 -0.15)">
     <defs>
      <path id="DejaVuSans-Bold-4b" d="M 588 4666 
L 1791 4666 
L 1791 2963 
L 3525 4666 
L 4922 4666 
L 2675 2456 
L 5153 0 
L 3647 0 
L 1791 1838 
L 1791 0 
L 588 0 
L 588 4666 
z
" transform="scale(0.015625)"/>
      <path id="DejaVuSans-Bold-6f" d="M 2203 2784 
Q 1831 2784 1636 2517 
Q 1441 2250 1441 1747 
Q 1441 1244 1636 976 
Q 1831 709 2203 709 
Q 2569 709 2762 976 
Q 2956 1244 2956 1747 
Q 2956 2250 2762 2517 
Q 2569 2784 2203 2784 
z
M 2203 3584 
Q 3106 3584 3614 3096 
Q 4122 2609 4122 1747 
Q 4122 884 3614 396 
Q 3106 -91 2203 -91 
Q 1297 -91 786 396 
Q 275 884 275 1747 
Q 275 2609 786 3096 
Q 1297 3584 2203 3584 
z
" transform="scale(0.015625)"/>
      <path id="DejaVuSans-Bold-72" d="M 3138 2547 
Q 2991 2616 2845 2648 
Q 2700 2681 2553 2681 
Q 2122 2681 1889 2404 
Q 1656 2128 1656 1613 
L 1656 0 
L 538 0 
L 538 3500 
L 1656 3500 
L 1656 2925 
Q 1872 3269 2151 3426 
Q 2431 3584 2822 3584 
Q 2878 3584 2943 3579 
Q 3009 3575 3134 3559 
L 3138 2547 
z
" transform="scale(0.015625)"/>
      <path id="DejaVuSans-Bold-65" d="M 4031 1759 
L 4031 1441 
L 1416 1441 
Q 1456 1047 1700 850 
Q 1944 653 2381 653 
Q 2734 653 3104 758 
Q 3475 863 3866 1075 
L 3866 213 
Q 3469 63 3072 -14 
Q 2675 -91 2278 -91 
Q 1328 -91 801 392 
Q 275 875 275 1747 
Q 275 2603 792 3093 
Q 1309 3584 2216 3584 
Q 3041 3584 3536 3087 
Q 4031 2591 4031 1759 
z
M 2881 2131 
Q 2881 2450 2695 2645 
Q 2509 2841 2209 2841 
Q 1884 2841 1681 2658 
Q 1478 2475 1428 2131 
L 2881 2131 
z
" transform="scale(0.015625)"/>
      <path id="DejaVuSans-Bold-6b" d="M 538 4863 
L 1656 4863 
L 1656 2216 
L 2944 3500 
L 4244 3500 
L 2534 1894 
L 4378 0 
L 3022 0 
L 1656 1459 
L 1656 0 
L 538 0 
L 538 4863 
z
" transform="scale(0.015625)"/>
      <path id="DejaVuSans-Bold-74" d="M 1759 4494 
L 1759 3500 
L 2913 3500 
L 2913 2700 
L 1759 2700 
L 1759 1216 
Q 1759 972 1856 886 
Q 1953 800 2241 800 
L 2816 800 
L 2816 0 
L 1856 0 
Q 1194 0 917 276 
Q 641 553 641 1216 
L 641 2700 
L 84 2700 
L 84 3500 
L 641 3500 
L 641 4494 
L 1759 4494 
z
" transform="scale(0.015625)"/>
      <path id="DejaVuSans-Bold-20" transform="scale(0.015625)"/>
      <path id="DejaVuSans-Bold-4c" d="M 588 4666 
L 1791 4666 
L 1791 909 
L 3903 909 
L 3903 0 
L 588 0 
L 588 4666 
z
" transform="scale(0.015625)"/>
      <path id="DejaVuSans-Bold-69" d="M 538 3500 
L 1656 3500 
L 1656 0 
L 538 0 
L 538 3500 
z
M 538 4863 
L 1656 4863 
L 1656 3950 
L 538 3950 
L 538 4863 
z
" transform="scale(0.015625)"/>
      <path id="DejaVuSans-Bold-44" d="M 1791 3756 
L 1791 909 
L 2222 909 
Q 2959 909 3348 1275 
Q 3738 1641 3738 2338 
Q 3738 3031 3350 3393 
Q 2963 3756 2222 3756 
L 1791 3756 
z
M 588 4666 
L 1856 4666 
Q 2919 4666 3439 4514 
Q 3959 4363 4331 4000 
Q 4659 3684 4818 3271 
Q 4978 2859 4978 2338 
Q 4978 1809 4818 1395 
Q 4659 981 4331 666 
Q 3956 303 3431 151 
Q 2906 0 1856 0 
L 588 0 
L 588 4666 
z
" transform="scale(0.015625)"/>
      <path id="DejaVuSans-Bold-41" d="M 3419 850 
L 1538 850 
L 1241 0 
L 31 0 
L 1759 4666 
L 3194 4666 
L 4922 0 
L 3713 0 
L 3419 850 
z
M 1838 1716 
L 3116 1716 
L 2478 3572 
L 1838 1716 
z
" transform="scale(0.015625)"/>
      <path id="DejaVuSans-Bold-52" d="M 2297 2597 
Q 2675 2597 2839 2737 
Q 3003 2878 3003 3200 
Q 3003 3519 2839 3656 
Q 2675 3794 2297 3794 
L 1791 3794 
L 1791 2597 
L 2297 2597 
z
M 1791 1766 
L 1791 0 
L 588 0 
L 588 4666 
L 2425 4666 
Q 3347 4666 3776 4356 
Q 4206 4047 4206 3378 
Q 4206 2916 3982 2619 
Q 3759 2322 3309 2181 
Q 3556 2125 3751 1926 
Q 3947 1728 4147 1325 
L 4800 0 
L 3519 0 
L 2950 1159 
Q 2778 1509 2601 1637 
Q 2425 1766 2131 1766 
L 1791 1766 
z
" transform="scale(0.015625)"/>
      <path id="DejaVuSans-Bold-2d" d="M 347 2297 
L 2309 2297 
L 2309 1388 
L 347 1388 
L 347 2297 
z
" transform="scale(0.015625)"/>
      <path id="DejaVuSans-Bold-4d" d="M 588 4666 
L 2119 4666 
L 3181 2169 
L 4250 4666 
L 5778 4666 
L 5778 0 
L 4641 0 
L 4641 3413 
L 3566 897 
L 2803 897 
L 1728 3413 
L 1728 0 
L 588 0 
L 588 4666 
z
" transform="scale(0.015625)"/>
      <path id="DejaVuSans-Bold-6e" d="M 4056 2131 
L 4056 0 
L 2931 0 
L 2931 347 
L 2931 1631 
Q 2931 2084 2911 2256 
Q 2891 2428 2841 2509 
Q 2775 2619 2662 2680 
Q 2550 2741 2406 2741 
Q 2056 2741 1856 2470 
Q 1656 2200 1656 1722 
L 1656 0 
L 538 0 
L 538 3500 
L 1656 3500 
L 1656 2988 
Q 1909 3294 2193 3439 
Q 2478 3584 2822 3584 
Q 3428 3584 3742 3212 
Q 4056 2841 4056 2131 
z
" transform="scale(0.015625)"/>
      <path id="DejaVuSans-Bold-61" d="M 2106 1575 
Q 1756 1575 1579 1456 
Q 1403 1338 1403 1106 
Q 1403 894 1545 773 
Q 1688 653 1941 653 
Q 2256 653 2472 879 
Q 2688 1106 2688 1447 
L 2688 1575 
L 2106 1575 
z
M 3816 1997 
L 3816 0 
L 2688 0 
L 2688 519 
Q 2463 200 2181 54 
Q 1900 -91 1497 -91 
Q 953 -91 614 226 
Q 275 544 275 1050 
Q 275 1666 698 1953 
Q 1122 2241 2028 2241 
L 2688 2241 
L 2688 2328 
Q 2688 2594 2478 2717 
Q 2269 2841 1825 2841 
Q 1466 2841 1156 2769 
Q 847 2697 581 2553 
L 581 3406 
Q 941 3494 1303 3539 
Q 1666 3584 2028 3584 
Q 2975 3584 3395 3211 
Q 3816 2838 3816 1997 
z
" transform="scale(0.015625)"/>
      <path id="DejaVuSans-Bold-67" d="M 2919 594 
Q 2688 288 2409 144 
Q 2131 0 1766 0 
Q 1125 0 706 504 
Q 288 1009 288 1791 
Q 288 2575 706 3076 
Q 1125 3578 1766 3578 
Q 2131 3578 2409 3434 
Q 2688 3291 2919 2981 
L 2919 3500 
L 4044 3500 
L 4044 353 
Q 4044 -491 3511 -936 
Q 2978 -1381 1966 -1381 
Q 1638 -1381 1331 -1331 
Q 1025 -1281 716 -1178 
L 716 -306 
Q 1009 -475 1290 -558 
Q 1572 -641 1856 -641 
Q 2406 -641 2662 -400 
Q 2919 -159 2919 353 
L 2919 594 
z
M 2181 2772 
Q 1834 2772 1640 2515 
Q 1447 2259 1447 1791 
Q 1447 1309 1634 1061 
Q 1822 813 2181 813 
Q 2531 813 2725 1069 
Q 2919 1325 2919 1791 
Q 2919 2259 2725 2515 
Q 2531 2772 2181 2772 
z
" transform="scale(0.015625)"/>
      <path id="DejaVuSans-Bold-28" d="M 2413 -844 
L 1484 -844 
Q 1006 -72 778 623 
Q 550 1319 550 2003 
Q 550 2688 779 3389 
Q 1009 4091 1484 4856 
L 2413 4856 
Q 2013 4116 1813 3408 
Q 1613 2700 1613 2009 
Q 1613 1319 1811 609 
Q 2009 -100 2413 -844 
z
" transform="scale(0.015625)"/>
      <path id="DejaVuSans-Bold-53" d="M 3834 4519 
L 3834 3531 
Q 3450 3703 3084 3790 
Q 2719 3878 2394 3878 
Q 1963 3878 1756 3759 
Q 1550 3641 1550 3391 
Q 1550 3203 1689 3098 
Q 1828 2994 2194 2919 
L 2706 2816 
Q 3484 2659 3812 2340 
Q 4141 2022 4141 1434 
Q 4141 663 3683 286 
Q 3225 -91 2284 -91 
Q 1841 -91 1394 -6 
Q 947 78 500 244 
L 500 1259 
Q 947 1022 1364 901 
Q 1781 781 2169 781 
Q 2563 781 2772 912 
Q 2981 1044 2981 1288 
Q 2981 1506 2839 1625 
Q 2697 1744 2272 1838 
L 1806 1941 
Q 1106 2091 782 2419 
Q 459 2747 459 3303 
Q 459 4000 909 4375 
Q 1359 4750 2203 4750 
Q 2588 4750 2994 4692 
Q 3400 4634 3834 4519 
z
" transform="scale(0.015625)"/>
      <path id="DejaVuSans-Bold-54" d="M 31 4666 
L 4331 4666 
L 4331 3756 
L 2784 3756 
L 2784 0 
L 1581 0 
L 1581 3756 
L 31 3756 
L 31 4666 
z
" transform="scale(0.015625)"/>
      <path id="DejaVuSans-Bold-32" d="M 1844 884 
L 3897 884 
L 3897 0 
L 506 0 
L 506 884 
L 2209 2388 
Q 2438 2594 2547 2791 
Q 2656 2988 2656 3200 
Q 2656 3528 2436 3728 
Q 2216 3928 1850 3928 
Q 1569 3928 1234 3808 
Q 900 3688 519 3450 
L 519 4475 
Q 925 4609 1322 4679 
Q 1719 4750 2100 4750 
Q 2938 4750 3402 4381 
Q 3866 4013 3866 3353 
Q 3866 2972 3669 2642 
Q 3472 2313 2841 1759 
L 1844 884 
z
" transform="scale(0.015625)"/>
      <path id="DejaVuSans-Bold-37" d="M 428 4666 
L 3944 4666 
L 3944 3988 
L 2125 0 
L 953 0 
L 2675 3781 
L 428 3781 
L 428 4666 
z
" transform="scale(0.015625)"/>
      <path id="DejaVuSans-Bold-29" d="M 513 -844 
Q 913 -100 1113 609 
Q 1313 1319 1313 2009 
Q 1313 2700 1113 3408 
Q 913 4116 513 4856 
L 1441 4856 
Q 1916 4091 2145 3389 
Q 2375 2688 2375 2003 
Q 2375 1319 2147 623 
Q 1919 -72 1441 -844 
L 513 -844 
z
" transform="scale(0.015625)"/>
      <path id="DejaVuSans-Bold-2014" d="M 344 2156 
L 6056 2156 
L 6056 1350 
L 344 1350 
L 344 2156 
z
" transform="scale(0.015625)"/>
      <path id="DejaVuSans-Bold-75" d="M 500 1363 
L 500 3500 
L 1625 3500 
L 1625 3150 
Q 1625 2866 1622 2436 
Q 1619 2006 1619 1863 
Q 1619 1441 1641 1255 
Q 1663 1069 1716 984 
Q 1784 875 1895 815 
Q 2006 756 2150 756 
Q 2500 756 2700 1025 
Q 2900 1294 2900 1772 
L 2900 3500 
L 4019 3500 
L 4019 0 
L 2900 0 
L 2900 506 
Q 2647 200 2364 54 
Q 2081 -91 1741 -91 
Q 1134 -91 817 281 
Q 500 653 500 1363 
z
" transform="scale(0.015625)"/>
      <path id="DejaVuSans-Bold-73" d="M 3272 3391 
L 3272 2541 
Q 2913 2691 2578 2766 
Q 2244 2841 1947 2841 
Q 1628 2841 1473 2761 
Q 1319 2681 1319 2516 
Q 1319 2381 1436 2309 
Q 1553 2238 1856 2203 
L 2053 2175 
Q 2913 2066 3209 1816 
Q 3506 1566 3506 1031 
Q 3506 472 3093 190 
Q 2681 -91 1863 -91 
Q 1516 -91 1145 -36 
Q 775 19 384 128 
L 384 978 
Q 719 816 1070 734 
Q 1422 653 1784 653 
Q 2113 653 2278 743 
Q 2444 834 2444 1013 
Q 2444 1163 2330 1236 
Q 2216 1309 1875 1350 
L 1678 1375 
Q 931 1469 631 1722 
Q 331 1975 331 2491 
Q 331 3047 712 3315 
Q 1094 3584 1881 3584 
Q 2191 3584 2531 3537 
Q 2872 3491 3272 3391 
z
" transform="scale(0.015625)"/>
      <path id="DejaVuSans-Bold-63" d="M 3366 3391 
L 3366 2478 
Q 3138 2634 2908 2709 
Q 2678 2784 2431 2784 
Q 1963 2784 1702 2511 
Q 1441 2238 1441 1747 
Q 1441 1256 1702 982 
Q 1963 709 2431 709 
Q 2694 709 2930 787 
Q 3166 866 3366 1019 
L 3366 103 
Q 3103 6 2833 -42 
Q 2563 -91 2291 -91 
Q 1344 -91 809 395 
Q 275 881 275 1747 
Q 275 2613 809 3098 
Q 1344 3584 2291 3584 
Q 2566 3584 2833 3536 
Q 3100 3488 3366 3391 
z
" transform="scale(0.015625)"/>
      <path id="DejaVuSans-Bold-68" d="M 4056 2131 
L 4056 0 
L 2931 0 
L 2931 347 
L 2931 1625 
Q 2931 2084 2911 2256 
Q 2891 2428 2841 2509 
Q 2775 2619 2662 2680 
Q 2550 2741 2406 2741 
Q 2056 2741 1856 2470 
Q 1656 2200 1656 1722 
L 1656 0 
L 538 0 
L 538 4863 
L 1656 4863 
L 1656 2988 
Q 1909 3294 2193 3439 
Q 2478 3584 2822 3584 
Q 3428 3584 3742 3212 
Q 4056 2841 4056 2131 
z
" transform="scale(0.015625)"/>
     </defs>
     <use xlink:href="#DejaVuSans-Bold-4b"/>
     <use xlink:href="#DejaVuSans-Bold-6f" transform="translate(75.740234 0)"/>
     <use xlink:href="#DejaVuSans-Bold-72" transform="translate(144.441406 0)"/>
     <use xlink:href="#DejaVuSans-Bold-72" transform="translate(193.757812 0)"/>
     <use xlink:href="#DejaVuSans-Bold-65" transform="translate(243.074219 0)"/>
     <use xlink:href="#DejaVuSans-Bold-6b" transform="translate(310.896484 0)"/>
     <use xlink:href="#DejaVuSans-Bold-74" transform="translate(377.400391 0)"/>
     <use xlink:href="#DejaVuSans-Bold-65" transform="translate(425.203125 0)"/>
     <use xlink:href="#DejaVuSans-Bold-20" transform="translate(493.025391 0)"/>
     <use xlink:href="#DejaVuSans-Bold-4c" transform="translate(527.839844 0)"/>
     <use xlink:href="#DejaVuSans-Bold-69" transform="translate(591.560547 0)"/>
     <use xlink:href="#DejaVuSans-Bold-44" transform="translate(625.837891 0)"/>
     <use xlink:href="#DejaVuSans-Bold-41" transform="translate(708.845703 0)"/>
     <use xlink:href="#DejaVuSans-Bold-52" transform="translate(786.238281 0)"/>
     <use xlink:href="#DejaVuSans-Bold-2d" transform="translate(863.240234 0)"/>
     <use xlink:href="#DejaVuSans-Bold-4d" transform="translate(904.744141 0)"/>
     <use xlink:href="#DejaVuSans-Bold-6f" transform="translate(1004.255859 0)"/>
     <use xlink:href="#DejaVuSans-Bold-6e" transform="translate(1072.957031 0)"/>
     <use xlink:href="#DejaVuSans-Bold-74" transform="translate(1144.148438 0)"/>
     <use xlink:href="#DejaVuSans-Bold-61" transform="translate(1191.951172 0)"/>
     <use xlink:href="#DejaVuSans-Bold-67" transform="translate(1259.431641 0)"/>
     <use xlink:href="#DejaVuSans-Bold-65" transform="translate(1331.013672 0)"/>
     <use xlink:href="#DejaVuSans-Bold-20" transform="translate(1398.835938 0)"/>
     <use xlink:href="#DejaVuSans-Bold-28" transform="translate(1433.650391 0)"/>
     <use xlink:href="#DejaVuSans-Bold-53" transform="translate(1479.353516 0)"/>
     <use xlink:href="#DejaVuSans-Bold-54" transform="translate(1551.375 0)"/>
     <use xlink:href="#DejaVuSans-Bold-4c" transform="translate(1619.587891 0)"/>
     <use xlink:href="#DejaVuSans-Bold-32" transform="translate(1683.308594 0)"/>
     <use xlink:href="#DejaVuSans-Bold-37" transform="translate(1752.888672 0)"/>
     <use xlink:href="#DejaVuSans-Bold-4c" transform="translate(1822.46875 0)"/>
     <use xlink:href="#DejaVuSans-Bold-29" transform="translate(1886.189453 0)"/>
     <use xlink:href="#DejaVuSans-Bold-20" transform="translate(1931.892578 0)"/>
     <use xlink:href="#DejaVuSans-Bold-2014" transform="translate(1966.707031 0)"/>
     <use xlink:href="#DejaVuSans-Bold-20" transform="translate(2066.707031 0)"/>
     <use xlink:href="#DejaVuSans-Bold-41" transform="translate(2101.521484 0)"/>
     <use xlink:href="#DejaVuSans-Bold-75" transform="translate(2178.914062 0)"/>
     <use xlink:href="#DejaVuSans-Bold-73" transform="translate(2250.105469 0)"/>
     <use xlink:href="#DejaVuSans-Bold-72" transform="translate(2309.626953 0)"/>
     <use xlink:href="#DejaVuSans-Bold-69" transform="translate(2358.943359 0)"/>
     <use xlink:href="#DejaVuSans-Bold-63" transform="translate(2393.220703 0)"/>
     <use xlink:href="#DejaVuSans-Bold-68" transform="translate(2452.498047 0)"/>
     <use xlink:href="#DejaVuSans-Bold-74" transform="translate(2523.689453 0)"/>
     <use xlink:href="#DejaVuSans-Bold-75" transform="translate(2571.492188 0)"/>
     <use xlink:href="#DejaVuSans-Bold-6e" transform="translate(2642.683594 0)"/>
     <use xlink:href="#DejaVuSans-Bold-67" transform="translate(2713.875 0)"/>
    </g>
   </g>
   <g id="text_2">
    <!-- PiLiDAR 2.0 — Verkabelungs- &amp; Aufbaudokumentation -->
    <g style="fill: #94a3b8" transform="translate(18.36 41.5728) scale(0.09 -0.09)">
     <defs>
      <path id="DejaVuSans-50" d="M 1259 4147 
L 1259 2394 
L 2053 2394 
Q 2494 2394 2734 2622 
Q 2975 2850 2975 3272 
Q 2975 3691 2734 3919 
Q 2494 4147 2053 4147 
L 1259 4147 
z
M 628 4666 
L 2053 4666 
Q 2838 4666 3239 4311 
Q 3641 3956 3641 3272 
Q 3641 2581 3239 2228 
Q 2838 1875 2053 1875 
L 1259 1875 
L 1259 0 
L 628 0 
L 628 4666 
z
" transform="scale(0.015625)"/>
      <path id="DejaVuSans-69" d="M 603 3500 
L 1178 3500 
L 1178 0 
L 603 0 
L 603 3500 
z
M 603 4863 
L 1178 4863 
L 1178 4134 
L 603 4134 
L 603 4863 
z
" transform="scale(0.015625)"/>
      <path id="DejaVuSans-4c" d="M 628 4666 
L 1259 4666 
L 1259 531 
L 3531 531 
L 3531 0 
L 628 0 
L 628 4666 
z
" transform="scale(0.015625)"/>
      <path id="DejaVuSans-44" d="M 1259 4147 
L 1259 519 
L 2022 519 
Q 2988 519 3436 956 
Q 3884 1394 3884 2338 
Q 3884 3275 3436 3711 
Q 2988 4147 2022 4147 
L 1259 4147 
z
M 628 4666 
L 1925 4666 
Q 3281 4666 3915 4102 
Q 4550 3538 4550 2338 
Q 4550 1131 3912 565 
Q 3275 0 1925 0 
L 628 0 
L 628 4666 
z
" transform="scale(0.015625)"/>
      <path id="DejaVuSans-41" d="M 2188 4044 
L 1331 1722 
L 3047 1722 
L 2188 4044 
z
M 1831 4666 
L 2547 4666 
L 4325 0 
L 3669 0 
L 3244 1197 
L 1141 1197 
L 716 0 
L 50 0 
L 1831 4666 
z
" transform="scale(0.015625)"/>
      <path id="DejaVuSans-52" d="M 2841 2188 
Q 3044 2119 3236 1894 
Q 3428 1669 3622 1275 
L 4263 0 
L 3584 0 
L 2988 1197 
Q 2756 1666 2539 1819 
Q 2322 1972 1947 1972 
L 1259 1972 
L 1259 0 
L 628 0 
L 628 4666 
L 2053 4666 
Q 2853 4666 3247 4331 
Q 3641 3997 3641 3322 
Q 3641 2881 3436 2590 
Q 3231 2300 2841 2188 
z
M 1259 4147 
L 1259 2491 
L 2053 2491 
Q 2509 2491 2742 2702 
Q 2975 2913 2975 3322 
Q 2975 3731 2742 3939 
Q 2509 4147 2053 4147 
L 1259 4147 
z
" transform="scale(0.015625)"/>
      <path id="DejaVuSans-20" transform="scale(0.015625)"/>
      <path id="DejaVuSans-32" d="M 1228 531 
L 3431 531 
L 3431 0 
L 469 0 
L 469 531 
Q 828 903 1448 1529 
Q 2069 2156 2228 2338 
Q 2531 2678 2651 2914 
Q 2772 3150 2772 3378 
Q 2772 3750 2511 3984 
Q 2250 4219 1831 4219 
Q 1534 4219 1204 4116 
Q 875 4013 500 3803 
L 500 4441 
Q 881 4594 1212 4672 
Q 1544 4750 1819 4750 
Q 2544 4750 2975 4387 
Q 3406 4025 3406 3419 
Q 3406 3131 3298 2873 
Q 3191 2616 2906 2266 
Q 2828 2175 2409 1742 
Q 1991 1309 1228 531 
z
" transform="scale(0.015625)"/>
      <path id="DejaVuSans-2e" d="M 684 794 
L 1344 794 
L 1344 0 
L 684 0 
L 684 794 
z
" transform="scale(0.015625)"/>
      <path id="DejaVuSans-30" d="M 2034 4250 
Q 1547 4250 1301 3770 
Q 1056 3291 1056 2328 
Q 1056 1369 1301 889 
Q 1547 409 2034 409 
Q 2525 409 2770 889 
Q 3016 1369 3016 2328 
Q 3016 3291 2770 3770 
Q 2525 4250 2034 4250 
z
M 2034 4750 
Q 2819 4750 3233 4129 
Q 3647 3509 3647 2328 
Q 3647 1150 3233 529 
Q 2819 -91 2034 -91 
Q 1250 -91 836 529 
Q 422 1150 422 2328 
Q 422 3509 836 4129 
Q 1250 4750 2034 4750 
z
" transform="scale(0.015625)"/>
      <path id="DejaVuSans-2014" d="M 313 1978 
L 6088 1978 
L 6088 1528 
L 313 1528 
L 313 1978 
z
" transform="scale(0.015625)"/>
      <path id="DejaVuSans-56" d="M 1831 0 
L 50 4666 
L 709 4666 
L 2188 738 
L 3669 4666 
L 4325 4666 
L 2547 0 
L 1831 0 
z
" transform="scale(0.015625)"/>
      <path id="DejaVuSans-65" d="M 3597 1894 
L 3597 1613 
L 953 1613 
Q 991 1019 1311 708 
Q 1631 397 2203 397 
Q 2534 397 2845 478 
Q 3156 559 3463 722 
L 3463 178 
Q 3153 47 2828 -22 
Q 2503 -91 2169 -91 
Q 1331 -91 842 396 
Q 353 884 353 1716 
Q 353 2575 817 3079 
Q 1281 3584 2069 3584 
Q 2775 3584 3186 3129 
Q 3597 2675 3597 1894 
z
M 3022 2063 
Q 3016 2534 2758 2815 
Q 2500 3097 2075 3097 
Q 1594 3097 1305 2825 
Q 1016 2553 972 2059 
L 3022 2063 
z
" transform="scale(0.015625)"/>
      <path id="DejaVuSans-72" d="M 2631 2963 
Q 2534 3019 2420 3045 
Q 2306 3072 2169 3072 
Q 1681 3072 1420 2755 
Q 1159 2438 1159 1844 
L 1159 0 
L 581 0 
L 581 3500 
L 1159 3500 
L 1159 2956 
Q 1341 3275 1631 3429 
Q 1922 3584 2338 3584 
Q 2397 3584 2469 3576 
Q 2541 3569 2628 3553 
L 2631 2963 
z
" transform="scale(0.015625)"/>
      <path id="DejaVuSans-6b" d="M 581 4863 
L 1159 4863 
L 1159 1991 
L 2875 3500 
L 3609 3500 
L 1753 1863 
L 3688 0 
L 2938 0 
L 1159 1709 
L 1159 0 
L 581 0 
L 581 4863 
z
" transform="scale(0.015625)"/>
      <path id="DejaVuSans-61" d="M 2194 1759 
Q 1497 1759 1228 1600 
Q 959 1441 959 1056 
Q 959 750 1161 570 
Q 1363 391 1709 391 
Q 2188 391 2477 730 
Q 2766 1069 2766 1631 
L 2766 1759 
L 2194 1759 
z
M 3341 1997 
L 3341 0 
L 2766 0 
L 2766 531 
Q 2569 213 2275 61 
Q 1981 -91 1556 -91 
Q 1019 -91 701 211 
Q 384 513 384 1019 
Q 384 1609 779 1909 
Q 1175 2209 1959 2209 
L 2766 2209 
L 2766 2266 
Q 2766 2663 2505 2880 
Q 2244 3097 1772 3097 
Q 1472 3097 1187 3025 
Q 903 2953 641 2809 
L 641 3341 
Q 956 3463 1253 3523 
Q 1550 3584 1831 3584 
Q 2591 3584 2966 3190 
Q 3341 2797 3341 1997 
z
" transform="scale(0.015625)"/>
      <path id="DejaVuSans-62" d="M 3116 1747 
Q 3116 2381 2855 2742 
Q 2594 3103 2138 3103 
Q 1681 3103 1420 2742 
Q 1159 2381 1159 1747 
Q 1159 1113 1420 752 
Q 1681 391 2138 391 
Q 2594 391 2855 752 
Q 3116 1113 3116 1747 
z
M 1159 2969 
Q 1341 3281 1617 3432 
Q 1894 3584 2278 3584 
Q 2916 3584 3314 3078 
Q 3713 2572 3713 1747 
Q 3713 922 3314 415 
Q 2916 -91 2278 -91 
Q 1894 -91 1617 61 
Q 1341 213 1159 525 
L 1159 0 
L 581 0 
L 581 4863 
L 1159 4863 
L 1159 2969 
z
" transform="scale(0.015625)"/>
      <path id="DejaVuSans-6c" d="M 603 4863 
L 1178 4863 
L 1178 0 
L 603 0 
L 603 4863 
z
" transform="scale(0.015625)"/>
      <path id="DejaVuSans-75" d="M 544 1381 
L 544 3500 
L 1119 3500 
L 1119 1403 
Q 1119 906 1312 657 
Q 1506 409 1894 409 
Q 2359 409 2629 706 
Q 2900 1003 2900 1516 
L 2900 3500 
L 3475 3500 
L 3475 0 
L 2900 0 
L 2900 538 
Q 2691 219 2414 64 
Q 2138 -91 1772 -91 
Q 1169 -91 856 284 
Q 544 659 544 1381 
z
M 1991 3584 
L 1991 3584 
z
" transform="scale(0.015625)"/>
      <path id="DejaVuSans-6e" d="M 3513 2113 
L 3513 0 
L 2938 0 
L 2938 2094 
Q 2938 2591 2744 2837 
Q 2550 3084 2163 3084 
Q 1697 3084 1428 2787 
Q 1159 2491 1159 1978 
L 1159 0 
L 581 0 
L 581 3500 
L 1159 3500 
L 1159 2956 
Q 1366 3272 1645 3428 
Q 1925 3584 2291 3584 
Q 2894 3584 3203 3211 
Q 3513 2838 3513 2113 
z
" transform="scale(0.015625)"/>
      <path id="DejaVuSans-67" d="M 2906 1791 
Q 2906 2416 2648 2759 
Q 2391 3103 1925 3103 
Q 1463 3103 1205 2759 
Q 947 2416 947 1791 
Q 947 1169 1205 825 
Q 1463 481 1925 481 
Q 2391 481 2648 825 
Q 2906 1169 2906 1791 
z
M 3481 434 
Q 3481 -459 3084 -895 
Q 2688 -1331 1869 -1331 
Q 1566 -1331 1297 -1286 
Q 1028 -1241 775 -1147 
L 775 -588 
Q 1028 -725 1275 -790 
Q 1522 -856 1778 -856 
Q 2344 -856 2625 -561 
Q 2906 -266 2906 331 
L 2906 616 
Q 2728 306 2450 153 
Q 2172 0 1784 0 
Q 1141 0 747 490 
Q 353 981 353 1791 
Q 353 2603 747 3093 
Q 1141 3584 1784 3584 
Q 2172 3584 2450 3431 
Q 2728 3278 2906 2969 
L 2906 3500 
L 3481 3500 
L 3481 434 
z
" transform="scale(0.015625)"/>
      <path id="DejaVuSans-73" d="M 2834 3397 
L 2834 2853 
Q 2591 2978 2328 3040 
Q 2066 3103 1784 3103 
Q 1356 3103 1142 2972 
Q 928 2841 928 2578 
Q 928 2378 1081 2264 
Q 1234 2150 1697 2047 
L 1894 2003 
Q 2506 1872 2764 1633 
Q 3022 1394 3022 966 
Q 3022 478 2636 193 
Q 2250 -91 1575 -91 
Q 1294 -91 989 -36 
Q 684 19 347 128 
L 347 722 
Q 666 556 975 473 
Q 1284 391 1588 391 
Q 1994 391 2212 530 
Q 2431 669 2431 922 
Q 2431 1156 2273 1281 
Q 2116 1406 1581 1522 
L 1381 1569 
Q 847 1681 609 1914 
Q 372 2147 372 2553 
Q 372 3047 722 3315 
Q 1072 3584 1716 3584 
Q 2034 3584 2315 3537 
Q 2597 3491 2834 3397 
z
" transform="scale(0.015625)"/>
      <path id="DejaVuSans-2d" d="M 313 2009 
L 1997 2009 
L 1997 1497 
L 313 1497 
L 313 2009 
z
" transform="scale(0.015625)"/>
      <path id="DejaVuSans-26" d="M 1556 2509 
Q 1272 2256 1139 2004 
Q 1006 1753 1006 1478 
Q 1006 1022 1337 719 
Q 1669 416 2169 416 
Q 2466 416 2725 514 
Q 2984 613 3213 813 
L 1556 2509 
z
M 1997 2859 
L 3584 1234 
Q 3769 1513 3872 1830 
Q 3975 2147 3994 2503 
L 4575 2503 
Q 4538 2091 4375 1687 
Q 4213 1284 3922 891 
L 4794 0 
L 4006 0 
L 3559 459 
Q 3234 181 2878 45 
Q 2522 -91 2113 -91 
Q 1359 -91 881 339 
Q 403 769 403 1441 
Q 403 1841 612 2192 
Q 822 2544 1241 2853 
Q 1091 3050 1012 3245 
Q 934 3441 934 3628 
Q 934 4134 1281 4442 
Q 1628 4750 2203 4750 
Q 2463 4750 2720 4694 
Q 2978 4638 3244 4525 
L 3244 3956 
Q 2972 4103 2725 4179 
Q 2478 4256 2266 4256 
Q 1938 4256 1733 4082 
Q 1528 3909 1528 3634 
Q 1528 3475 1620 3314 
Q 1713 3153 1997 2859 
z
" transform="scale(0.015625)"/>
      <path id="DejaVuSans-66" d="M 2375 4863 
L 2375 4384 
L 1825 4384 
Q 1516 4384 1395 4259 
Q 1275 4134 1275 3809 
L 1275 3500 
L 2222 3500 
L 2222 3053 
L 1275 3053 
L 1275 0 
L 697 0 
L 697 3053 
L 147 3053 
L 147 3500 
L 697 3500 
L 697 3744 
Q 697 4328 969 4595 
Q 1241 4863 1831 4863 
L 2375 4863 
z
" transform="scale(0.015625)"/>
      <path id="DejaVuSans-64" d="M 2906 2969 
L 2906 4863 
L 3481 4863 
L 3481 0 
L 2906 0 
L 2906 525 
Q 2725 213 2448 61 
Q 2172 -91 1784 -91 
Q 1150 -91 751 415 
Q 353 922 353 1747 
Q 353 2572 751 3078 
Q 1150 3584 1784 3584 
Q 2172 3584 2448 3432 
Q 2725 3281 2906 2969 
z
M 947 1747 
Q 947 1113 1208 752 
Q 1469 391 1925 391 
Q 2381 391 2643 752 
Q 2906 1113 2906 1747 
Q 2906 2381 2643 2742 
Q 2381 3103 1925 3103 
Q 1469 3103 1208 2742 
Q 947 2381 947 1747 
z
" transform="scale(0.015625)"/>
      <path id="DejaVuSans-6f" d="M 1959 3097 
Q 1497 3097 1228 2736 
Q 959 2375 959 1747 
Q 959 1119 1226 758 
Q 1494 397 1959 397 
Q 2419 397 2687 759 
Q 2956 1122 2956 1747 
Q 2956 2369 2687 2733 
Q 2419 3097 1959 3097 
z
M 1959 3584 
Q 2709 3584 3137 3096 
Q 3566 2609 3566 1747 
Q 3566 888 3137 398 
Q 2709 -91 1959 -91 
Q 1206 -91 779 398 
Q 353 888 353 1747 
Q 353 2609 779 3096 
Q 1206 3584 1959 3584 
z
" transform="scale(0.015625)"/>
      <path id="DejaVuSans-6d" d="M 3328 2828 
Q 3544 3216 3844 3400 
Q 4144 3584 4550 3584 
Q 5097 3584 5394 3201 
Q 5691 2819 5691 2113 
L 5691 0 
L 5113 0 
L 5113 2094 
Q 5113 2597 4934 2840 
Q 4756 3084 4391 3084 
Q 3944 3084 3684 2787 
Q 3425 2491 3425 1978 
L 3425 0 
L 2847 0 
L 2847 2094 
Q 2847 2600 2669 2842 
Q 2491 3084 2119 3084 
Q 1678 3084 1418 2786 
Q 1159 2488 1159 1978 
L 1159 0 
L 581 0 
L 581 3500 
L 1159 3500 
L 1159 2956 
Q 1356 3278 1631 3431 
Q 1906 3584 2284 3584 
Q 2666 3584 2933 3390 
Q 3200 3197 3328 2828 
z
" transform="scale(0.015625)"/>
      <path id="DejaVuSans-74" d="M 1172 4494 
L 1172 3500 
L 2356 3500 
L 2356 3053 
L 1172 3053 
L 1172 1153 
Q 1172 725 1289 603 
Q 1406 481 1766 481 
L 2356 481 
L 2356 0 
L 1766 0 
Q 1100 0 847 248 
Q 594 497 594 1153 
L 594 3053 
L 172 3053 
L 172 3500 
L 594 3500 
L 594 4494 
L 1172 4494 
z
" transform="scale(0.015625)"/>
     </defs>
     <use xlink:href="#DejaVuSans-50"/>
     <use xlink:href="#DejaVuSans-69" transform="translate(58.052734 0)"/>
     <use xlink:href="#DejaVuSans-4c" transform="translate(85.835938 0)"/>
     <use xlink:href="#DejaVuSans-69" transform="translate(141.548828 0)"/>
     <use xlink:href="#DejaVuSans-44" transform="translate(169.332031 0)"/>
     <use xlink:href="#DejaVuSans-41" transform="translate(244.583984 0)"/>
     <use xlink:href="#DejaVuSans-52" transform="translate(312.992188 0)"/>
     <use xlink:href="#DejaVuSans-20" transform="translate(382.474609 0)"/>
     <use xlink:href="#DejaVuSans-32" transform="translate(414.261719 0)"/>
     <use xlink:href="#DejaVuSans-2e" transform="translate(477.884766 0)"/>
     <use xlink:href="#DejaVuSans-30" transform="translate(509.671875 0)"/>
     <use xlink:href="#DejaVuSans-20" transform="translate(573.294922 0)"/>
     <use xlink:href="#DejaVuSans-2014" transform="translate(605.082031 0)"/>
     <use xlink:href="#DejaVuSans-20" transform="translate(705.082031 0)"/>
     <use xlink:href="#DejaVuSans-56" transform="translate(736.869141 0)"/>
     <use xlink:href="#DejaVuSans-65" transform="translate(797.527344 0)"/>
     <use xlink:href="#DejaVuSans-72" transform="translate(859.050781 0)"/>
     <use xlink:href="#DejaVuSans-6b" transform="translate(900.164062 0)"/>
     <use xlink:href="#DejaVuSans-61" transform="translate(956.324219 0)"/>
     <use xlink:href="#DejaVuSans-62" transform="translate(1017.603516 0)"/>
     <use xlink:href="#DejaVuSans-65" transform="translate(1081.080078 0)"/>
     <use xlink:href="#DejaVuSans-6c" transform="translate(1142.603516 0)"/>
     <use xlink:href="#DejaVuSans-75" transform="translate(1170.386719 0)"/>
     <use xlink:href="#DejaVuSans-6e" transform="translate(1233.765625 0)"/>
     <use xlink:href="#DejaVuSans-67" transform="translate(1297.144531 0)"/>
     <use xlink:href="#DejaVuSans-73" transform="translate(1360.621094 0)"/>
     <use xlink:href="#DejaVuSans-2d" transform="translate(1412.720703 0)"/>
     <use xlink:href="#DejaVuSans-20" transform="translate(1448.804688 0)"/>
     <use xlink:href="#DejaVuSans-26" transform="translate(1480.591797 0)"/>
     <use xlink:href="#DejaVuSans-20" transform="translate(1558.570312 0)"/>
     <use xlink:href="#DejaVuSans-41" transform="translate(1590.357422 0)"/>
     <use xlink:href="#DejaVuSans-75" transform="translate(1658.765625 0)"/>
     <use xlink:href="#DejaVuSans-66" transform="translate(1722.144531 0)"/>
     <use xlink:href="#DejaVuSans-62" transform="translate(1757.349609 0)"/>
     <use xlink:href="#DejaVuSans-61" transform="translate(1820.826172 0)"/>
     <use xlink:href="#DejaVuSans-75" transform="translate(1882.105469 0)"/>
     <use xlink:href="#DejaVuSans-64" transform="translate(1945.484375 0)"/>
     <use xlink:href="#DejaVuSans-6f" transform="translate(2008.960938 0)"/>
     <use xlink:href="#DejaVuSans-6b" transform="translate(2070.142578 0)"/>
     <use xlink:href="#DejaVuSans-75" transform="translate(2124.927734 0)"/>
     <use xlink:href="#DejaVuSans-6d" transform="translate(2188.306641 0)"/>
     <use xlink:href="#DejaVuSans-65" transform="translate(2285.71875 0)"/>
     <use xlink:href="#DejaVuSans-6e" transform="translate(2347.242188 0)"/>
     <use xlink:href="#DejaVuSans-74" transform="translate(2410.621094 0)"/>
     <use xlink:href="#DejaVuSans-61" transform="translate(2449.830078 0)"/>
     <use xlink:href="#DejaVuSans-74" transform="translate(2511.109375 0)"/>
     <use xlink:href="#DejaVuSans-69" transform="translate(2550.318359 0)"/>
     <use xlink:href="#DejaVuSans-6f" transform="translate(2578.101562 0)"/>
     <use xlink:href="#DejaVuSans-6e" transform="translate(2639.283203 0)"/>
    </g>
   </g>
   <g id="patch_6">
    <path d="M 369.9 382.195057 
Q 369.9 223.419551 369.9 66.880114 
" style="fill: none; stroke: #e5e7eb; stroke-width: 2; stroke-linecap: round"/>
    <path d="M 367.9 70.880114 
L 369.9 66.880114 
L 371.9 70.880114 
" style="fill: none; stroke: #e5e7eb; stroke-width: 2; stroke-linecap: round"/>
   </g>
   <g id="text_3">
    <!-- Z = Drehachse (senkrecht, Stepper) -->
    <g style="fill: #e5e7eb" transform="translate(378.27 68.184) scale(0.09 -0.09)">
     <defs>
      <path id="DejaVuSans-5a" d="M 359 4666 
L 4025 4666 
L 4025 4184 
L 1075 531 
L 4097 531 
L 4097 0 
L 288 0 
L 288 481 
L 3238 4134 
L 359 4134 
L 359 4666 
z
" transform="scale(0.015625)"/>
      <path id="DejaVuSans-3d" d="M 678 2906 
L 4684 2906 
L 4684 2381 
L 678 2381 
L 678 2906 
z
M 678 1631 
L 4684 1631 
L 4684 1100 
L 678 1100 
L 678 1631 
z
" transform="scale(0.015625)"/>
      <path id="DejaVuSans-68" d="M 3513 2113 
L 3513 0 
L 2938 0 
L 2938 2094 
Q 2938 2591 2744 2837 
Q 2550 3084 2163 3084 
Q 1697 3084 1428 2787 
Q 1159 2491 1159 1978 
L 1159 0 
L 581 0 
L 581 4863 
L 1159 4863 
L 1159 2956 
Q 1366 3272 1645 3428 
Q 1925 3584 2291 3584 
Q 2894 3584 3203 3211 
Q 3513 2838 3513 2113 
z
" transform="scale(0.015625)"/>
      <path id="DejaVuSans-63" d="M 3122 3366 
L 3122 2828 
Q 2878 2963 2633 3030 
Q 2388 3097 2138 3097 
Q 1578 3097 1268 2742 
Q 959 2388 959 1747 
Q 959 1106 1268 751 
Q 1578 397 2138 397 
Q 2388 397 2633 464 
Q 2878 531 3122 666 
L 3122 134 
Q 2881 22 2623 -34 
Q 2366 -91 2075 -91 
Q 1284 -91 818 406 
Q 353 903 353 1747 
Q 353 2603 823 3093 
Q 1294 3584 2113 3584 
Q 2378 3584 2631 3529 
Q 2884 3475 3122 3366 
z
" transform="scale(0.015625)"/>
      <path id="DejaVuSans-28" d="M 1984 4856 
Q 1566 4138 1362 3434 
Q 1159 2731 1159 2009 
Q 1159 1288 1364 580 
Q 1569 -128 1984 -844 
L 1484 -844 
Q 1016 -109 783 600 
Q 550 1309 550 2009 
Q 550 2706 781 3412 
Q 1013 4119 1484 4856 
L 1984 4856 
z
" transform="scale(0.015625)"/>
      <path id="DejaVuSans-2c" d="M 750 794 
L 1409 794 
L 1409 256 
L 897 -744 
L 494 -744 
L 750 256 
L 750 794 
z
" transform="scale(0.015625)"/>
      <path id="DejaVuSans-53" d="M 3425 4513 
L 3425 3897 
Q 3066 4069 2747 4153 
Q 2428 4238 2131 4238 
Q 1616 4238 1336 4038 
Q 1056 3838 1056 3469 
Q 1056 3159 1242 3001 
Q 1428 2844 1947 2747 
L 2328 2669 
Q 3034 2534 3370 2195 
Q 3706 1856 3706 1288 
Q 3706 609 3251 259 
Q 2797 -91 1919 -91 
Q 1588 -91 1214 -16 
Q 841 59 441 206 
L 441 856 
Q 825 641 1194 531 
Q 1563 422 1919 422 
Q 2459 422 2753 634 
Q 3047 847 3047 1241 
Q 3047 1584 2836 1778 
Q 2625 1972 2144 2069 
L 1759 2144 
Q 1053 2284 737 2584 
Q 422 2884 422 3419 
Q 422 4038 858 4394 
Q 1294 4750 2059 4750 
Q 2388 4750 2728 4690 
Q 3069 4631 3425 4513 
z
" transform="scale(0.015625)"/>
      <path id="DejaVuSans-70" d="M 1159 525 
L 1159 -1331 
L 581 -1331 
L 581 3500 
L 1159 3500 
L 1159 2969 
Q 1341 3281 1617 3432 
Q 1894 3584 2278 3584 
Q 2916 3584 3314 3078 
Q 3713 2572 3713 1747 
Q 3713 922 3314 415 
Q 2916 -91 2278 -91 
Q 1894 -91 1617 61 
Q 1341 213 1159 525 
z
M 3116 1747 
Q 3116 2381 2855 2742 
Q 2594 3103 2138 3103 
Q 1681 3103 1420 2742 
Q 1159 2381 1159 1747 
Q 1159 1113 1420 752 
Q 1681 391 2138 391 
Q 2594 391 2855 752 
Q 3116 1113 3116 1747 
z
" transform="scale(0.015625)"/>
      <path id="DejaVuSans-29" d="M 513 4856 
L 1013 4856 
Q 1481 4119 1714 3412 
Q 1947 2706 1947 2009 
Q 1947 1309 1714 600 
Q 1481 -109 1013 -844 
L 513 -844 
Q 928 -128 1133 580 
Q 1338 1288 1338 2009 
Q 1338 2731 1133 3434 
Q 928 4138 513 4856 
z
" transform="scale(0.015625)"/>
     </defs>
     <use xlink:href="#DejaVuSans-5a"/>
     <use xlink:href="#DejaVuSans-20" transform="translate(68.505859 0)"/>
     <use xlink:href="#DejaVuSans-3d" transform="translate(100.292969 0)"/>
     <use xlink:href="#DejaVuSans-20" transform="translate(184.082031 0)"/>
     <use xlink:href="#DejaVuSans-44" transform="translate(215.869141 0)"/>
     <use xlink:href="#DejaVuSans-72" transform="translate(292.871094 0)"/>
     <use xlink:href="#DejaVuSans-65" transform="translate(331.734375 0)"/>
     <use xlink:href="#DejaVuSans-68" transform="translate(393.257812 0)"/>
     <use xlink:href="#DejaVuSans-61" transform="translate(456.636719 0)"/>
     <use xlink:href="#DejaVuSans-63" transform="translate(517.916016 0)"/>
     <use xlink:href="#DejaVuSans-68" transform="translate(572.896484 0)"/>
     <use xlink:href="#DejaVuSans-73" transform="translate(636.275391 0)"/>
     <use xlink:href="#DejaVuSans-65" transform="translate(688.375 0)"/>
     <use xlink:href="#DejaVuSans-20" transform="translate(749.898438 0)"/>
     <use xlink:href="#DejaVuSans-28" transform="translate(781.685547 0)"/>
     <use xlink:href="#DejaVuSans-73" transform="translate(820.699219 0)"/>
     <use xlink:href="#DejaVuSans-65" transform="translate(872.798828 0)"/>
     <use xlink:href="#DejaVuSans-6e" transform="translate(934.322266 0)"/>
     <use xlink:href="#DejaVuSans-6b" transform="translate(997.701172 0)"/>
     <use xlink:href="#DejaVuSans-72" transform="translate(1055.611328 0)"/>
     <use xlink:href="#DejaVuSans-65" transform="translate(1094.474609 0)"/>
     <use xlink:href="#DejaVuSans-63" transform="translate(1155.998047 0)"/>
     <use xlink:href="#DejaVuSans-68" transform="translate(1210.978516 0)"/>
     <use xlink:href="#DejaVuSans-74" transform="translate(1274.357422 0)"/>
     <use xlink:href="#DejaVuSans-2c" transform="translate(1313.566406 0)"/>
     <use xlink:href="#DejaVuSans-20" transform="translate(1345.353516 0)"/>
     <use xlink:href="#DejaVuSans-53" transform="translate(1377.140625 0)"/>
     <use xlink:href="#DejaVuSans-74" transform="translate(1440.617188 0)"/>
     <use xlink:href="#DejaVuSans-65" transform="translate(1479.826172 0)"/>
     <use xlink:href="#DejaVuSans-70" transform="translate(1541.349609 0)"/>
     <use xlink:href="#DejaVuSans-70" transform="translate(1604.826172 0)"/>
     <use xlink:href="#DejaVuSans-65" transform="translate(1668.302734 0)"/>
     <use xlink:href="#DejaVuSans-72" transform="translate(1729.826172 0)"/>
     <use xlink:href="#DejaVuSans-29" transform="translate(1770.939453 0)"/>
    </g>
   </g>
   <g id="text_4">
    <!-- Rotor-Grundplatte (dreht um Z) -->
    <g style="fill: #94a3b8" transform="translate(307.043125 386.964) scale(0.08 -0.08)">
     <defs>
      <path id="DejaVuSans-47" d="M 3809 666 
L 3809 1919 
L 2778 1919 
L 2778 2438 
L 4434 2438 
L 4434 434 
Q 4069 175 3628 42 
Q 3188 -91 2688 -91 
Q 1594 -91 976 548 
Q 359 1188 359 2328 
Q 359 3472 976 4111 
Q 1594 4750 2688 4750 
Q 3144 4750 3555 4637 
Q 3966 4525 4313 4306 
L 4313 3634 
Q 3963 3931 3569 4081 
Q 3175 4231 2741 4231 
Q 1884 4231 1454 3753 
Q 1025 3275 1025 2328 
Q 1025 1384 1454 906 
Q 1884 428 2741 428 
Q 3075 428 3337 486 
Q 3600 544 3809 666 
z
" transform="scale(0.015625)"/>
     </defs>
     <use xlink:href="#DejaVuSans-52"/>
     <use xlink:href="#DejaVuSans-6f" transform="translate(64.982422 0)"/>
     <use xlink:href="#DejaVuSans-74" transform="translate(126.164062 0)"/>
     <use xlink:href="#DejaVuSans-6f" transform="translate(165.373047 0)"/>
     <use xlink:href="#DejaVuSans-72" transform="translate(226.554688 0)"/>
     <use xlink:href="#DejaVuSans-2d" transform="translate(261.292969 0)"/>
     <use xlink:href="#DejaVuSans-47" transform="translate(301.001953 0)"/>
     <use xlink:href="#DejaVuSans-72" transform="translate(378.492188 0)"/>
     <use xlink:href="#DejaVuSans-75" transform="translate(419.605469 0)"/>
     <use xlink:href="#DejaVuSans-6e" transform="translate(482.984375 0)"/>
     <use xlink:href="#DejaVuSans-64" transform="translate(546.363281 0)"/>
     <use xlink:href="#DejaVuSans-70" transform="translate(609.839844 0)"/>
     <use xlink:href="#DejaVuSans-6c" transform="translate(673.316406 0)"/>
     <use xlink:href="#DejaVuSans-61" transform="translate(701.099609 0)"/>
     <use xlink:href="#DejaVuSans-74" transform="translate(762.378906 0)"/>
     <use xlink:href="#DejaVuSans-74" transform="translate(801.587891 0)"/>
     <use xlink:href="#DejaVuSans-65" transform="translate(840.796875 0)"/>
     <use xlink:href="#DejaVuSans-20" transform="translate(902.320312 0)"/>
     <use xlink:href="#DejaVuSans-28" transform="translate(934.107422 0)"/>
     <use xlink:href="#DejaVuSans-64" transform="translate(973.121094 0)"/>
     <use xlink:href="#DejaVuSans-72" transform="translate(1036.597656 0)"/>
     <use xlink:href="#DejaVuSans-65" transform="translate(1075.460938 0)"/>
     <use xlink:href="#DejaVuSans-68" transform="translate(1136.984375 0)"/>
     <use xlink:href="#DejaVuSans-74" transform="translate(1200.363281 0)"/>
     <use xlink:href="#DejaVuSans-20" transform="translate(1239.572266 0)"/>
     <use xlink:href="#DejaVuSans-75" transform="translate(1271.359375 0)"/>
     <use xlink:href="#DejaVuSans-6d" transform="translate(1334.738281 0)"/>
     <use xlink:href="#DejaVuSans-20" transform="translate(1432.150391 0)"/>
     <use xlink:href="#DejaVuSans-5a" transform="translate(1463.9375 0)"/>
     <use xlink:href="#DejaVuSans-29" transform="translate(1532.443359 0)"/>
    </g>
   </g>
   <g id="text_5">
    <!-- senkrechte -->
    <g style="fill: #94a3b8" transform="translate(264.024375 153.47375) scale(0.08 -0.08)">
     <use xlink:href="#DejaVuSans-73"/>
     <use xlink:href="#DejaVuSans-65" transform="translate(52.099609 0)"/>
     <use xlink:href="#DejaVuSans-6e" transform="translate(113.623047 0)"/>
     <use xlink:href="#DejaVuSans-6b" transform="translate(177.001953 0)"/>
     <use xlink:href="#DejaVuSans-72" transform="translate(234.912109 0)"/>
     <use xlink:href="#DejaVuSans-65" transform="translate(273.775391 0)"/>
     <use xlink:href="#DejaVuSans-63" transform="translate(335.298828 0)"/>
     <use xlink:href="#DejaVuSans-68" transform="translate(390.279297 0)"/>
     <use xlink:href="#DejaVuSans-74" transform="translate(453.658203 0)"/>
     <use xlink:href="#DejaVuSans-65" transform="translate(492.867188 0)"/>
    </g>
    <!-- Rückplatte -->
    <g style="fill: #94a3b8" transform="translate(264.850625 162.432) scale(0.08 -0.08)">
     <defs>
      <path id="DejaVuSans-fc" d="M 544 1381 
L 544 3500 
L 1119 3500 
L 1119 1403 
Q 1119 906 1312 657 
Q 1506 409 1894 409 
Q 2359 409 2629 706 
Q 2900 1003 2900 1516 
L 2900 3500 
L 3475 3500 
L 3475 0 
L 2900 0 
L 2900 538 
Q 2691 219 2414 64 
Q 2138 -91 1772 -91 
Q 1169 -91 856 284 
Q 544 659 544 1381 
z
M 1991 3584 
L 1991 3584 
z
M 2278 4850 
L 2912 4850 
L 2912 4219 
L 2278 4219 
L 2278 4850 
z
M 1056 4850 
L 1690 4850 
L 1690 4219 
L 1056 4219 
L 1056 4850 
z
" transform="scale(0.015625)"/>
     </defs>
     <use xlink:href="#DejaVuSans-52"/>
     <use xlink:href="#DejaVuSans-fc" transform="translate(64.982422 0)"/>
     <use xlink:href="#DejaVuSans-63" transform="translate(128.361328 0)"/>
     <use xlink:href="#DejaVuSans-6b" transform="translate(183.341797 0)"/>
     <use xlink:href="#DejaVuSans-70" transform="translate(241.251953 0)"/>
     <use xlink:href="#DejaVuSans-6c" transform="translate(304.728516 0)"/>
     <use xlink:href="#DejaVuSans-61" transform="translate(332.511719 0)"/>
     <use xlink:href="#DejaVuSans-74" transform="translate(393.791016 0)"/>
     <use xlink:href="#DejaVuSans-74" transform="translate(433 0)"/>
     <use xlink:href="#DejaVuSans-65" transform="translate(472.208984 0)"/>
    </g>
   </g>
   <g id="text_6">
    <!-- STL27L (auf der Seite) -->
    <g style="fill: #ffffff" transform="translate(360.480937 176.292) scale(0.09 -0.09)">
     <defs>
      <path id="DejaVuSans-Bold-66" d="M 2841 4863 
L 2841 4128 
L 2222 4128 
Q 1984 4128 1890 4042 
Q 1797 3956 1797 3744 
L 1797 3500 
L 2753 3500 
L 2753 2700 
L 1797 2700 
L 1797 0 
L 678 0 
L 678 2700 
L 122 2700 
L 122 3500 
L 678 3500 
L 678 3744 
Q 678 4316 997 4589 
Q 1316 4863 1984 4863 
L 2841 4863 
z
" transform="scale(0.015625)"/>
      <path id="DejaVuSans-Bold-64" d="M 2919 2988 
L 2919 4863 
L 4044 4863 
L 4044 0 
L 2919 0 
L 2919 506 
Q 2688 197 2409 53 
Q 2131 -91 1766 -91 
Q 1119 -91 703 423 
Q 288 938 288 1747 
Q 288 2556 703 3070 
Q 1119 3584 1766 3584 
Q 2128 3584 2408 3439 
Q 2688 3294 2919 2988 
z
M 2181 722 
Q 2541 722 2730 984 
Q 2919 1247 2919 1747 
Q 2919 2247 2730 2509 
Q 2541 2772 2181 2772 
Q 1825 2772 1636 2509 
Q 1447 2247 1447 1747 
Q 1447 1247 1636 984 
Q 1825 722 2181 722 
z
" transform="scale(0.015625)"/>
     </defs>
     <use xlink:href="#DejaVuSans-Bold-53"/>
     <use xlink:href="#DejaVuSans-Bold-54" transform="translate(72.021484 0)"/>
     <use xlink:href="#DejaVuSans-Bold-4c" transform="translate(140.234375 0)"/>
     <use xlink:href="#DejaVuSans-Bold-32" transform="translate(203.955078 0)"/>
     <use xlink:href="#DejaVuSans-Bold-37" transform="translate(273.535156 0)"/>
     <use xlink:href="#DejaVuSans-Bold-4c" transform="translate(343.115234 0)"/>
     <use xlink:href="#DejaVuSans-Bold-20" transform="translate(406.835938 0)"/>
     <use xlink:href="#DejaVuSans-Bold-28" transform="translate(441.650391 0)"/>
     <use xlink:href="#DejaVuSans-Bold-61" transform="translate(487.353516 0)"/>
     <use xlink:href="#DejaVuSans-Bold-75" transform="translate(554.833984 0)"/>
     <use xlink:href="#DejaVuSans-Bold-66" transform="translate(626.025391 0)"/>
     <use xlink:href="#DejaVuSans-Bold-20" transform="translate(669.53125 0)"/>
     <use xlink:href="#DejaVuSans-Bold-64" transform="translate(704.345703 0)"/>
     <use xlink:href="#DejaVuSans-Bold-65" transform="translate(775.927734 0)"/>
     <use xlink:href="#DejaVuSans-Bold-72" transform="translate(843.75 0)"/>
     <use xlink:href="#DejaVuSans-Bold-20" transform="translate(893.066406 0)"/>
     <use xlink:href="#DejaVuSans-Bold-53" transform="translate(927.880859 0)"/>
     <use xlink:href="#DejaVuSans-Bold-65" transform="translate(999.902344 0)"/>
     <use xlink:href="#DejaVuSans-Bold-69" transform="translate(1067.724609 0)"/>
     <use xlink:href="#DejaVuSans-Bold-74" transform="translate(1102.001953 0)"/>
     <use xlink:href="#DejaVuSans-Bold-65" transform="translate(1149.804688 0)"/>
     <use xlink:href="#DejaVuSans-Bold-29" transform="translate(1217.626953 0)"/>
    </g>
   </g>
   <g id="text_7">
    <!-- Bodenplatte an Rückplatte -->
    <g style="fill: #cbd5e1" transform="translate(364.025 328.752) scale(0.08 -0.08)">
     <defs>
      <path id="DejaVuSans-42" d="M 1259 2228 
L 1259 519 
L 2272 519 
Q 2781 519 3026 730 
Q 3272 941 3272 1375 
Q 3272 1813 3026 2020 
Q 2781 2228 2272 2228 
L 1259 2228 
z
M 1259 4147 
L 1259 2741 
L 2194 2741 
Q 2656 2741 2882 2914 
Q 3109 3088 3109 3444 
Q 3109 3797 2882 3972 
Q 2656 4147 2194 4147 
L 1259 4147 
z
M 628 4666 
L 2241 4666 
Q 2963 4666 3353 4366 
Q 3744 4066 3744 3513 
Q 3744 3084 3544 2831 
Q 3344 2578 2956 2516 
Q 3422 2416 3680 2098 
Q 3938 1781 3938 1306 
Q 3938 681 3513 340 
Q 3088 0 2303 0 
L 628 0 
L 628 4666 
z
" transform="scale(0.015625)"/>
     </defs>
     <use xlink:href="#DejaVuSans-42"/>
     <use xlink:href="#DejaVuSans-6f" transform="translate(68.603516 0)"/>
     <use xlink:href="#DejaVuSans-64" transform="translate(129.785156 0)"/>
     <use xlink:href="#DejaVuSans-65" transform="translate(193.261719 0)"/>
     <use xlink:href="#DejaVuSans-6e" transform="translate(254.785156 0)"/>
     <use xlink:href="#DejaVuSans-70" transform="translate(318.164062 0)"/>
     <use xlink:href="#DejaVuSans-6c" transform="translate(381.640625 0)"/>
     <use xlink:href="#DejaVuSans-61" transform="translate(409.423828 0)"/>
     <use xlink:href="#DejaVuSans-74" transform="translate(470.703125 0)"/>
     <use xlink:href="#DejaVuSans-74" transform="translate(509.912109 0)"/>
     <use xlink:href="#DejaVuSans-65" transform="translate(549.121094 0)"/>
     <use xlink:href="#DejaVuSans-20" transform="translate(610.644531 0)"/>
     <use xlink:href="#DejaVuSans-61" transform="translate(642.431641 0)"/>
     <use xlink:href="#DejaVuSans-6e" transform="translate(703.710938 0)"/>
     <use xlink:href="#DejaVuSans-20" transform="translate(767.089844 0)"/>
     <use xlink:href="#DejaVuSans-52" transform="translate(798.876953 0)"/>
     <use xlink:href="#DejaVuSans-fc" transform="translate(863.859375 0)"/>
     <use xlink:href="#DejaVuSans-63" transform="translate(927.238281 0)"/>
     <use xlink:href="#DejaVuSans-6b" transform="translate(982.21875 0)"/>
     <use xlink:href="#DejaVuSans-70" transform="translate(1040.128906 0)"/>
     <use xlink:href="#DejaVuSans-6c" transform="translate(1103.605469 0)"/>
     <use xlink:href="#DejaVuSans-61" transform="translate(1131.388672 0)"/>
     <use xlink:href="#DejaVuSans-74" transform="translate(1192.667969 0)"/>
     <use xlink:href="#DejaVuSans-74" transform="translate(1231.876953 0)"/>
     <use xlink:href="#DejaVuSans-65" transform="translate(1271.085938 0)"/>
    </g>
   </g>
   <g id="patch_7">
    <path d="M 377.480034 251.136 
Q 459.179329 251.136 538.642556 251.136 
" style="fill: none; stroke: #f59e0b; stroke-width: 2; stroke-linecap: round"/>
    <path d="M 534.642556 249.136 
L 538.642556 251.136 
L 534.642556 253.136 
" style="fill: none; stroke: #f59e0b; stroke-width: 2; stroke-linecap: round"/>
   </g>
   <g id="text_8">
    <!-- Y = Spinachse -->
    <g style="fill: #f59e0b" transform="translate(548.46 248.580422) scale(0.09 -0.09)">
     <defs>
      <path id="DejaVuSans-59" d="M -13 4666 
L 666 4666 
L 1959 2747 
L 3244 4666 
L 3922 4666 
L 2272 2222 
L 2272 0 
L 1638 0 
L 1638 2222 
L -13 4666 
z
" transform="scale(0.015625)"/>
     </defs>
     <use xlink:href="#DejaVuSans-59"/>
     <use xlink:href="#DejaVuSans-20" transform="translate(61.083984 0)"/>
     <use xlink:href="#DejaVuSans-3d" transform="translate(92.871094 0)"/>
     <use xlink:href="#DejaVuSans-20" transform="translate(176.660156 0)"/>
     <use xlink:href="#DejaVuSans-53" transform="translate(208.447266 0)"/>
     <use xlink:href="#DejaVuSans-70" transform="translate(271.923828 0)"/>
     <use xlink:href="#DejaVuSans-69" transform="translate(335.400391 0)"/>
     <use xlink:href="#DejaVuSans-6e" transform="translate(363.183594 0)"/>
     <use xlink:href="#DejaVuSans-61" transform="translate(426.5625 0)"/>
     <use xlink:href="#DejaVuSans-63" transform="translate(487.841797 0)"/>
     <use xlink:href="#DejaVuSans-68" transform="translate(542.822266 0)"/>
     <use xlink:href="#DejaVuSans-73" transform="translate(606.201172 0)"/>
     <use xlink:href="#DejaVuSans-65" transform="translate(658.300781 0)"/>
    </g>
    <!-- (horizontal) -->
    <g style="fill: #f59e0b" transform="translate(548.46 258.658453) scale(0.09 -0.09)">
     <defs>
      <path id="DejaVuSans-7a" d="M 353 3500 
L 3084 3500 
L 3084 2975 
L 922 459 
L 3084 459 
L 3084 0 
L 275 0 
L 275 525 
L 2438 3041 
L 353 3041 
L 353 3500 
z
" transform="scale(0.015625)"/>
     </defs>
     <use xlink:href="#DejaVuSans-28"/>
     <use xlink:href="#DejaVuSans-68" transform="translate(39.013672 0)"/>
     <use xlink:href="#DejaVuSans-6f" transform="translate(102.392578 0)"/>
     <use xlink:href="#DejaVuSans-72" transform="translate(163.574219 0)"/>
     <use xlink:href="#DejaVuSans-69" transform="translate(204.6875 0)"/>
     <use xlink:href="#DejaVuSans-7a" transform="translate(232.470703 0)"/>
     <use xlink:href="#DejaVuSans-6f" transform="translate(284.960938 0)"/>
     <use xlink:href="#DejaVuSans-6e" transform="translate(346.142578 0)"/>
     <use xlink:href="#DejaVuSans-74" transform="translate(409.521484 0)"/>
     <use xlink:href="#DejaVuSans-61" transform="translate(448.730469 0)"/>
     <use xlink:href="#DejaVuSans-6c" transform="translate(510.009766 0)"/>
     <use xlink:href="#DejaVuSans-29" transform="translate(537.792969 0)"/>
    </g>
   </g>
   <g id="text_9">
    <!-- vertikale Scan-Ebene (X-Z) -->
    <g style="fill: #22d3ee" transform="translate(360.484258 105.789859) scale(0.085 -0.085)">
     <defs>
      <path id="DejaVuSans-76" d="M 191 3500 
L 800 3500 
L 1894 563 
L 2988 3500 
L 3597 3500 
L 2284 0 
L 1503 0 
L 191 3500 
z
" transform="scale(0.015625)"/>
      <path id="DejaVuSans-45" d="M 628 4666 
L 3578 4666 
L 3578 4134 
L 1259 4134 
L 1259 2753 
L 3481 2753 
L 3481 2222 
L 1259 2222 
L 1259 531 
L 3634 531 
L 3634 0 
L 628 0 
L 628 4666 
z
" transform="scale(0.015625)"/>
      <path id="DejaVuSans-58" d="M 403 4666 
L 1081 4666 
L 2241 2931 
L 3406 4666 
L 4084 4666 
L 2584 2425 
L 4184 0 
L 3506 0 
L 2194 1984 
L 872 0 
L 191 0 
L 1856 2491 
L 403 4666 
z
" transform="scale(0.015625)"/>
     </defs>
     <use xlink:href="#DejaVuSans-76"/>
     <use xlink:href="#DejaVuSans-65" transform="translate(59.179688 0)"/>
     <use xlink:href="#DejaVuSans-72" transform="translate(120.703125 0)"/>
     <use xlink:href="#DejaVuSans-74" transform="translate(161.816406 0)"/>
     <use xlink:href="#DejaVuSans-69" transform="translate(201.025391 0)"/>
     <use xlink:href="#DejaVuSans-6b" transform="translate(228.808594 0)"/>
     <use xlink:href="#DejaVuSans-61" transform="translate(284.96875 0)"/>
     <use xlink:href="#DejaVuSans-6c" transform="translate(346.248047 0)"/>
     <use xlink:href="#DejaVuSans-65" transform="translate(374.03125 0)"/>
     <use xlink:href="#DejaVuSans-20" transform="translate(435.554688 0)"/>
     <use xlink:href="#DejaVuSans-53" transform="translate(467.341797 0)"/>
     <use xlink:href="#DejaVuSans-63" transform="translate(530.818359 0)"/>
     <use xlink:href="#DejaVuSans-61" transform="translate(585.798828 0)"/>
     <use xlink:href="#DejaVuSans-6e" transform="translate(647.078125 0)"/>
     <use xlink:href="#DejaVuSans-2d" transform="translate(710.457031 0)"/>
     <use xlink:href="#DejaVuSans-45" transform="translate(746.541016 0)"/>
     <use xlink:href="#DejaVuSans-62" transform="translate(809.724609 0)"/>
     <use xlink:href="#DejaVuSans-65" transform="translate(873.201172 0)"/>
     <use xlink:href="#DejaVuSans-6e" transform="translate(934.724609 0)"/>
     <use xlink:href="#DejaVuSans-65" transform="translate(998.103516 0)"/>
     <use xlink:href="#DejaVuSans-20" transform="translate(1059.626953 0)"/>
     <use xlink:href="#DejaVuSans-28" transform="translate(1091.414062 0)"/>
     <use xlink:href="#DejaVuSans-58" transform="translate(1130.427734 0)"/>
     <use xlink:href="#DejaVuSans-2d" transform="translate(1193.933594 0)"/>
     <use xlink:href="#DejaVuSans-5a" transform="translate(1230.017578 0)"/>
     <use xlink:href="#DejaVuSans-29" transform="translate(1298.523438 0)"/>
    </g>
    <!-- — 360° um die Spinachse -->
    <g style="fill: #22d3ee" transform="translate(362.378828 115.308) scale(0.085 -0.085)">
     <defs>
      <path id="DejaVuSans-33" d="M 2597 2516 
Q 3050 2419 3304 2112 
Q 3559 1806 3559 1356 
Q 3559 666 3084 287 
Q 2609 -91 1734 -91 
Q 1441 -91 1130 -33 
Q 819 25 488 141 
L 488 750 
Q 750 597 1062 519 
Q 1375 441 1716 441 
Q 2309 441 2620 675 
Q 2931 909 2931 1356 
Q 2931 1769 2642 2001 
Q 2353 2234 1838 2234 
L 1294 2234 
L 1294 2753 
L 1863 2753 
Q 2328 2753 2575 2939 
Q 2822 3125 2822 3475 
Q 2822 3834 2567 4026 
Q 2313 4219 1838 4219 
Q 1578 4219 1281 4162 
Q 984 4106 628 3988 
L 628 4550 
Q 988 4650 1302 4700 
Q 1616 4750 1894 4750 
Q 2613 4750 3031 4423 
Q 3450 4097 3450 3541 
Q 3450 3153 3228 2886 
Q 3006 2619 2597 2516 
z
" transform="scale(0.015625)"/>
      <path id="DejaVuSans-36" d="M 2113 2584 
Q 1688 2584 1439 2293 
Q 1191 2003 1191 1497 
Q 1191 994 1439 701 
Q 1688 409 2113 409 
Q 2538 409 2786 701 
Q 3034 994 3034 1497 
Q 3034 2003 2786 2293 
Q 2538 2584 2113 2584 
z
M 3366 4563 
L 3366 3988 
Q 3128 4100 2886 4159 
Q 2644 4219 2406 4219 
Q 1781 4219 1451 3797 
Q 1122 3375 1075 2522 
Q 1259 2794 1537 2939 
Q 1816 3084 2150 3084 
Q 2853 3084 3261 2657 
Q 3669 2231 3669 1497 
Q 3669 778 3244 343 
Q 2819 -91 2113 -91 
Q 1303 -91 875 529 
Q 447 1150 447 2328 
Q 447 3434 972 4092 
Q 1497 4750 2381 4750 
Q 2619 4750 2861 4703 
Q 3103 4656 3366 4563 
z
" transform="scale(0.015625)"/>
      <path id="DejaVuSans-b0" d="M 1600 4347 
Q 1350 4347 1178 4173 
Q 1006 4000 1006 3750 
Q 1006 3503 1178 3333 
Q 1350 3163 1600 3163 
Q 1850 3163 2022 3333 
Q 2194 3503 2194 3750 
Q 2194 3997 2020 4172 
Q 1847 4347 1600 4347 
z
M 1600 4750 
Q 1800 4750 1984 4673 
Q 2169 4597 2303 4453 
Q 2447 4313 2519 4134 
Q 2591 3956 2591 3750 
Q 2591 3338 2302 3052 
Q 2013 2766 1594 2766 
Q 1172 2766 890 3047 
Q 609 3328 609 3750 
Q 609 4169 896 4459 
Q 1184 4750 1600 4750 
z
" transform="scale(0.015625)"/>
     </defs>
     <use xlink:href="#DejaVuSans-2014"/>
     <use xlink:href="#DejaVuSans-20" transform="translate(100 0)"/>
     <use xlink:href="#DejaVuSans-33" transform="translate(131.787109 0)"/>
     <use xlink:href="#DejaVuSans-36" transform="translate(195.410156 0)"/>
     <use xlink:href="#DejaVuSans-30" transform="translate(259.033203 0)"/>
     <use xlink:href="#DejaVuSans-b0" transform="translate(322.65625 0)"/>
     <use xlink:href="#DejaVuSans-20" transform="translate(372.65625 0)"/>
     <use xlink:href="#DejaVuSans-75" transform="translate(404.443359 0)"/>
     <use xlink:href="#DejaVuSans-6d" transform="translate(467.822266 0)"/>
     <use xlink:href="#DejaVuSans-20" transform="translate(565.234375 0)"/>
     <use xlink:href="#DejaVuSans-64" transform="translate(597.021484 0)"/>
     <use xlink:href="#DejaVuSans-69" transform="translate(660.498047 0)"/>
     <use xlink:href="#DejaVuSans-65" transform="translate(688.28125 0)"/>
     <use xlink:href="#DejaVuSans-20" transform="translate(749.804688 0)"/>
     <use xlink:href="#DejaVuSans-53" transform="translate(781.591797 0)"/>
     <use xlink:href="#DejaVuSans-70" transform="translate(845.068359 0)"/>
     <use xlink:href="#DejaVuSans-69" transform="translate(908.544922 0)"/>
     <use xlink:href="#DejaVuSans-6e" transform="translate(936.328125 0)"/>
     <use xlink:href="#DejaVuSans-61" transform="translate(999.707031 0)"/>
     <use xlink:href="#DejaVuSans-63" transform="translate(1060.986328 0)"/>
     <use xlink:href="#DejaVuSans-68" transform="translate(1115.966797 0)"/>
     <use xlink:href="#DejaVuSans-73" transform="translate(1179.345703 0)"/>
     <use xlink:href="#DejaVuSans-65" transform="translate(1231.445312 0)"/>
    </g>
   </g>
   <g id="text_10">
    <!-- Merksätze: -->
    <g style="fill: #e2e8f0" transform="translate(23.94 213.242672) scale(0.085 -0.085)">
     <defs>
      <path id="DejaVuSans-4d" d="M 628 4666 
L 1569 4666 
L 2759 1491 
L 3956 4666 
L 4897 4666 
L 4897 0 
L 4281 0 
L 4281 4097 
L 3078 897 
L 2444 897 
L 1241 4097 
L 1241 0 
L 628 0 
L 628 4666 
z
" transform="scale(0.015625)"/>
      <path id="DejaVuSans-e4" d="M 2194 1759 
Q 1497 1759 1228 1600 
Q 959 1441 959 1056 
Q 959 750 1161 570 
Q 1363 391 1709 391 
Q 2188 391 2477 730 
Q 2766 1069 2766 1631 
L 2766 1759 
L 2194 1759 
z
M 3341 1997 
L 3341 0 
L 2766 0 
L 2766 531 
Q 2569 213 2275 61 
Q 1981 -91 1556 -91 
Q 1019 -91 701 211 
Q 384 513 384 1019 
Q 384 1609 779 1909 
Q 1175 2209 1959 2209 
L 2766 2209 
L 2766 2266 
Q 2766 2663 2505 2880 
Q 2244 3097 1772 3097 
Q 1472 3097 1187 3025 
Q 903 2953 641 2809 
L 641 3341 
Q 956 3463 1253 3523 
Q 1550 3584 1831 3584 
Q 2591 3584 2966 3190 
Q 3341 2797 3341 1997 
z
M 2150 4850 
L 2784 4850 
L 2784 4219 
L 2150 4219 
L 2150 4850 
z
M 928 4850 
L 1562 4850 
L 1562 4219 
L 928 4219 
L 928 4850 
z
" transform="scale(0.015625)"/>
      <path id="DejaVuSans-3a" d="M 750 794 
L 1409 794 
L 1409 0 
L 750 0 
L 750 794 
z
M 750 3309 
L 1409 3309 
L 1409 2516 
L 750 2516 
L 750 3309 
z
" transform="scale(0.015625)"/>
     </defs>
     <use xlink:href="#DejaVuSans-4d"/>
     <use xlink:href="#DejaVuSans-65" transform="translate(86.279297 0)"/>
     <use xlink:href="#DejaVuSans-72" transform="translate(147.802734 0)"/>
     <use xlink:href="#DejaVuSans-6b" transform="translate(188.916016 0)"/>
     <use xlink:href="#DejaVuSans-73" transform="translate(246.826172 0)"/>
     <use xlink:href="#DejaVuSans-e4" transform="translate(298.925781 0)"/>
     <use xlink:href="#DejaVuSans-74" transform="translate(360.205078 0)"/>
     <use xlink:href="#DejaVuSans-7a" transform="translate(399.414062 0)"/>
     <use xlink:href="#DejaVuSans-65" transform="translate(451.904297 0)"/>
     <use xlink:href="#DejaVuSans-3a" transform="translate(513.427734 0)"/>
    </g>
    <!-- • OBEN/UNTEN: Bodenplatte des LiDAR steht SENKRECHT an der Rückplatte. -->
    <g style="fill: #e2e8f0" transform="translate(23.94 222.760812) scale(0.085 -0.085)">
     <defs>
      <path id="DejaVuSans-2022" d="M 959 2381 
Q 959 2769 1229 3036 
Q 1500 3303 1894 3303 
Q 2281 3303 2548 3036 
Q 2816 2769 2816 2381 
Q 2816 1991 2547 1722 
Q 2278 1453 1888 1453 
Q 1497 1453 1228 1722 
Q 959 1991 959 2381 
z
" transform="scale(0.015625)"/>
      <path id="DejaVuSans-4f" d="M 2522 4238 
Q 1834 4238 1429 3725 
Q 1025 3213 1025 2328 
Q 1025 1447 1429 934 
Q 1834 422 2522 422 
Q 3209 422 3611 934 
Q 4013 1447 4013 2328 
Q 4013 3213 3611 3725 
Q 3209 4238 2522 4238 
z
M 2522 4750 
Q 3503 4750 4090 4092 
Q 4678 3434 4678 2328 
Q 4678 1225 4090 567 
Q 3503 -91 2522 -91 
Q 1538 -91 948 565 
Q 359 1222 359 2328 
Q 359 3434 948 4092 
Q 1538 4750 2522 4750 
z
" transform="scale(0.015625)"/>
      <path id="DejaVuSans-4e" d="M 628 4666 
L 1478 4666 
L 3547 763 
L 3547 4666 
L 4159 4666 
L 4159 0 
L 3309 0 
L 1241 3903 
L 1241 0 
L 628 0 
L 628 4666 
z
" transform="scale(0.015625)"/>
      <path id="DejaVuSans-2f" d="M 1625 4666 
L 2156 4666 
L 531 -594 
L 0 -594 
L 1625 4666 
z
" transform="scale(0.015625)"/>
      <path id="DejaVuSans-55" d="M 556 4666 
L 1191 4666 
L 1191 1831 
Q 1191 1081 1462 751 
Q 1734 422 2344 422 
Q 2950 422 3222 751 
Q 3494 1081 3494 1831 
L 3494 4666 
L 4128 4666 
L 4128 1753 
Q 4128 841 3676 375 
Q 3225 -91 2344 -91 
Q 1459 -91 1007 375 
Q 556 841 556 1753 
L 556 4666 
z
" transform="scale(0.015625)"/>
      <path id="DejaVuSans-54" d="M -19 4666 
L 3928 4666 
L 3928 4134 
L 2272 4134 
L 2272 0 
L 1638 0 
L 1638 4134 
L -19 4134 
L -19 4666 
z
" transform="scale(0.015625)"/>
      <path id="DejaVuSans-4b" d="M 628 4666 
L 1259 4666 
L 1259 2694 
L 3353 4666 
L 4166 4666 
L 1850 2491 
L 4331 0 
L 3500 0 
L 1259 2247 
L 1259 0 
L 628 0 
L 628 4666 
z
" transform="scale(0.015625)"/>
      <path id="DejaVuSans-43" d="M 4122 4306 
L 4122 3641 
Q 3803 3938 3442 4084 
Q 3081 4231 2675 4231 
Q 1875 4231 1450 3742 
Q 1025 3253 1025 2328 
Q 1025 1406 1450 917 
Q 1875 428 2675 428 
Q 3081 428 3442 575 
Q 3803 722 4122 1019 
L 4122 359 
Q 3791 134 3420 21 
Q 3050 -91 2638 -91 
Q 1578 -91 968 557 
Q 359 1206 359 2328 
Q 359 3453 968 4101 
Q 1578 4750 2638 4750 
Q 3056 4750 3426 4639 
Q 3797 4528 4122 4306 
z
" transform="scale(0.015625)"/>
      <path id="DejaVuSans-48" d="M 628 4666 
L 1259 4666 
L 1259 2753 
L 3553 2753 
L 3553 4666 
L 4184 4666 
L 4184 0 
L 3553 0 
L 3553 2222 
L 1259 2222 
L 1259 0 
L 628 0 
L 628 4666 
z
" transform="scale(0.015625)"/>
     </defs>
     <use xlink:href="#DejaVuSans-2022"/>
     <use xlink:href="#DejaVuSans-20" transform="translate(58.984375 0)"/>
     <use xlink:href="#DejaVuSans-4f" transform="translate(90.771484 0)"/>
     <use xlink:href="#DejaVuSans-42" transform="translate(169.482422 0)"/>
     <use xlink:href="#DejaVuSans-45" transform="translate(238.085938 0)"/>
     <use xlink:href="#DejaVuSans-4e" transform="translate(301.269531 0)"/>
     <use xlink:href="#DejaVuSans-2f" transform="translate(376.074219 0)"/>
     <use xlink:href="#DejaVuSans-55" transform="translate(409.765625 0)"/>
     <use xlink:href="#DejaVuSans-4e" transform="translate(482.958984 0)"/>
     <use xlink:href="#DejaVuSans-54" transform="translate(557.763672 0)"/>
     <use xlink:href="#DejaVuSans-45" transform="translate(618.847656 0)"/>
     <use xlink:href="#DejaVuSans-4e" transform="translate(682.03125 0)"/>
     <use xlink:href="#DejaVuSans-3a" transform="translate(756.835938 0)"/>
     <use xlink:href="#DejaVuSans-20" transform="translate(790.527344 0)"/>
     <use xlink:href="#DejaVuSans-42" transform="translate(822.314453 0)"/>
     <use xlink:href="#DejaVuSans-6f" transform="translate(890.917969 0)"/>
     <use xlink:href="#DejaVuSans-64" transform="translate(952.099609 0)"/>
     <use xlink:href="#DejaVuSans-65" transform="translate(1015.576172 0)"/>
     <use xlink:href="#DejaVuSans-6e" transform="translate(1077.099609 0)"/>
     <use xlink:href="#DejaVuSans-70" transform="translate(1140.478516 0)"/>
     <use xlink:href="#DejaVuSans-6c" transform="translate(1203.955078 0)"/>
     <use xlink:href="#DejaVuSans-61" transform="translate(1231.738281 0)"/>
     <use xlink:href="#DejaVuSans-74" transform="translate(1293.017578 0)"/>
     <use xlink:href="#DejaVuSans-74" transform="translate(1332.226562 0)"/>
     <use xlink:href="#DejaVuSans-65" transform="translate(1371.435547 0)"/>
     <use xlink:href="#DejaVuSans-20" transform="translate(1432.958984 0)"/>
     <use xlink:href="#DejaVuSans-64" transform="translate(1464.746094 0)"/>
     <use xlink:href="#DejaVuSans-65" transform="translate(1528.222656 0)"/>
     <use xlink:href="#DejaVuSans-73" transform="translate(1589.746094 0)"/>
     <use xlink:href="#DejaVuSans-20" transform="translate(1641.845703 0)"/>
     <use xlink:href="#DejaVuSans-4c" transform="translate(1673.632812 0)"/>
     <use xlink:href="#DejaVuSans-69" transform="translate(1729.345703 0)"/>
     <use xlink:href="#DejaVuSans-44" transform="translate(1757.128906 0)"/>
     <use xlink:href="#DejaVuSans-41" transform="translate(1832.380859 0)"/>
     <use xlink:href="#DejaVuSans-52" transform="translate(1900.789062 0)"/>
     <use xlink:href="#DejaVuSans-20" transform="translate(1970.271484 0)"/>
     <use xlink:href="#DejaVuSans-73" transform="translate(2002.058594 0)"/>
     <use xlink:href="#DejaVuSans-74" transform="translate(2054.158203 0)"/>
     <use xlink:href="#DejaVuSans-65" transform="translate(2093.367188 0)"/>
     <use xlink:href="#DejaVuSans-68" transform="translate(2154.890625 0)"/>
     <use xlink:href="#DejaVuSans-74" transform="translate(2218.269531 0)"/>
     <use xlink:href="#DejaVuSans-20" transform="translate(2257.478516 0)"/>
     <use xlink:href="#DejaVuSans-53" transform="translate(2289.265625 0)"/>
     <use xlink:href="#DejaVuSans-45" transform="translate(2352.742188 0)"/>
     <use xlink:href="#DejaVuSans-4e" transform="translate(2415.925781 0)"/>
     <use xlink:href="#DejaVuSans-4b" transform="translate(2490.730469 0)"/>
     <use xlink:href="#DejaVuSans-52" transform="translate(2556.306641 0)"/>
     <use xlink:href="#DejaVuSans-45" transform="translate(2625.789062 0)"/>
     <use xlink:href="#DejaVuSans-43" transform="translate(2688.972656 0)"/>
     <use xlink:href="#DejaVuSans-48" transform="translate(2758.796875 0)"/>
     <use xlink:href="#DejaVuSans-54" transform="translate(2833.992188 0)"/>
     <use xlink:href="#DejaVuSans-20" transform="translate(2895.076172 0)"/>
     <use xlink:href="#DejaVuSans-61" transform="translate(2926.863281 0)"/>
     <use xlink:href="#DejaVuSans-6e" transform="translate(2988.142578 0)"/>
     <use xlink:href="#DejaVuSans-20" transform="translate(3051.521484 0)"/>
     <use xlink:href="#DejaVuSans-64" transform="translate(3083.308594 0)"/>
     <use xlink:href="#DejaVuSans-65" transform="translate(3146.785156 0)"/>
     <use xlink:href="#DejaVuSans-72" transform="translate(3208.308594 0)"/>
     <use xlink:href="#DejaVuSans-20" transform="translate(3249.421875 0)"/>
     <use xlink:href="#DejaVuSans-52" transform="translate(3281.208984 0)"/>
     <use xlink:href="#DejaVuSans-fc" transform="translate(3346.191406 0)"/>
     <use xlink:href="#DejaVuSans-63" transform="translate(3409.570312 0)"/>
     <use xlink:href="#DejaVuSans-6b" transform="translate(3464.550781 0)"/>
     <use xlink:href="#DejaVuSans-70" transform="translate(3522.460938 0)"/>
     <use xlink:href="#DejaVuSans-6c" transform="translate(3585.9375 0)"/>
     <use xlink:href="#DejaVuSans-61" transform="translate(3613.720703 0)"/>
     <use xlink:href="#DejaVuSans-74" transform="translate(3675 0)"/>
     <use xlink:href="#DejaVuSans-74" transform="translate(3714.208984 0)"/>
     <use xlink:href="#DejaVuSans-65" transform="translate(3753.417969 0)"/>
     <use xlink:href="#DejaVuSans-2e" transform="translate(3814.941406 0)"/>
    </g>
    <!-- • Spinachse zeigt HORIZONTAL nach außen (Y) → Scan-Ebene ist VERTIKAL. -->
    <g style="fill: #e2e8f0" transform="translate(23.94 232.278953) scale(0.085 -0.085)">
     <defs>
      <path id="DejaVuSans-49" d="M 628 4666 
L 1259 4666 
L 1259 0 
L 628 0 
L 628 4666 
z
" transform="scale(0.015625)"/>
      <path id="DejaVuSans-df" d="M 581 3553 
Q 581 4178 954 4520 
Q 1328 4863 2009 4863 
Q 2659 4863 3001 4500 
Q 3344 4138 3353 3438 
Q 2881 3413 2618 3233 
Q 2356 3053 2356 2753 
Q 2356 2606 2447 2479 
Q 2538 2353 2741 2222 
L 2919 2106 
Q 3438 1775 3588 1553 
Q 3738 1331 3738 1019 
Q 3738 481 3386 195 
Q 3034 -91 2375 -91 
Q 2175 -91 1962 -52 
Q 1750 -13 1522 63 
L 1522 575 
Q 1772 481 1990 436 
Q 2209 391 2413 391 
Q 2775 391 2962 539 
Q 3150 688 3150 972 
Q 3150 1169 3058 1300 
Q 2966 1431 2650 1625 
L 2363 1797 
Q 2063 1981 1927 2192 
Q 1791 2403 1791 2688 
Q 1791 3084 2052 3353 
Q 2313 3622 2784 3713 
Q 2759 4034 2554 4209 
Q 2350 4384 1997 4384 
Q 1591 4384 1378 4167 
Q 1166 3950 1166 3541 
L 1166 0 
L 581 0 
L 581 3553 
z
" transform="scale(0.015625)"/>
      <path id="DejaVuSans-2192" d="M 5050 2147 
L 5050 1866 
L 3822 638 
L 3447 1013 
L 4175 1741 
L 366 1741 
L 366 2272 
L 4175 2272 
L 3447 3000 
L 3822 3375 
L 5050 2147 
z
" transform="scale(0.015625)"/>
     </defs>
     <use xlink:href="#DejaVuSans-2022"/>
     <use xlink:href="#DejaVuSans-20" transform="translate(58.984375 0)"/>
     <use xlink:href="#DejaVuSans-53" transform="translate(90.771484 0)"/>
     <use xlink:href="#DejaVuSans-70" transform="translate(154.248047 0)"/>
     <use xlink:href="#DejaVuSans-69" transform="translate(217.724609 0)"/>
     <use xlink:href="#DejaVuSans-6e" transform="translate(245.507812 0)"/>
     <use xlink:href="#DejaVuSans-61" transform="translate(308.886719 0)"/>
     <use xlink:href="#DejaVuSans-63" transform="translate(370.166016 0)"/>
     <use xlink:href="#DejaVuSans-68" transform="translate(425.146484 0)"/>
     <use xlink:href="#DejaVuSans-73" transform="translate(488.525391 0)"/>
     <use xlink:href="#DejaVuSans-65" transform="translate(540.625 0)"/>
     <use xlink:href="#DejaVuSans-20" transform="translate(602.148438 0)"/>
     <use xlink:href="#DejaVuSans-7a" transform="translate(633.935547 0)"/>
     <use xlink:href="#DejaVuSans-65" transform="translate(686.425781 0)"/>
     <use xlink:href="#DejaVuSans-69" transform="translate(747.949219 0)"/>
     <use xlink:href="#DejaVuSans-67" transform="translate(775.732422 0)"/>
     <use xlink:href="#DejaVuSans-74" transform="translate(839.208984 0)"/>
     <use xlink:href="#DejaVuSans-20" transform="translate(878.417969 0)"/>
     <use xlink:href="#DejaVuSans-48" transform="translate(910.205078 0)"/>
     <use xlink:href="#DejaVuSans-4f" transform="translate(985.400391 0)"/>
     <use xlink:href="#DejaVuSans-52" transform="translate(1064.111328 0)"/>
     <use xlink:href="#DejaVuSans-49" transform="translate(1133.59375 0)"/>
     <use xlink:href="#DejaVuSans-5a" transform="translate(1163.085938 0)"/>
     <use xlink:href="#DejaVuSans-4f" transform="translate(1231.591797 0)"/>
     <use xlink:href="#DejaVuSans-4e" transform="translate(1310.302734 0)"/>
     <use xlink:href="#DejaVuSans-54" transform="translate(1385.107422 0)"/>
     <use xlink:href="#DejaVuSans-41" transform="translate(1438.441406 0)"/>
     <use xlink:href="#DejaVuSans-4c" transform="translate(1506.849609 0)"/>
     <use xlink:href="#DejaVuSans-20" transform="translate(1562.5625 0)"/>
     <use xlink:href="#DejaVuSans-6e" transform="translate(1594.349609 0)"/>
     <use xlink:href="#DejaVuSans-61" transform="translate(1657.728516 0)"/>
     <use xlink:href="#DejaVuSans-63" transform="translate(1719.007812 0)"/>
     <use xlink:href="#DejaVuSans-68" transform="translate(1773.988281 0)"/>
     <use xlink:href="#DejaVuSans-20" transform="translate(1837.367188 0)"/>
     <use xlink:href="#DejaVuSans-61" transform="translate(1869.154297 0)"/>
     <use xlink:href="#DejaVuSans-75" transform="translate(1930.433594 0)"/>
     <use xlink:href="#DejaVuSans-df" transform="translate(1993.8125 0)"/>
     <use xlink:href="#DejaVuSans-65" transform="translate(2056.800781 0)"/>
     <use xlink:href="#DejaVuSans-6e" transform="translate(2118.324219 0)"/>
     <use xlink:href="#DejaVuSans-20" transform="translate(2181.703125 0)"/>
     <use xlink:href="#DejaVuSans-28" transform="translate(2213.490234 0)"/>
     <use xlink:href="#DejaVuSans-59" transform="translate(2252.503906 0)"/>
     <use xlink:href="#DejaVuSans-29" transform="translate(2313.587891 0)"/>
     <use xlink:href="#DejaVuSans-20" transform="translate(2352.601562 0)"/>
     <use xlink:href="#DejaVuSans-2192" transform="translate(2384.388672 0)"/>
     <use xlink:href="#DejaVuSans-20" transform="translate(2468.177734 0)"/>
     <use xlink:href="#DejaVuSans-53" transform="translate(2499.964844 0)"/>
     <use xlink:href="#DejaVuSans-63" transform="translate(2563.441406 0)"/>
     <use xlink:href="#DejaVuSans-61" transform="translate(2618.421875 0)"/>
     <use xlink:href="#DejaVuSans-6e" transform="translate(2679.701172 0)"/>
     <use xlink:href="#DejaVuSans-2d" transform="translate(2743.080078 0)"/>
     <use xlink:href="#DejaVuSans-45" transform="translate(2779.164062 0)"/>
     <use xlink:href="#DejaVuSans-62" transform="translate(2842.347656 0)"/>
     <use xlink:href="#DejaVuSans-65" transform="translate(2905.824219 0)"/>
     <use xlink:href="#DejaVuSans-6e" transform="translate(2967.347656 0)"/>
     <use xlink:href="#DejaVuSans-65" transform="translate(3030.726562 0)"/>
     <use xlink:href="#DejaVuSans-20" transform="translate(3092.25 0)"/>
     <use xlink:href="#DejaVuSans-69" transform="translate(3124.037109 0)"/>
     <use xlink:href="#DejaVuSans-73" transform="translate(3151.820312 0)"/>
     <use xlink:href="#DejaVuSans-74" transform="translate(3203.919922 0)"/>
     <use xlink:href="#DejaVuSans-20" transform="translate(3243.128906 0)"/>
     <use xlink:href="#DejaVuSans-56" transform="translate(3274.916016 0)"/>
     <use xlink:href="#DejaVuSans-45" transform="translate(3343.324219 0)"/>
     <use xlink:href="#DejaVuSans-52" transform="translate(3406.507812 0)"/>
     <use xlink:href="#DejaVuSans-54" transform="translate(3468.740234 0)"/>
     <use xlink:href="#DejaVuSans-49" transform="translate(3529.824219 0)"/>
     <use xlink:href="#DejaVuSans-4b" transform="translate(3559.316406 0)"/>
     <use xlink:href="#DejaVuSans-41" transform="translate(3623.142578 0)"/>
     <use xlink:href="#DejaVuSans-4c" transform="translate(3691.550781 0)"/>
     <use xlink:href="#DejaVuSans-2e" transform="translate(3747.263672 0)"/>
    </g>
    <!-- • Optikfenster rundum FREI halten (keine Verdeckung in der X-Z-Ebene). -->
    <g style="fill: #e2e8f0" transform="translate(23.94 241.797094) scale(0.085 -0.085)">
     <defs>
      <path id="DejaVuSans-46" d="M 628 4666 
L 3309 4666 
L 3309 4134 
L 1259 4134 
L 1259 2759 
L 3109 2759 
L 3109 2228 
L 1259 2228 
L 1259 0 
L 628 0 
L 628 4666 
z
" transform="scale(0.015625)"/>
     </defs>
     <use xlink:href="#DejaVuSans-2022"/>
     <use xlink:href="#DejaVuSans-20" transform="translate(58.984375 0)"/>
     <use xlink:href="#DejaVuSans-4f" transform="translate(90.771484 0)"/>
     <use xlink:href="#DejaVuSans-70" transform="translate(169.482422 0)"/>
     <use xlink:href="#DejaVuSans-74" transform="translate(232.958984 0)"/>
     <use xlink:href="#DejaVuSans-69" transform="translate(272.167969 0)"/>
     <use xlink:href="#DejaVuSans-6b" transform="translate(299.951172 0)"/>
     <use xlink:href="#DejaVuSans-66" transform="translate(357.861328 0)"/>
     <use xlink:href="#DejaVuSans-65" transform="translate(393.066406 0)"/>
     <use xlink:href="#DejaVuSans-6e" transform="translate(454.589844 0)"/>
     <use xlink:href="#DejaVuSans-73" transform="translate(517.96875 0)"/>
     <use xlink:href="#DejaVuSans-74" transform="translate(570.068359 0)"/>
     <use xlink:href="#DejaVuSans-65" transform="translate(609.277344 0)"/>
     <use xlink:href="#DejaVuSans-72" transform="translate(670.800781 0)"/>
     <use xlink:href="#DejaVuSans-20" transform="translate(711.914062 0)"/>
     <use xlink:href="#DejaVuSans-72" transform="translate(743.701172 0)"/>
     <use xlink:href="#DejaVuSans-75" transform="translate(784.814453 0)"/>
     <use xlink:href="#DejaVuSans-6e" transform="translate(848.193359 0)"/>
     <use xlink:href="#DejaVuSans-64" transform="translate(911.572266 0)"/>
     <use xlink:href="#DejaVuSans-75" transform="translate(975.048828 0)"/>
     <use xlink:href="#DejaVuSans-6d" transform="translate(1038.427734 0)"/>
     <use xlink:href="#DejaVuSans-20" transform="translate(1135.839844 0)"/>
     <use xlink:href="#DejaVuSans-46" transform="translate(1167.626953 0)"/>
     <use xlink:href="#DejaVuSans-52" transform="translate(1225.146484 0)"/>
     <use xlink:href="#DejaVuSans-45" transform="translate(1294.628906 0)"/>
     <use xlink:href="#DejaVuSans-49" transform="translate(1357.8125 0)"/>
     <use xlink:href="#DejaVuSans-20" transform="translate(1387.304688 0)"/>
     <use xlink:href="#DejaVuSans-68" transform="translate(1419.091797 0)"/>
     <use xlink:href="#DejaVuSans-61" transform="translate(1482.470703 0)"/>
     <use xlink:href="#DejaVuSans-6c" transform="translate(1543.75 0)"/>
     <use xlink:href="#DejaVuSans-74" transform="translate(1571.533203 0)"/>
     <use xlink:href="#DejaVuSans-65" transform="translate(1610.742188 0)"/>
     <use xlink:href="#DejaVuSans-6e" transform="translate(1672.265625 0)"/>
     <use xlink:href="#DejaVuSans-20" transform="translate(1735.644531 0)"/>
     <use xlink:href="#DejaVuSans-28" transform="translate(1767.431641 0)"/>
     <use xlink:href="#DejaVuSans-6b" transform="translate(1806.445312 0)"/>
     <use xlink:href="#DejaVuSans-65" transform="translate(1860.730469 0)"/>
     <use xlink:href="#DejaVuSans-69" transform="translate(1922.253906 0)"/>
     <use xlink:href="#DejaVuSans-6e" transform="translate(1950.037109 0)"/>
     <use xlink:href="#DejaVuSans-65" transform="translate(2013.416016 0)"/>
     <use xlink:href="#DejaVuSans-20" transform="translate(2074.939453 0)"/>
     <use xlink:href="#DejaVuSans-56" transform="translate(2106.726562 0)"/>
     <use xlink:href="#DejaVuSans-65" transform="translate(2167.384766 0)"/>
     <use xlink:href="#DejaVuSans-72" transform="translate(2228.908203 0)"/>
     <use xlink:href="#DejaVuSans-64" transform="translate(2268.271484 0)"/>
     <use xlink:href="#DejaVuSans-65" transform="translate(2331.748047 0)"/>
     <use xlink:href="#DejaVuSans-63" transform="translate(2393.271484 0)"/>
     <use xlink:href="#DejaVuSans-6b" transform="translate(2448.251953 0)"/>
     <use xlink:href="#DejaVuSans-75" transform="translate(2503.037109 0)"/>
     <use xlink:href="#DejaVuSans-6e" transform="translate(2566.416016 0)"/>
     <use xlink:href="#DejaVuSans-67" transform="translate(2629.794922 0)"/>
     <use xlink:href="#DejaVuSans-20" transform="translate(2693.271484 0)"/>
     <use xlink:href="#DejaVuSans-69" transform="translate(2725.058594 0)"/>
     <use xlink:href="#DejaVuSans-6e" transform="translate(2752.841797 0)"/>
     <use xlink:href="#DejaVuSans-20" transform="translate(2816.220703 0)"/>
     <use xlink:href="#DejaVuSans-64" transform="translate(2848.007812 0)"/>
     <use xlink:href="#DejaVuSans-65" transform="translate(2911.484375 0)"/>
     <use xlink:href="#DejaVuSans-72" transform="translate(2973.007812 0)"/>
     <use xlink:href="#DejaVuSans-20" transform="translate(3014.121094 0)"/>
     <use xlink:href="#DejaVuSans-58" transform="translate(3045.908203 0)"/>
     <use xlink:href="#DejaVuSans-2d" transform="translate(3109.414062 0)"/>
     <use xlink:href="#DejaVuSans-5a" transform="translate(3145.498047 0)"/>
     <use xlink:href="#DejaVuSans-2d" transform="translate(3212.253906 0)"/>
     <use xlink:href="#DejaVuSans-45" transform="translate(3248.337891 0)"/>
     <use xlink:href="#DejaVuSans-62" transform="translate(3311.521484 0)"/>
     <use xlink:href="#DejaVuSans-65" transform="translate(3374.998047 0)"/>
     <use xlink:href="#DejaVuSans-6e" transform="translate(3436.521484 0)"/>
     <use xlink:href="#DejaVuSans-65" transform="translate(3499.900391 0)"/>
     <use xlink:href="#DejaVuSans-29" transform="translate(3561.423828 0)"/>
     <use xlink:href="#DejaVuSans-2e" transform="translate(3600.4375 0)"/>
    </g>
    <!-- • Stecker ZH1.5T-4P (Tx,PWM,GND,VCC) unten → Kabel mitdrehend, Zugentlastung. -->
    <g style="fill: #e2e8f0" transform="translate(23.94 251.315234) scale(0.085 -0.085)">
     <defs>
      <path id="DejaVuSans-31" d="M 794 531 
L 1825 531 
L 1825 4091 
L 703 3866 
L 703 4441 
L 1819 4666 
L 2450 4666 
L 2450 531 
L 3481 531 
L 3481 0 
L 794 0 
L 794 531 
z
" transform="scale(0.015625)"/>
      <path id="DejaVuSans-35" d="M 691 4666 
L 3169 4666 
L 3169 4134 
L 1269 4134 
L 1269 2991 
Q 1406 3038 1543 3061 
Q 1681 3084 1819 3084 
Q 2600 3084 3056 2656 
Q 3513 2228 3513 1497 
Q 3513 744 3044 326 
Q 2575 -91 1722 -91 
Q 1428 -91 1123 -41 
Q 819 9 494 109 
L 494 744 
Q 775 591 1075 516 
Q 1375 441 1709 441 
Q 2250 441 2565 725 
Q 2881 1009 2881 1497 
Q 2881 1984 2565 2268 
Q 2250 2553 1709 2553 
Q 1456 2553 1204 2497 
Q 953 2441 691 2322 
L 691 4666 
z
" transform="scale(0.015625)"/>
      <path id="DejaVuSans-34" d="M 2419 4116 
L 825 1625 
L 2419 1625 
L 2419 4116 
z
M 2253 4666 
L 3047 4666 
L 3047 1625 
L 3713 1625 
L 3713 1100 
L 3047 1100 
L 3047 0 
L 2419 0 
L 2419 1100 
L 313 1100 
L 313 1709 
L 2253 4666 
z
" transform="scale(0.015625)"/>
      <path id="DejaVuSans-78" d="M 3513 3500 
L 2247 1797 
L 3578 0 
L 2900 0 
L 1881 1375 
L 863 0 
L 184 0 
L 1544 1831 
L 300 3500 
L 978 3500 
L 1906 2253 
L 2834 3500 
L 3513 3500 
z
" transform="scale(0.015625)"/>
      <path id="DejaVuSans-57" d="M 213 4666 
L 850 4666 
L 1831 722 
L 2809 4666 
L 3519 4666 
L 4500 722 
L 5478 4666 
L 6119 4666 
L 4947 0 
L 4153 0 
L 3169 4050 
L 2175 0 
L 1381 0 
L 213 4666 
z
" transform="scale(0.015625)"/>
     </defs>
     <use xlink:href="#DejaVuSans-2022"/>
     <use xlink:href="#DejaVuSans-20" transform="translate(58.984375 0)"/>
     <use xlink:href="#DejaVuSans-53" transform="translate(90.771484 0)"/>
     <use xlink:href="#DejaVuSans-74" transform="translate(154.248047 0)"/>
     <use xlink:href="#DejaVuSans-65" transform="translate(193.457031 0)"/>
     <use xlink:href="#DejaVuSans-63" transform="translate(254.980469 0)"/>
     <use xlink:href="#DejaVuSans-6b" transform="translate(309.960938 0)"/>
     <use xlink:href="#DejaVuSans-65" transform="translate(364.246094 0)"/>
     <use xlink:href="#DejaVuSans-72" transform="translate(425.769531 0)"/>
     <use xlink:href="#DejaVuSans-20" transform="translate(466.882812 0)"/>
     <use xlink:href="#DejaVuSans-5a" transform="translate(498.669922 0)"/>
     <use xlink:href="#DejaVuSans-48" transform="translate(567.175781 0)"/>
     <use xlink:href="#DejaVuSans-31" transform="translate(642.371094 0)"/>
     <use xlink:href="#DejaVuSans-2e" transform="translate(705.994141 0)"/>
     <use xlink:href="#DejaVuSans-35" transform="translate(737.78125 0)"/>
     <use xlink:href="#DejaVuSans-54" transform="translate(801.404297 0)"/>
     <use xlink:href="#DejaVuSans-2d" transform="translate(853.363281 0)"/>
     <use xlink:href="#DejaVuSans-34" transform="translate(889.447266 0)"/>
     <use xlink:href="#DejaVuSans-50" transform="translate(953.070312 0)"/>
     <use xlink:href="#DejaVuSans-20" transform="translate(1013.373047 0)"/>
     <use xlink:href="#DejaVuSans-28" transform="translate(1045.160156 0)"/>
     <use xlink:href="#DejaVuSans-54" transform="translate(1084.173828 0)"/>
     <use xlink:href="#DejaVuSans-78" transform="translate(1145.257812 0)"/>
     <use xlink:href="#DejaVuSans-2c" transform="translate(1204.4375 0)"/>
     <use xlink:href="#DejaVuSans-50" transform="translate(1236.224609 0)"/>
     <use xlink:href="#DejaVuSans-57" transform="translate(1296.527344 0)"/>
     <use xlink:href="#DejaVuSans-4d" transform="translate(1395.404297 0)"/>
     <use xlink:href="#DejaVuSans-2c" transform="translate(1481.683594 0)"/>
     <use xlink:href="#DejaVuSans-47" transform="translate(1513.470703 0)"/>
     <use xlink:href="#DejaVuSans-4e" transform="translate(1590.960938 0)"/>
     <use xlink:href="#DejaVuSans-44" transform="translate(1665.765625 0)"/>
     <use xlink:href="#DejaVuSans-2c" transform="translate(1742.767578 0)"/>
     <use xlink:href="#DejaVuSans-56" transform="translate(1774.554688 0)"/>
     <use xlink:href="#DejaVuSans-43" transform="translate(1842.962891 0)"/>
     <use xlink:href="#DejaVuSans-43" transform="translate(1912.787109 0)"/>
     <use xlink:href="#DejaVuSans-29" transform="translate(1982.611328 0)"/>
     <use xlink:href="#DejaVuSans-20" transform="translate(2021.625 0)"/>
     <use xlink:href="#DejaVuSans-75" transform="translate(2053.412109 0)"/>
     <use xlink:href="#DejaVuSans-6e" transform="translate(2116.791016 0)"/>
     <use xlink:href="#DejaVuSans-74" transform="translate(2180.169922 0)"/>
     <use xlink:href="#DejaVuSans-65" transform="translate(2219.378906 0)"/>
     <use xlink:href="#DejaVuSans-6e" transform="translate(2280.902344 0)"/>
     <use xlink:href="#DejaVuSans-20" transform="translate(2344.28125 0)"/>
     <use xlink:href="#DejaVuSans-2192" transform="translate(2376.068359 0)"/>
     <use xlink:href="#DejaVuSans-20" transform="translate(2459.857422 0)"/>
     <use xlink:href="#DejaVuSans-4b" transform="translate(2491.644531 0)"/>
     <use xlink:href="#DejaVuSans-61" transform="translate(2555.470703 0)"/>
     <use xlink:href="#DejaVuSans-62" transform="translate(2616.75 0)"/>
     <use xlink:href="#DejaVuSans-65" transform="translate(2680.226562 0)"/>
     <use xlink:href="#DejaVuSans-6c" transform="translate(2741.75 0)"/>
     <use xlink:href="#DejaVuSans-20" transform="translate(2769.533203 0)"/>
     <use xlink:href="#DejaVuSans-6d" transform="translate(2801.320312 0)"/>
     <use xlink:href="#DejaVuSans-69" transform="translate(2898.732422 0)"/>
     <use xlink:href="#DejaVuSans-74" transform="translate(2926.515625 0)"/>
     <use xlink:href="#DejaVuSans-64" transform="translate(2965.724609 0)"/>
     <use xlink:href="#DejaVuSans-72" transform="translate(3029.201172 0)"/>
     <use xlink:href="#DejaVuSans-65" transform="translate(3068.064453 0)"/>
     <use xlink:href="#DejaVuSans-68" transform="translate(3129.587891 0)"/>
     <use xlink:href="#DejaVuSans-65" transform="translate(3192.966797 0)"/>
     <use xlink:href="#DejaVuSans-6e" transform="translate(3254.490234 0)"/>
     <use xlink:href="#DejaVuSans-64" transform="translate(3317.869141 0)"/>
     <use xlink:href="#DejaVuSans-2c" transform="translate(3381.345703 0)"/>
     <use xlink:href="#DejaVuSans-20" transform="translate(3413.132812 0)"/>
     <use xlink:href="#DejaVuSans-5a" transform="translate(3444.919922 0)"/>
     <use xlink:href="#DejaVuSans-75" transform="translate(3513.425781 0)"/>
     <use xlink:href="#DejaVuSans-67" transform="translate(3576.804688 0)"/>
     <use xlink:href="#DejaVuSans-65" transform="translate(3640.28125 0)"/>
     <use xlink:href="#DejaVuSans-6e" transform="translate(3701.804688 0)"/>
     <use xlink:href="#DejaVuSans-74" transform="translate(3765.183594 0)"/>
     <use xlink:href="#DejaVuSans-6c" transform="translate(3804.392578 0)"/>
     <use xlink:href="#DejaVuSans-61" transform="translate(3832.175781 0)"/>
     <use xlink:href="#DejaVuSans-73" transform="translate(3893.455078 0)"/>
     <use xlink:href="#DejaVuSans-74" transform="translate(3945.554688 0)"/>
     <use xlink:href="#DejaVuSans-75" transform="translate(3984.763672 0)"/>
     <use xlink:href="#DejaVuSans-6e" transform="translate(4048.142578 0)"/>
     <use xlink:href="#DejaVuSans-67" transform="translate(4111.521484 0)"/>
     <use xlink:href="#DejaVuSans-2e" transform="translate(4174.998047 0)"/>
    </g>
    <!-- • Würde der LiDAR FLACH liegen, wäre die Scan-Ebene horizontal → keine 3D-Wolke! -->
    <g style="fill: #e2e8f0" transform="translate(23.94 260.833375) scale(0.085 -0.085)">
     <defs>
      <path id="DejaVuSans-77" d="M 269 3500 
L 844 3500 
L 1563 769 
L 2278 3500 
L 2956 3500 
L 3675 769 
L 4391 3500 
L 4966 3500 
L 4050 0 
L 3372 0 
L 2619 2869 
L 1863 0 
L 1184 0 
L 269 3500 
z
" transform="scale(0.015625)"/>
      <path id="DejaVuSans-21" d="M 966 794 
L 1600 794 
L 1600 0 
L 966 0 
L 966 794 
z
M 966 4666 
L 1600 4666 
L 1600 2619 
L 1538 1503 
L 1031 1503 
L 966 2619 
L 966 4666 
z
" transform="scale(0.015625)"/>
     </defs>
     <use xlink:href="#DejaVuSans-2022"/>
     <use xlink:href="#DejaVuSans-20" transform="translate(58.984375 0)"/>
     <use xlink:href="#DejaVuSans-57" transform="translate(90.771484 0)"/>
     <use xlink:href="#DejaVuSans-fc" transform="translate(186.023438 0)"/>
     <use xlink:href="#DejaVuSans-72" transform="translate(249.402344 0)"/>
     <use xlink:href="#DejaVuSans-64" transform="translate(288.765625 0)"/>
     <use xlink:href="#DejaVuSans-65" transform="translate(352.242188 0)"/>
     <use xlink:href="#DejaVuSans-20" transform="translate(413.765625 0)"/>
     <use xlink:href="#DejaVuSans-64" transform="translate(445.552734 0)"/>
     <use xlink:href="#DejaVuSans-65" transform="translate(509.029297 0)"/>
     <use xlink:href="#DejaVuSans-72" transform="translate(570.552734 0)"/>
     <use xlink:href="#DejaVuSans-20" transform="translate(611.666016 0)"/>
     <use xlink:href="#DejaVuSans-4c" transform="translate(643.453125 0)"/>
     <use xlink:href="#DejaVuSans-69" transform="translate(699.166016 0)"/>
     <use xlink:href="#DejaVuSans-44" transform="translate(726.949219 0)"/>
     <use xlink:href="#DejaVuSans-41" transform="translate(802.201172 0)"/>
     <use xlink:href="#DejaVuSans-52" transform="translate(870.609375 0)"/>
     <use xlink:href="#DejaVuSans-20" transform="translate(940.091797 0)"/>
     <use xlink:href="#DejaVuSans-46" transform="translate(971.878906 0)"/>
     <use xlink:href="#DejaVuSans-4c" transform="translate(1029.398438 0)"/>
     <use xlink:href="#DejaVuSans-41" transform="translate(1087.361328 0)"/>
     <use xlink:href="#DejaVuSans-43" transform="translate(1154.019531 0)"/>
     <use xlink:href="#DejaVuSans-48" transform="translate(1223.84375 0)"/>
     <use xlink:href="#DejaVuSans-20" transform="translate(1299.039062 0)"/>
     <use xlink:href="#DejaVuSans-6c" transform="translate(1330.826172 0)"/>
     <use xlink:href="#DejaVuSans-69" transform="translate(1358.609375 0)"/>
     <use xlink:href="#DejaVuSans-65" transform="translate(1386.392578 0)"/>
     <use xlink:href="#DejaVuSans-67" transform="translate(1447.916016 0)"/>
     <use xlink:href="#DejaVuSans-65" transform="translate(1511.392578 0)"/>
     <use xlink:href="#DejaVuSans-6e" transform="translate(1572.916016 0)"/>
     <use xlink:href="#DejaVuSans-2c" transform="translate(1636.294922 0)"/>
     <use xlink:href="#DejaVuSans-20" transform="translate(1668.082031 0)"/>
     <use xlink:href="#DejaVuSans-77" transform="translate(1699.869141 0)"/>
     <use xlink:href="#DejaVuSans-e4" transform="translate(1781.65625 0)"/>
     <use xlink:href="#DejaVuSans-72" transform="translate(1842.935547 0)"/>
     <use xlink:href="#DejaVuSans-65" transform="translate(1881.798828 0)"/>
     <use xlink:href="#DejaVuSans-20" transform="translate(1943.322266 0)"/>
     <use xlink:href="#DejaVuSans-64" transform="translate(1975.109375 0)"/>
     <use xlink:href="#DejaVuSans-69" transform="translate(2038.585938 0)"/>
     <use xlink:href="#DejaVuSans-65" transform="translate(2066.369141 0)"/>
     <use xlink:href="#DejaVuSans-20" transform="translate(2127.892578 0)"/>
     <use xlink:href="#DejaVuSans-53" transform="translate(2159.679688 0)"/>
     <use xlink:href="#DejaVuSans-63" transform="translate(2223.15625 0)"/>
     <use xlink:href="#DejaVuSans-61" transform="translate(2278.136719 0)"/>
     <use xlink:href="#DejaVuSans-6e" transform="translate(2339.416016 0)"/>
     <use xlink:href="#DejaVuSans-2d" transform="translate(2402.794922 0)"/>
     <use xlink:href="#DejaVuSans-45" transform="translate(2438.878906 0)"/>
     <use xlink:href="#DejaVuSans-62" transform="translate(2502.0625 0)"/>
     <use xlink:href="#DejaVuSans-65" transform="translate(2565.539062 0)"/>
     <use xlink:href="#DejaVuSans-6e" transform="translate(2627.0625 0)"/>
     <use xlink:href="#DejaVuSans-65" transform="translate(2690.441406 0)"/>
     <use xlink:href="#DejaVuSans-20" transform="translate(2751.964844 0)"/>
     <use xlink:href="#DejaVuSans-68" transform="translate(2783.751953 0)"/>
     <use xlink:href="#DejaVuSans-6f" transform="translate(2847.130859 0)"/>
     <use xlink:href="#DejaVuSans-72" transform="translate(2908.3125 0)"/>
     <use xlink:href="#DejaVuSans-69" transform="translate(2949.425781 0)"/>
     <use xlink:href="#DejaVuSans-7a" transform="translate(2977.208984 0)"/>
     <use xlink:href="#DejaVuSans-6f" transform="translate(3029.699219 0)"/>
     <use xlink:href="#DejaVuSans-6e" transform="translate(3090.880859 0)"/>
     <use xlink:href="#DejaVuSans-74" transform="translate(3154.259766 0)"/>
     <use xlink:href="#DejaVuSans-61" transform="translate(3193.46875 0)"/>
     <use xlink:href="#DejaVuSans-6c" transform="translate(3254.748047 0)"/>
     <use xlink:href="#DejaVuSans-20" transform="translate(3282.53125 0)"/>
     <use xlink:href="#DejaVuSans-2192" transform="translate(3314.318359 0)"/>
     <use xlink:href="#DejaVuSans-20" transform="translate(3398.107422 0)"/>
     <use xlink:href="#DejaVuSans-6b" transform="translate(3429.894531 0)"/>
     <use xlink:href="#DejaVuSans-65" transform="translate(3484.179688 0)"/>
     <use xlink:href="#DejaVuSans-69" transform="translate(3545.703125 0)"/>
     <use xlink:href="#DejaVuSans-6e" transform="translate(3573.486328 0)"/>
     <use xlink:href="#DejaVuSans-65" transform="translate(3636.865234 0)"/>
     <use xlink:href="#DejaVuSans-20" transform="translate(3698.388672 0)"/>
     <use xlink:href="#DejaVuSans-33" transform="translate(3730.175781 0)"/>
     <use xlink:href="#DejaVuSans-44" transform="translate(3793.798828 0)"/>
     <use xlink:href="#DejaVuSans-2d" transform="translate(3870.800781 0)"/>
     <use xlink:href="#DejaVuSans-57" transform="translate(3902.884766 0)"/>
     <use xlink:href="#DejaVuSans-6f" transform="translate(3995.886719 0)"/>
     <use xlink:href="#DejaVuSans-6c" transform="translate(4057.068359 0)"/>
     <use xlink:href="#DejaVuSans-6b" transform="translate(4084.851562 0)"/>
     <use xlink:href="#DejaVuSans-65" transform="translate(4139.136719 0)"/>
     <use xlink:href="#DejaVuSans-21" transform="translate(4200.660156 0)"/>
    </g>
   </g>
  </g>
 </g>
 <defs>
  <clipPath id="p1348ad24ce">
   <rect x="7.2" y="7.2" width="725.4" height="443.52"/>
  </clipPath>
 </defs>
</svg>
